<?xml version="1.0" encoding="UTF-8"?>
<!DOCTYPE svg PUBLIC "-//W3C//DTD SVG 1.1//EN" "http://www.w3.org/Graphics/SVG/1.1/DTD/svg11.dtd">
<!-- Creator: CorelDRAW X8 -->
<svg xmlns="http://www.w3.org/2000/svg" xml:space="preserve" width="148.85mm" height="148.834mm" version="1.1" style="shape-rendering:geometricPrecision; text-rendering:geometricPrecision; image-rendering:optimizeQuality; fill-rule:evenodd; clip-rule:evenodd"
viewBox="0 0 2610 2610"
 xmlns:xlink="http://www.w3.org/1999/xlink">
 <defs>
  <style type="text/css">
   <![CDATA[
    .fil0 {fill:black;fill-rule:nonzero}
   ]]>
  </style>
 </defs>
 <g id="Layer_x0020_1">
  <metadata id="CorelCorpID_0Corel-Layer"/>
  <path class="fil0" d="M1256 2447l7 -95c0,-2 2,-4 4,-3l54 4c2,0 3,2 3,3l-19 251c0,2 -2,3 -4,3l-54 -4c-2,0 -3,-2 -3,-4l8 -101 -36 -3 -8 101c0,2 -2,4 -4,3l-54 -4c-2,0 -3,-1 -3,-3l19 -251c0,-1 2,-3 4,-3l54 4c2,0 3,2 3,4l-7 95 36 3zm14 -91l-8 94c0,2 -1,4 -3,4l-43 -4c-2,0 -3,-1 -3,-3l7 -95 -47 -4 -19 244 48 3 7 -101c0,-2 2,-3 4,-3l43 3c2,0 3,2 3,4l-8 101 48 4 18 -244 -47 -3zm-294 213l-1 0c-16,-4 -27,-12 -34,-23 -6,-10 -7,-24 -3,-42l46 -199c0,-1 2,-2 4,-2l53 12c1,1 2,2 2,4l-18 79 31 7 19 -79c0,-1 2,-2 4,-2l53 12c1,1 3,2 2,4l-46 199c-4,17 -11,29 -21,36 -11,7 -25,9 -41,5l-50 -11zm-29 -26c5,9 15,16 30,19l50 12c15,3 27,2 36,-4 9,-6 15,-17 19,-33l45 -195 -47 -11 -18 79c0,2 -2,3 -4,3l-38 -9c-2,-1 -3,-3 -2,-4l18 -79 -47 -11 -45 195c-3,16 -2,29 3,38zm99 -90l-32 -8 -18 79c0,1 0,1 0,2 0,0 0,1 0,1l0 1c1,0 1,0 1,1 1,0 1,0 2,0l23 6c1,0 2,0 2,0 1,0 1,-1 1,-1 1,0 1,-1 2,-1 0,-1 0,-1 0,-2l19 -78zm-34 -15l38 9c2,0 3,2 3,4l-19 82c0,1 -1,3 -2,4 -1,1 -2,2 -3,3 -1,1 -2,1 -4,1l0 0c-1,1 -2,1 -4,0 -8,-1 -16,-4 -24,-5 -1,-1 -3,-1 -4,-2 -1,-1 -2,-2 -2,-3l-1 0c0,-2 -1,-3 -1,-4 0,-2 0,-3 0,-4l19 -82c1,-2 2,-3 4,-3zm-134 -124l-53 -21c-2,0 -2,-2 -2,-4l17 -42c0,-2 2,-2 4,-2l107 42c1,1 2,3 2,5l-93 233c0,2 -2,3 -4,2l-106 -42c-2,-1 -3,-3 -2,-4l16 -41c1,-2 3,-3 4,-2l53 20 19 -48 -49 -19c-2,-1 -3,-3 -2,-5l16 -40c0,-1 2,-2 4,-1l49 19 20 -50zm-47 -26l53 21c1,1 2,3 1,5l-22 56c0,1 -2,2 -4,1l-49 -19 -13 33 49 20c2,1 2,3 2,4l-22 55c-1,2 -3,3 -4,2l-53 -21 -14 35 100 40 90 -228 -100 -39 -14 35zm-286 70l97 -73 31 -140c0,-2 2,-3 4,-3 0,0 0,0 1,1l46 30c2,0 2,2 2,3l-22 101 10 7 52 -81c1,-1 3,-2 4,-1l46 29c2,1 2,3 1,5l-135 211c-1,2 -3,2 -5,1l-46 -29c-1,-1 -2,-3 -1,-5l55 -85 -6 -4 -88 66c-1,0 -3,0 -4,0l-42 -27c-1,-1 -2,-3 -1,-5l1 -1zm102 -68l-94 71 36 23 88 -66c1,-1 2,-1 4,0l11 7c1,1 2,3 1,4l-55 86 40 26 132 -206 -40 -25 -52 80c-1,2 -3,2 -5,1l-14 -9c-2,-1 -2,-2 -2,-4l22 -101 -41 -26 -29 137c0,1 -1,1 -2,2zm-185 4l155 -198c1,-1 4,-2 5,0l43 33c1,1 1,3 0,5l-155 197c-1,2 -3,2 -5,1l-42 -34c-2,-1 -2,-3 -1,-4zm159 -191l-151 192 37 29 151 -192 -37 -29zm-168 123l-33 32c-1,1 -4,1 -5,0l-93 -99c-2,-1 -2,-3 0,-4l33 -32c1,-2 4,-2 5,0l26 27 145 -139c2,-1 4,-1 5,0l38 39c1,2 1,4 0,5l-146 139 26 27c1,1 1,4 -1,5zm-35 25l28 -28 -25 -27c-2,-1 -2,-3 0,-5l145 -139 -32 -34 -146 139c-2,1 -4,1 -5,0l-26 -27 -28 27 89 94zm-14 -336l-32 23c-1,1 -4,0 -5,-1l-30 -42c-1,-2 0,-4 1,-5l27 -19c14,-10 28,-15 40,-13 13,2 24,10 34,24l28 39c10,14 14,27 11,40 -2,12 -11,24 -25,34l-128 91c-14,10 -28,14 -40,13 -13,-2 -24,-10 -34,-24l-28 -40c-10,-13 -14,-27 -11,-39 2,-12 11,-24 25,-34l20 -14c1,-1 3,-1 4,1l30 42c1,1 1,4 -1,5l-24 17c-1,0 -1,1 -1,1l-1 2c0,1 0,1 0,2 0,0 0,1 1,1l14 20c0,0 0,1 1,1 0,0 1,0 1,0 1,0 2,0 2,0l0 0c1,0 1,0 2,0l137 -98c1,-1 1,-1 2,-2 0,0 0,-1 0,-1 0,-1 0,-1 0,-2 0,0 0,-1 0,-1l-14 -20c-1,-1 -1,-1 -2,-1 0,0 0,-1 -1,-1 -1,0 -2,0 -3,1zm-33 15l29 -20c2,-2 5,-3 8,-2 1,0 3,0 4,1 1,1 2,2 3,3l14 20c1,1 2,2 2,4 0,1 0,3 0,4 0,2 -1,3 -2,4 -1,1 -1,2 -3,3l-138 98c-1,1 -2,1 -3,2l0 0c-2,0 -3,0 -5,0 -1,0 -2,-1 -4,-1l0 0c-1,-1 -2,-2 -3,-3l-14 -20c-1,-1 -1,-3 -2,-4 0,-2 0,-3 0,-4 1,-2 1,-3 2,-4l0 0c1,-1 2,-2 3,-3l22 -16 -26 -36 -17 11c-13,10 -21,20 -23,30 -2,11 1,22 10,34l29 40c8,13 18,19 29,21 10,1 22,-3 35,-12l128 -91c13,-9 21,-19 23,-30 2,-10 -1,-21 -10,-34l-28 -40c-9,-12 -19,-19 -29,-20 -11,-2 -23,2 -36,12l-24 17 26 36zm-94 -125l87 -39c2,-1 4,0 5,2l22 49c1,2 0,4 -2,5l-228 103c-2,1 -4,0 -5,-2l-22 -49c-1,-2 0,-4 1,-5l93 -42 -15 -33 -93 42c-1,1 -3,0 -4,-2l-22 -49c-1,-2 0,-4 1,-4l229 -104c2,-1 4,0 4,2l23 49c1,2 0,4 -2,5l-87 39 15 33zm87 -32l-87 40c-2,0 -4,0 -4,-2l-18 -39c-1,-2 0,-4 2,-5l86 -39 -19 -43 -223 100 20 44 92 -42c2,-1 4,0 5,1l18 40c0,1 0,3 -2,4l-93 42 20 43 222 -100 -19 -44zm-114 -172l-15 -54c-1,-2 0,-4 2,-5l43 -12c2,0 4,1 4,2l32 111c0,1 -1,3 -3,4l-241 68c-2,1 -4,0 -4,-2l-31 -110c-1,-2 0,-4 2,-4l42 -12c2,-1 4,0 5,2l15 55 50 -15 -14 -51c-1,-1 0,-3 2,-4l41 -11c2,-1 4,0 4,2l15 51 51 -15zm-8 -53l16 55c0,1 -1,3 -3,4l-58 16c-1,1 -3,0 -4,-2l-14 -51 -35 10 15 51c0,1 -1,3 -3,4l-56 16c-2,0 -4,-1 -4,-2l-16 -55 -36 10 29 104 235 -67 -29 -103 -37 10zm18 -189l7 54c0,2 -1,4 -3,4l-207 26c0,0 -1,0 -2,1 0,0 0,0 -1,1 0,0 -1,1 -1,1 0,1 0,1 0,2l3 20c0,1 0,2 0,2 1,0 1,1 1,1 1,0 1,1 2,1 4,1 187,-24 208,-26 2,-1 4,1 4,3l7 53c0,2 -1,4 -3,4l-202 26c-18,2 -32,0 -42,-8 -10,-7 -16,-19 -19,-36l-6 -48c-2,-17 1,-30 9,-40l0 0c8,-10 21,-16 39,-18l202 -26c2,0 4,1 4,3zm0 52l-6 -48 -199 26c-16,2 -28,7 -34,15l-1 0c-6,8 -9,20 -7,35 2,16 4,32 6,48 2,15 7,25 16,32 9,6 21,8 37,6l199 -25 -6 -47 -203 26c-2,0 -3,0 -4,-1l-1 0c-1,0 -2,-1 -3,-1 -2,-1 -3,-2 -3,-3l0 -1c-1,-1 -2,-2 -2,-4l-2 -20c-1,-2 -1,-3 0,-5l0 0c0,-1 1,-2 2,-4 1,-1 2,-2 3,-2l0 0c1,-1 3,-1 4,-2l204 -25zm-97 -153l95 7c2,0 3,2 3,4l-4 54c0,2 -2,3 -4,3l-250 -19c-2,0 -3,-2 -3,-4l4 -54c0,-2 2,-3 4,-3l101 8 3 -36 -101 -8c-2,0 -4,-2 -4,-4l5 -54c0,-2 1,-3 3,-3l250 19c2,0 4,2 4,4l-5 54c0,2 -1,3 -3,3l-95 -7 -3 36zm91 14l-95 -8c-2,0 -3,-1 -3,-3l3 -43c1,-2 2,-3 4,-3l95 7 4 -47 -244 -19 -4 48 102 7c2,0 3,2 3,4l-3 43c0,2 -2,3 -4,3l-101 -8 -4 48 244 18 3 -47zm-213 -294l0 -1c4,-16 11,-27 22,-34 11,-6 25,-7 42,-3l199 46c2,0 3,2 3,4l-13 53c0,1 -2,2 -4,2l-78 -18 -8 31 79 19c2,0 3,2 3,4l-13 53c0,1 -2,3 -4,2l-198 -46c-18,-4 -30,-11 -37,-21 -7,-11 -9,-25 -5,-41l12 -50zm25 -29c-9,5 -15,15 -19,30l-11 50c-4,15 -2,27 4,36 6,9 17,15 32,19l196 45 10 -47 -79 -18c-1,0 -2,-2 -2,-4l9 -38c0,-2 2,-3 4,-2l79 18 10 -47 -195 -45c-16,-3 -28,-2 -38,3zm91 99l7 -32 -79 -18c0,0 -1,0 -1,0 -1,0 -1,0 -2,0 0,1 -1,1 -1,1 0,1 -1,1 -1,2l-5 23c0,1 0,2 0,2 0,0 0,1 0,1 1,1 1,1 2,2 0,0 1,0 1,0l79 19zm15 -34l-9 38c-1,2 -3,3 -4,3l-82 -19c-2,0 -3,-1 -4,-2 -1,-1 -2,-2 -3,-3 -1,-1 -2,-2 -2,-4 0,-1 0,-2 0,-4 2,-8 4,-16 6,-24 0,-1 1,-3 1,-4 1,-1 2,-2 4,-3 1,0 2,-1 4,-1l0 0c1,0 2,0 4,0l82 19c2,1 3,2 3,4zm123 -134l21 -53c0,-2 2,-3 4,-2l42 17c2,0 3,2 2,4l-42 106c-1,2 -3,3 -4,2l-234 -92c-2,0 -3,-2 -2,-4l42 -107c1,-1 3,-2 5,-1l41 16c1,0 2,2 2,4l-21 53 48 19 20 -49c0,-2 2,-3 4,-2l40 16c2,0 2,2 2,4l-20 49 50 20zm26 -47l-21 52c-1,2 -3,3 -4,2l-56 -22c-2,0 -3,-2 -2,-4l19 -49 -33 -13 -20 49c0,1 -2,2 -4,2l-55 -22c-2,-1 -2,-3 -2,-4l21 -53 -35 -14 -39 100 227 90 39 -100 -35 -14zm-71 -286l74 97 140 30c2,1 3,2 3,4 0,1 -1,1 -1,2l-30 46c0,1 -2,2 -3,2l-102 -22 -6 10 81 52c1,1 2,3 1,4l-29 46c-1,1 -4,2 -5,1l-211 -136c-2,-1 -2,-3 -1,-4l29 -46c1,-2 3,-2 5,-1l85 55 4 -6 -66 -88c-1,-1 -1,-3 0,-4l27 -42c1,-1 3,-2 5,-1l0 1zm69 102l-71 -94 -23 36 66 87c1,1 1,3 0,4l-7 11c-1,2 -3,2 -5,1l-85 -54 -26 40 206 131 25 -40 -80 -51c-2,-1 -2,-4 -1,-5l9 -15c1,-1 2,-2 4,-1l101 22 26 -41 -137 -30c-1,0 -1,0 -2,-1zm-4 -185l198 155c1,1 1,3 0,5l-33 42c-2,2 -4,2 -5,1l-197 -155c-2,-1 -2,-3 -1,-5l34 -43c1,-1 3,-1 4,0zm191 158l-192 -151 -30 38 192 151 30 -38zm-123 -167l-32 -34c-1,-1 -1,-3 0,-4l98 -94c2,-1 4,-1 5,0l32 33c1,2 1,4 0,5l-27 26 139 146c1,1 1,3 0,5l-40 37c-1,1 -3,1 -4,0l-139 -146 -28 26c-1,1 -3,1 -4,0zm-25 -36l27 29 27 -26c2,-1 4,-1 5,0l139 146 35 -33 -139 -146c-2,-1 -2,-3 0,-5l27 -25 -28 -29 -93 89zm335 -14l-22 -32c-1,-1 -1,-3 1,-4l42 -30c1,-1 3,-1 4,0l19 27c11,15 15,28 13,41 -1,12 -9,23 -23,33l-40 29c-14,9 -27,13 -39,11 -13,-3 -24,-11 -35,-26l-90 -127c-11,-15 -15,-29 -13,-41 2,-13 9,-24 23,-34l40 -28c14,-10 27,-14 39,-11 13,2 24,11 35,26l13 19c1,1 1,3 0,5l-43 29c-1,2 -3,1 -4,0 -4,-5 -16,-26 -21,-27 0,0 -1,0 -1,0 -2,0 -19,13 -21,15 -1,0 -1,1 -2,1 0,0 0,1 0,2 0,0 0,1 0,1l1 2 98 138c0,0 1,1 1,1 0,0 1,0 2,1 0,0 1,0 1,0 1,-1 1,-1 2,-1l20 -14c0,-1 0,-1 1,-1 0,-1 0,-1 0,-2 0,-1 0,-2 -1,-3zm-15 -33l21 29c1,2 2,5 2,8 0,1 -1,3 -2,4 0,1 -1,2 -2,3l-20 14c-2,1 -3,2 -4,2 -2,0 -3,0 -5,0 -1,0 -2,-1 -4,-1 -1,-1 -2,-2 -3,-3l-98 -138c0,-1 -1,-3 -1,-4l0 0c-1,-1 -1,-3 -1,-4 0,-2 1,-3 2,-4l0 0c0,-2 1,-3 2,-3l21 -15c1,-1 2,-1 3,-1l1 0c1,-1 2,-1 4,0 1,0 2,0 3,1l1 0c1,1 2,2 3,3l15 22 37 -26 -12 -17c-9,-13 -19,-20 -30,-23 -10,-2 -22,2 -34,10l-40 29c-12,8 -19,18 -21,29 -1,11 3,22 12,36l91 127c9,13 19,21 30,23 10,2 22,-1 34,-10l40 -28c12,-9 19,-19 21,-29 1,-11 -3,-23 -12,-36l-17 -24 -37 26zm125 -94l39 87c1,2 0,4 -1,4l-50 23c-2,1 -4,0 -4,-2l-104 -229c0,-1 0,-3 2,-4l49 -22c2,-1 4,0 5,1l42 93 33 -15 -42 -93c-1,-1 0,-3 2,-4l49 -22c2,-1 4,0 5,1l103 229c1,2 0,4 -2,4l-49 23c-2,1 -4,0 -5,-2l-39 -87 -33 15zm32 87l-39 -87c-1,-2 0,-4 1,-4l40 -18c1,-1 3,0 4,2l39 86 44 -19 -101 -223 -43 20 41 92c1,2 1,4 -1,5l-39 18c-2,0 -4,0 -5,-2l-42 -93 -43 20 100 222 44 -19zm172 -114l55 -16c1,0 3,1 4,3l12 43c0,2 -1,4 -2,4l-110 31c-2,1 -4,0 -5,-2l-68 -241c-1,-2 0,-4 2,-5l110 -31c2,0 4,1 4,3l13 42c0,2 -1,4 -3,4l-54 16 14 50 51 -14c2,-1 3,0 4,2l12 41c0,2 -1,4 -3,4l-51 15 15 51zm53 -8l-54 15c-2,1 -4,0 -5,-2l-16 -58c-1,-2 1,-4 2,-4l51 -14 -10 -35 -51 14c-1,1 -3,0 -4,-2l-16 -57c0,-1 1,-3 3,-4l54 -15 -10 -36 -104 29 67 235 104 -29 -11 -37zm189 17l-54 7c-2,0 -4,-1 -4,-3l-26 -207c0,0 0,-1 -1,-1 0,-1 0,-1 -1,-1 0,-1 -1,-1 -1,-1 -1,0 -1,0 -2,0l-20 2c-1,0 -1,1 -2,1 0,0 -1,0 -1,1 0,0 -1,1 -1,1 -1,5 24,188 26,209 1,2 -1,3 -2,4l-54 6c-2,1 -4,-1 -4,-3l-26 -202c-2,-17 1,-31 8,-42 7,-10 20,-16 36,-18l48 -6c17,-2 30,1 40,9l0 0c10,8 16,21 18,38l26 202c0,2 -1,4 -3,4zm-52 0l48 -6 -26 -199c-2,-16 -7,-27 -15,-34l0 0c-8,-7 -20,-9 -35,-8 -16,3 -32,4 -48,6 -15,2 -25,8 -32,16 -6,9 -8,22 -6,38l25 198 47 -6 -25 -203c-1,-1 -1,-3 0,-4l0 0c0,-2 1,-3 2,-4 0,-1 1,-2 3,-3l0 0c1,-1 2,-1 4,-1l21 -3c1,0 2,0 4,0l0 0c1,1 2,1 4,2 1,1 2,2 2,3l0 1c1,1 1,2 2,4l25 203zm153 -97l-7 95c0,2 -2,3 -4,3l-54 -4c-2,0 -3,-2 -3,-4l19 -250c0,-2 2,-3 4,-3l54 4c2,0 3,2 3,4l-8 101 36 3 8 -101c0,-2 2,-4 4,-4l54 5c2,0 3,1 3,3l-19 250c0,2 -2,4 -4,4l-54 -5c-2,0 -3,-1 -3,-3l7 -95 -36 -3zm-14 91l8 -95c0,-2 1,-3 3,-3l43 3c2,1 3,2 3,4l-7 95 47 4 19 -244 -47 -4 -8 102c0,2 -2,3 -4,3l-43 -3c-2,0 -3,-2 -3,-4l8 -101 -48 -4 -18 244 47 3zm294 -213l1 0c16,3 28,11 34,22 6,11 7,25 3,42l-45 199c-1,2 -3,3 -4,2l-53 -12c-2,0 -3,-2 -3,-4l18 -79 -31 -7 -19 79c0,2 -2,3 -4,2l-53 -12c-1,0 -2,-2 -2,-4l46 -198c4,-18 11,-30 22,-37 10,-7 24,-9 40,-5l50 12zm29 25c-5,-9 -15,-15 -30,-19l-50 -11c-15,-4 -27,-3 -36,3 -9,6 -15,17 -19,33l-45 195 47 11 18 -79c0,-2 2,-3 4,-2l38 8c2,1 3,3 3,5l-19 78 47 11 45 -195c3,-16 3,-29 -3,-38zm-98 91l31 7 18 -79c1,0 1,-1 0,-2 0,0 0,-1 0,-1 0,-1 -1,-1 -1,-1 -1,-1 -1,-1 -2,-1l-23 -6c-1,0 -1,0 -2,0l0 0c0,1 -1,1 -1,1 -1,0 -1,1 -2,1 0,1 0,1 0,2l-18 79zm33 14l-38 -9c-2,0 -3,-2 -3,-4l19 -82c1,-1 1,-2 2,-3 1,-2 2,-3 3,-3 1,-1 2,-2 4,-2l0 0c1,0 3,0 4,0l24 5c1,1 3,1 4,2 1,1 2,2 3,3 0,2 1,3 1,4l0 0c0,2 0,3 0,4l-19 83c0,2 -2,3 -4,2zm134 123l53 21c2,1 3,3 2,5l-16 41c-1,2 -3,3 -5,2l-106 -42c-2,0 -3,-2 -2,-4l92 -233c1,-2 2,-3 4,-2l107 42c1,0 2,2 2,4l-17 41c0,2 -2,3 -4,2l-53 -21 -19 49 49 19c2,1 3,3 2,5l-16 39c0,2 -2,3 -4,2l-49 -19 -20 49zm48 26l-53 -21c-2,0 -3,-2 -2,-4l22 -56c1,-2 3,-2 4,-2l49 20 14 -34 -50 -19c-1,-1 -2,-3 -1,-5l21 -54c1,-2 3,-3 5,-2l52 21 14 -35 -100 -40 -90 227 101 40 14 -36zm285 -70l-97 73 -30 140c0,2 -2,3 -4,3 0,0 -1,0 -1,-1l-47 -29c-1,-1 -2,-3 -1,-4l22 -101 -10 -7 -52 81c-1,2 -3,2 -5,1l-46 -29c-1,-1 -2,-3 -1,-5l136 -211c1,-2 3,-2 5,-1l45 29c2,1 2,3 1,5l-55 85 7 4 88 -66c1,0 2,0 3,0l42 27c2,1 2,3 1,5l-1 1zm-102 68l94 -71 -35 -23 -88 66c-1,1 -3,1 -4,0l-11 -7c-2,-1 -2,-3 -1,-4l55 -86 -40 -26 -132 206 40 26 52 -81c1,-2 3,-2 4,-1l15 9c1,1 2,2 2,4l-22 101 40 26 30 -137c0,-1 1,-1 1,-2zm186 -4l-155 198c-2,1 -4,1 -5,0l-43 -33c-1,-2 -2,-4 0,-5l155 -197c1,-2 3,-2 4,-1l43 34c2,1 2,3 1,4zm-159 191l151 -192 -37 -30 -151 192 37 30zm168 -123l33 -32c2,-2 4,-2 5,0l94 98c1,1 1,4 0,5l-34 32c-1,1 -3,1 -5,0l-25 -27 -146 139c-2,1 -4,1 -5,-1l-37 -39c-2,-1 -2,-3 0,-5l145 -139 -25 -27c-2,-1 -2,-3 0,-4zm35 -25l-28 27 26 27c1,1 1,4 0,5l-146 139 33 34 145 -139c2,-1 4,-1 5,0l26 27 28 -27 -89 -93zm15 335l32 -23c1,-1 3,0 4,1l30 42c1,2 1,4 -1,5l-26 19c-15,10 -28,15 -41,13 -12,-2 -24,-10 -33,-23l-29 -40c-10,-14 -13,-27 -11,-40 3,-12 11,-24 26,-34l127 -91c15,-10 28,-14 41,-13 13,2 24,10 34,24l28 40c10,13 13,27 11,39 -3,12 -11,24 -26,34l-19 14c-2,1 -4,1 -5,-1l-30 -42c-1,-1 0,-4 1,-5l25 -17c0,0 1,-1 1,-1 0,-1 1,-1 1,-2l0 0c0,-1 0,-1 0,-2 -1,-2 -13,-18 -15,-21 0,0 -1,-1 -1,-1 -1,0 -1,0 -2,0l0 0c0,0 -1,0 -1,0 -1,0 -1,0 -2,0l-138 98c0,1 -1,1 -1,2 0,0 -1,1 -1,1 0,1 0,1 0,2 0,0 1,1 1,1l14 20c0,1 1,1 1,1 1,0 1,1 2,1 1,0 2,0 3,-1zm33 -15l-29 20c-3,2 -5,3 -8,2 -2,0 -3,0 -4,-1 -1,-1 -2,-2 -3,-3l-15 -20c0,-1 -1,-2 -1,-4 -1,-1 -1,-3 0,-4 0,-2 1,-3 1,-4 1,-1 2,-2 3,-3l138 -98c1,-1 3,-2 4,-2 1,0 3,0 4,0l0 0c2,0 3,1 4,1l0 0c1,1 2,2 3,3l15 20c0,1 1,2 1,4l0 0c1,1 1,3 0,4l0 0c0,2 -1,3 -1,4 -1,1 -2,3 -3,3l-22 16 26 37 16 -12c14,-10 21,-20 23,-30 2,-11 -1,-22 -10,-34l-28 -40c-9,-13 -18,-19 -29,-21 -11,-1 -23,3 -36,12l-127 91c-13,9 -21,19 -23,30 -2,10 1,21 10,34l28 40c9,12 18,19 29,20 11,2 23,-2 36,-12l24 -17 -26 -36zm94 125l-87 39c-2,1 -4,0 -4,-2l-23 -49c0,-2 0,-4 2,-5l229 -103c1,-1 3,0 4,1l23 50c0,2 0,4 -2,4l-93 42 15 33 93 -42c2,0 4,0 4,2l23 50c0,1 0,3 -2,4l-229 104c-1,0 -3,0 -4,-2l-23 -50c0,-1 0,-3 2,-4l87 -39 -15 -33zm-87 31l87 -39c2,-1 4,0 5,2l17 39c1,2 0,4 -1,4l-87 40 20 43 222 -101 -19 -43 -93 42c-2,1 -4,0 -5,-2l-17 -39c-1,-2 0,-4 1,-4l93 -42 -20 -44 -222 101 19 43zm115 172l15 55c1,2 -1,4 -2,4l-44 12c-1,1 -3,0 -4,-2l-31 -110c0,-2 1,-4 2,-4l242 -69c2,0 3,1 4,3l31 110c1,1 0,3 -2,4l-43 12c-1,0 -3,-1 -4,-2l-15 -55 -51 14 15 51c0,2 -1,4 -2,4l-42 12c-1,0 -3,-1 -4,-2l-14 -51 -51 14zm8 54l-16 -55c0,-2 1,-4 2,-4l58 -17c2,0 4,1 4,3l15 51 34 -10 -14 -51c0,-2 1,-4 2,-4l57 -16c2,-1 4,0 4,2l16 54 36 -10 -30 -103 -235 66 30 104 37 -10zm-18 188l-6 -54c-1,-2 1,-3 3,-4l206 -26c1,0 1,0 2,0 0,-1 1,-1 1,-1 1,-1 1,-1 1,-2 0,0 0,-1 0,-1l-3 -21c0,-1 0,-1 0,-2 0,0 -1,0 -1,-1 -1,0 -1,0 -2,0 -4,-2 -187,23 -208,26 -2,0 -4,-1 -4,-3l-7 -54c0,-2 1,-4 3,-4l202 -25c18,-3 32,0 42,7 11,8 17,20 19,37l6 47c2,17 -1,31 -9,40l0 1c-8,9 -21,15 -39,17l-202 26c-2,0 -3,-1 -4,-3zm1 -51l6 47 199 -25c16,-2 27,-8 34,-16l0 0c7,-8 9,-20 7,-34 -2,-16 -4,-32 -6,-48 -2,-15 -7,-26 -16,-32 -8,-7 -21,-9 -37,-7l-199 25 6 48 204 -26c1,0 2,0 4,0l0 0c1,0 3,1 4,2 1,1 2,2 3,3l0 0c0,1 1,3 1,4l3 21c0,1 0,3 -1,4l0 0c0,1 -1,3 -2,4 -1,1 -2,2 -3,3l0 0c-1,0 -3,1 -4,1l-203 26zm97 152l-95 -7c-2,0 -3,-2 -3,-4l4 -54c0,-2 2,-3 4,-3l250 19c2,0 3,2 3,4l-4 54c0,2 -2,3 -4,3l-101 -8 -3 37 102 7c1,0 3,2 3,4l-4 54c-1,2 -2,3 -4,3l-250 -19c-2,0 -4,-2 -3,-3l4 -55c0,-1 1,-3 3,-3l95 8 3 -37zm-91 -13l95 7c2,0 3,2 3,3l-3 43c-1,2 -2,4 -4,4l-95 -8 -3 48 243 18 4 -47 -102 -8c-2,0 -3,-2 -3,-4l3 -42c0,-2 2,-4 4,-4l101 8 4 -47 -244 -19 -3 48zm214 294l0 0c-4,16 -11,28 -22,34 -11,7 -25,8 -43,4l-198 -46c-2,-1 -3,-2 -3,-4l12 -53c1,-2 2,-3 4,-3l79 19 7 -32 -78 -18c-2,-1 -3,-2 -3,-4l12 -53c1,-2 3,-3 4,-3l199 46c17,4 30,11 37,22 7,10 8,24 4,41l-11 50zm-26 28c9,-5 16,-15 19,-30l12 -50c3,-15 2,-26 -4,-35 -6,-9 -17,-16 -33,-19l-195 -45 -11 46 79 18c2,1 3,2 3,4l-9 38c-1,2 -2,3 -4,3l-79 -18 -11 46 196 45c15,4 28,3 37,-3zm-90 -98l-8 32 79 18c1,0 1,0 2,0 0,0 1,-1 2,-1l0 0c0,0 0,0 1,-1l0 -1 6 -24c0,-1 0,-1 0,-2l0 0c0,0 0,-1 -1,-1 0,-1 -1,-1 -1,-1 0,-1 -1,-1 -2,-1l-78 -18zm-15 33l9 -38c0,-2 2,-3 4,-2l82 19c1,0 3,0 4,1 1,1 2,2 3,3 1,1 1,3 1,4l1 0c0,2 0,3 -1,4l-5 24c0,2 -1,3 -2,4l0 0c-1,1 -2,2 -3,3l0 0c-1,1 -3,1 -4,1 -1,1 -3,1 -4,0l-82 -19c-2,0 -3,-2 -3,-4zm-123 135l-21 53c0,1 -2,2 -4,1l-42 -16c-2,-1 -2,-3 -2,-4l42 -107c1,-2 3,-2 5,-2l233 92c2,1 3,3 2,5l-42 106c-1,2 -3,3 -4,2l-42 -16c-1,-1 -2,-3 -1,-5l20 -52 -48 -20 -20 50c0,1 -2,2 -4,2l-40 -16c-1,-1 -2,-3 -2,-4l20 -50 -50 -19zm-26 47l21 -53c1,-2 3,-2 4,-2l56 22c2,1 3,3 2,5l-19 49 33 13 20 -49c0,-2 2,-3 4,-2l55 22c2,0 3,2 2,4l-21 53 35 14 39 -101 -227 -89 -39 100 35 14zm71 286l-73 -97 -140 -30c-2,-1 -3,-3 -3,-4 0,-1 0,-1 1,-2l29 -46c1,-1 3,-2 4,-2l101 22 7 -10 -81 -52c-2,-1 -2,-3 -1,-4l29 -46c1,-2 3,-2 5,-1l211 135c2,1 2,4 1,5l-29 46c-1,1 -3,2 -5,1l-85 -55 -4 6 65 88c1,1 1,3 1,4l-27 42c-1,1 -3,2 -5,1l-1 -1zm-68 -102l71 94 23 -36 -66 -87c-1,-2 -1,-3 0,-4l7 -12c1,-1 3,-2 4,-1l86 55 26 -40 -206 -132 -26 41 81 51c2,1 2,3 1,5l-9 15c-1,1 -2,1 -4,1l-101 -22 -26 41 137 30c0,0 1,0 2,1zm4 185l-198 -155c-1,-1 -1,-3 0,-5l33 -42c2,-2 4,-2 5,-1l198 155c1,1 1,4 0,5l-33 43c-2,1 -4,1 -5,0zm-191 -158l192 151 30 -37 -192 -151 -30 37zm124 168l32 33c1,1 1,4 -1,5l-98 94c-1,1 -3,1 -5,-1l-31 -33c-2,-1 -2,-3 0,-5l27 -26 -139 -145c-2,-2 -1,-4 0,-5l39 -38c1,-1 4,-1 5,1l139 145 27 -25c1,-2 3,-2 5,0zm24 35l-27 -28 -27 26c-1,1 -3,1 -5,-1l-139 -145 -34 32 139 146c1,2 1,4 0,5l-27 26 27 28 93 -89zm-334 15l22 32c1,1 1,3 -1,4l-42 30c-1,1 -3,1 -5,-1l-18 -26c-11,-15 -15,-28 -13,-41 1,-12 9,-24 23,-33l40 -29c14,-10 27,-13 39,-11 13,3 24,11 34,26l91 127c10,15 15,29 13,41 -2,13 -10,24 -23,34l-40 28c-14,10 -27,13 -40,11 -12,-2 -23,-11 -34,-26l-14 -19c-1,-1 0,-4 1,-5l42 -30c2,-1 4,0 5,1l18 25c0,0 0,1 1,1 0,0 1,1 1,1 1,0 2,0 2,0 0,0 1,-1 1,-1l20 -14c1,0 1,-1 1,-1 1,-1 1,-1 1,-2l0 0c0,0 0,-1 0,-1 0,-1 -1,-1 -1,-2l-98 -138c0,0 -1,-1 -1,-1 -1,0 -1,0 -2,-1 0,0 -1,0 -1,0 -1,0 -1,1 -2,1l-20 14c0,0 -1,1 -1,1 0,1 0,1 0,2 0,1 0,2 1,3zm15 33l-21 -29c-2,-2 -2,-5 -2,-8 0,-2 1,-3 1,-4 1,-1 2,-2 3,-3l20 -15c2,0 3,-1 4,-1 2,-1 3,-1 5,0 1,0 2,1 3,1 2,1 3,2 3,3 33,46 66,93 99,138 0,1 1,3 1,4 1,1 1,3 1,4l0 0c-1,2 -1,3 -2,4l0 0c-1,2 -2,3 -3,3l-20 15c-1,1 -2,1 -4,1 -1,1 -3,1 -4,0 -1,0 -3,-1 -4,-1 -1,-1 -2,-2 -3,-3l-16 -22 -36 26 12 16c9,14 19,21 30,23 10,3 22,-1 34,-10l40 -28c12,-9 19,-18 20,-29 2,-11 -2,-23 -12,-36l-90 -127c-10,-13 -20,-21 -30,-23 -11,-2 -22,1 -34,10l-40 28c-12,9 -19,18 -21,29 -1,11 3,23 12,36l17 24 37 -26zm-125 94l-39 -87c-1,-1 0,-3 2,-4l49 -22c2,-1 4,0 4,1l104 229c1,2 0,4 -2,5l-49 22c-2,1 -4,0 -5,-2l-42 -93 -33 15 42 93c1,2 0,4 -2,5l-49 22c-2,1 -4,0 -5,-2l-103 -228c-1,-2 0,-4 2,-5l49 -22c2,-1 4,0 5,1l39 87 33 -15zm-32 -86l40 87c0,1 0,3 -2,4l-39 18c-2,0 -4,0 -5,-2l-39 -87 -43 20 100 222 44 -19 -42 -93c-1,-2 0,-4 1,-4l40 -18c1,-1 3,0 4,2l42 92 43 -19 -100 -223 -44 20zm-172 114l-54 16c-2,0 -4,-1 -4,-3l-13 -43c0,-2 1,-4 3,-4l110 -31c2,-1 3,0 4,2l68 241c1,2 0,4 -2,5l-110 31c-2,0 -4,-1 -4,-2l-12 -43c-1,-2 0,-4 2,-4l55 -16 -15 -50 -50 15c-2,0 -4,-1 -5,-3l-11 -41c-1,-2 0,-4 2,-4l51 -14 -15 -52zm-53 8l55 -15c2,-1 3,0 4,2l16 58c1,2 0,4 -2,4l-51 15 10 34 51 -14c2,-1 4,0 4,2l16 57c1,2 0,3 -2,4l-55 15 10 36 104 -29 -67 -235 -103 29 10 37zm-188 -17l54 -6c1,-1 3,1 3,2l27 207c0,1 0,1 0,2 0,0 1,1 1,1 1,0 1,1 2,1 0,0 1,0 1,0l21 -3c0,0 1,0 1,0 1,0 1,-1 1,-1 1,-1 1,-1 1,-2 1,-4 -23,-187 -26,-208 0,-2 1,-4 3,-4l54 -7c2,0 3,1 4,3l25 202c3,18 0,32 -7,42 -8,10 -20,17 -37,19l-48 6c-17,2 -30,-1 -40,-9l0 0c-9,-8 -15,-21 -18,-39l-25 -202c0,-2 1,-3 3,-4zm51 1l-47 6 25 199c2,15 7,27 16,34l0 0c8,7 19,9 34,7 16,-2 32,-4 48,-6 15,-2 26,-7 32,-16 6,-9 9,-21 7,-37l-26 -199 -47 6 26 204c0,1 0,2 0,4l0 0c-1,1 -1,2 -2,4 -1,1 -2,2 -3,2l0 1c-1,0 -3,1 -4,1l-21 3c-1,0 -3,0 -4,-1l0 0c-2,0 -3,-1 -4,-2 -1,-1 -2,-2 -3,-3l0 0c-1,-1 -1,-3 -1,-4l-26 -203z"/>
 </g>
</svg>
