<?xml version="1.0" encoding="UTF-8"?>
<!DOCTYPE svg PUBLIC "-//W3C//DTD SVG 1.1//EN" "http://www.w3.org/Graphics/SVG/1.1/DTD/svg11.dtd">
<!-- Creator: CorelDRAW X8 -->
<svg xmlns="http://www.w3.org/2000/svg" xml:space="preserve" width="58.0501mm" height="5.7288mm" version="1.1" style="shape-rendering:geometricPrecision; text-rendering:geometricPrecision; image-rendering:optimizeQuality; fill-rule:evenodd; clip-rule:evenodd"
viewBox="0 0 8033 793"
 xmlns:xlink="http://www.w3.org/1999/xlink">
 <defs>
  <style type="text/css">
   <![CDATA[
    .fil0 {fill:black;fill-rule:nonzero}
   ]]>
  </style>
 </defs>
 <g id="Layer_x0020_1">
  <metadata id="CorelCorpID_0Corel-Layer"/>
  <path class="fil0" d="M664 164l0 243 -505 0 0 -243 -159 0 0 620 159 0 0 -243 505 0 0 243 160 0 0 -620 -160 0zm581 89c-109,0 -213,20 -319,54l54 111c107,-32 190,-38 258,-38 71,0 199,8 199,107 -69,-23 -151,-37 -240,-37 -166,0 -315,43 -315,178 0,118 91,165 238,165 123,0 224,-29 317,-74l0 65 152 0 0 -263c-2,-198 -126,-268 -344,-268zm192 369c-78,33 -192,59 -274,59 -79,0 -129,-4 -129,-59 0,-53 68,-73 181,-73 97,0 168,15 222,32l0 41zm558 48c-101,0 -181,-28 -198,-111l563 0c0,-237 -158,-306 -357,-306 -211,0 -361,78 -361,271 0,191 154,269 353,269 193,0 322,-63 357,-196l-151 0c-38,53 -102,73 -206,73zm8 -301c95,0 170,20 195,93l-396 0c24,-73 97,-93 201,-93zm1673 -205l-242 0 -442 321 0 -321 -160 0 0 620 160 0 0 -119 190 -139 273 258 221 0 -376 -345 376 -275zm48 -89l0 132 152 0 0 -132 -152 0zm0 187l0 522 152 0 0 -522 -152 0zm741 127l0 -127 -247 0 0 -151 -153 43 0 108 -137 0 0 127 137 0 0 238c0,115 87,166 222,166 70,0 127,-5 178,-14l0 -122c-61,9 -88,9 -136,9 -92,0 -111,-26 -111,-127l0 -150 247 0zm38 135c0,191 145,269 361,269 195,0 332,-64 357,-217l-155 0c-20,67 -92,90 -202,90 -130,0 -210,-34 -210,-142 0,-109 80,-144 210,-144 110,0 182,23 202,90l155 0c-25,-153 -162,-217 -357,-217 -216,0 -361,78 -361,271zm1231 -271c-127,0 -229,42 -304,100l0 -278 -151 0 0 709 151 0 0 -292c47,-55 157,-108 259,-108 125,0 162,58 162,169l0 231 152 0 2 -289c-2,-192 -132,-242 -271,-242zm676 417c-101,0 -181,-28 -198,-111l564 0c0,-237 -159,-306 -357,-306 -212,0 -362,78 -362,271 0,191 154,269 353,269 193,0 322,-63 357,-196l-151 0c-38,53 -102,73 -206,73zm8 -301c95,0 170,20 195,93l-395 0c23,-73 96,-93 200,-93zm870 -116c-126,0 -229,42 -303,100l0 -91 -152 0 0 522 152 0 0 -292c46,-55 156,-108 258,-108 125,0 162,58 162,169l0 231 153 0 1 -289c-1,-192 -132,-242 -271,-242z"/>
  <g id="_2255904625120">
   <path class="fil0" d="M7794 0c66,0 126,27 169,70 43,44 70,104 70,170 0,66 -27,126 -70,169 -43,43 -103,70 -169,70 -67,0 -126,-27 -170,-70 -43,-43 -70,-103 -70,-169 0,-67 27,-126 70,-170 43,-43 103,-70 170,-70zm148 91c-38,-38 -90,-62 -148,-62 -58,0 -111,24 -149,62 -38,38 -62,91 -62,149 0,58 24,110 62,148 38,38 90,62 149,62 58,0 110,-24 148,-62 38,-38 62,-90 62,-148 0,-58 -24,-111 -62,-149z"/>
   <polygon class="fil0" points="7862,155 7862,221 7725,221 7725,155 7682,155 7682,324 7725,324 7725,258 7862,258 7862,324 7906,324 7906,155 "/>
  </g>
 </g>
</svg>
