<?xml version="1.0" encoding="UTF-8"?>
<!DOCTYPE svg PUBLIC "-//W3C//DTD SVG 1.1//EN" "http://www.w3.org/Graphics/SVG/1.1/DTD/svg11.dtd">
<!-- Creator: CorelDRAW X8 -->
<svg xmlns="http://www.w3.org/2000/svg" xml:space="preserve" width="50.4537mm" height="54.0283mm" version="1.1" style="shape-rendering:geometricPrecision; text-rendering:geometricPrecision; image-rendering:optimizeQuality; fill-rule:evenodd; clip-rule:evenodd"
viewBox="0 0 318 341"
 xmlns:xlink="http://www.w3.org/1999/xlink">
 <defs>
  <style type="text/css">
   <![CDATA[
    .str0 {stroke:black;stroke-width:1.26146}
    .fil2 {fill:none}
    .fil0 {fill:black}
    .fil1 {fill:white}
   ]]>
  </style>
 </defs>
 <g id="Layer_x0020_1">
  <metadata id="CorelCorpID_0Corel-Layer"/>
  <path class="fil0" d="M179 117l-7 75 31 54 68 7 2 -14 3 -1 3 -9 5 -1c0,0 2,-1 5,-2 4,-1 8,-2 8,-2l8 -1c0,0 0,-1 1,-2 1,-1 1,-2 1,-2l-2 -11 -5 -5 -8 -5 -2 -2c0,0 -1,0 -2,-1 0,-1 -14,-27 -14,-27l-46 -10 -3 0 -2 2 -1 -5 -2 2 -6 2 -3 1c0,0 -3,-4 -4,-4 -2,-1 -6,-1 -6,-1l-5 1 -8 -31 -3 -4 -6 -4z"/>
  <g id="_2085640889184">
   <g>
    <path class="fil1" d="M93 302c0,0 1,-1 2,0 0,0 0,0 0,0 -2,0 -2,1 -2,0zm0 0c-1,1 -2,2 -3,1 1,-1 1,0 2,-1 -1,0 -1,1 -1,0 1,-1 1,0 2,0 0,0 0,0 0,0zm-9 2c1,-1 1,-1 2,0 1,0 1,0 1,0 -1,0 -2,1 -3,0 -1,0 0,1 0,0zm-2 1l-1 0c0,0 0,-1 0,-1 1,0 1,0 1,1zm-1 -2l1 0c1,0 1,0 2,1 -2,0 -2,0 -3,-1zm-2 1c0,-1 2,0 2,1 0,0 0,0 -1,0 0,0 -1,0 -1,-1zm-3 0c1,0 2,0 2,1l-2 0c0,0 0,0 0,-1zm32 -7c0,0 0,0 0,0l-1 0c0,0 0,0 0,0 -2,2 -9,4 -12,5 0,0 0,0 -1,0l-1 -1c0,0 0,1 -1,0 0,-1 1,-2 1,-3 -3,2 0,3 -4,3 1,0 1,0 1,0 1,0 1,1 1,1 -1,0 -2,0 -3,0 -1,0 -2,-1 -3,-1 0,0 1,1 2,1l2 0c1,0 1,0 1,1 -1,1 -6,0 -8,-1 0,0 0,0 1,-1 0,1 0,1 -1,1l-2 0c0,1 -1,1 -1,1 0,0 0,0 -1,1 0,0 0,0 -1,0 0,0 0,0 0,0l-1 0 -1 -1c1,1 1,0 1,1 0,0 0,0 0,1 0,0 0,0 0,0 0,0 -1,0 -1,0 0,0 -2,-1 -3,-2l2 -1c-1,1 -2,1 -2,3 -1,-1 -1,0 -2,-1l-2 -1c1,0 1,1 2,1 0,0 1,0 1,1 -2,0 -5,-1 -6,-2 1,0 1,0 2,0 0,0 -5,-1 -5,-3 1,0 1,0 2,1 0,0 1,0 2,1 -1,-1 -2,-2 -3,-4 1,1 2,1 2,1 0,0 -1,-2 -1,-2 0,0 -4,-3 -5,-4 1,0 1,0 2,0 0,1 0,0 0,1 0,0 2,0 3,0 -2,0 -5,-2 -6,-3 1,0 1,0 1,0 1,1 2,1 3,1 -1,0 -2,-1 -4,-1 -1,-1 -1,-2 -2,-4 2,0 4,1 4,2 0,0 0,-1 -1,-1 0,-1 0,-1 -1,-2 1,0 1,1 3,1 -2,-1 -3,-1 -4,-2 0,0 -1,0 0,1 0,0 1,0 1,1 0,0 0,0 -1,0 -1,-1 -1,0 -2,-3 -1,-1 0,-1 -1,-1 0,0 0,0 0,0l0 -1c0,-1 0,-1 -1,-1 2,0 2,1 5,1 -1,-1 -2,-1 -3,-1 -2,-1 -2,0 -2,-1 1,0 1,0 2,0 1,1 1,1 2,1l-2 -1c0,0 -1,0 -2,-1 -1,0 -1,-1 -1,-2 4,2 2,0 4,3l-1 -2 2 0c-1,0 -1,0 -2,0l0 -1c-1,0 -1,0 -1,-1 -1,0 0,0 -1,0 0,0 0,0 0,0l1 1c-1,0 -2,-1 -3,-1l-1 -3c0,0 2,0 4,1 0,0 0,0 0,0 2,0 2,0 2,0 -2,-1 -3,-1 -5,-1 -1,-1 -1,-1 -2,-1 1,0 4,0 5,0 -1,0 -4,-1 -5,-1l-1 -3c0,0 1,0 1,0 1,1 1,1 1,1 1,0 0,0 1,0 1,0 1,0 2,0 -1,0 -1,0 -2,-1 -1,0 -1,0 -2,0 2,0 2,1 4,0 0,0 -2,0 -3,0 -1,-1 -2,-1 -3,-1 1,1 1,0 2,1 -2,0 -2,-2 -3,-5l-1 -2c1,0 1,1 3,2 -1,-1 -1,-1 -2,-2 1,0 3,1 4,0 0,0 0,0 -1,-1l-2 1c0,0 0,0 0,0l-2 -1c-1,0 0,1 0,0 0,0 0,0 -1,-1 1,0 2,1 3,1 1,0 2,0 2,0l-1 -1c-1,0 -1,0 -2,-1l3 0 -2 0c0,0 0,0 1,0 0,0 0,0 1,-1 -1,0 -3,0 -4,0l0 -1c-1,-1 -1,-1 -1,-1 1,-1 2,0 3,-1 0,0 -2,0 -3,0 -1,0 -1,0 -2,-2 2,0 3,1 4,0 -1,0 -1,0 -3,0 -1,0 -1,0 -2,-1 -1,-1 -1,-2 -2,-3l0 -1c-1,-1 -1,-3 -2,-4 2,0 3,2 3,2 0,1 1,1 1,1l0 1c0,0 0,0 0,0 0,0 0,0 0,0 1,0 2,0 3,0 -2,0 -1,1 -2,-1 1,0 1,0 3,-1 -1,0 -2,0 -4,0 -1,0 -1,-1 -2,-2 2,0 3,1 4,0 -2,-1 -2,0 -3,-2l2 0c-2,0 -3,1 -5,-3 1,0 3,1 3,0 -2,0 -4,0 -5,-2 1,2 1,1 2,2 0,1 1,2 1,3 0,0 -1,0 -1,0l-3 -6c1,0 2,1 3,1 1,0 1,0 1,1 1,0 0,-1 0,-1l2 0c-1,0 -2,0 -3,-1 1,0 2,0 3,0 -2,0 -3,0 -4,-1 1,0 3,0 5,-1 -1,0 -3,0 -4,0l-4 0 0 -1 1 0c0,0 1,0 1,0 1,0 3,0 5,0 -1,0 -2,0 -4,0 -1,0 -2,0 -3,-1 0,0 0,0 -1,-1 0,0 0,0 0,0l0 -1c0,0 0,-1 0,-1 1,0 1,0 2,0 1,0 1,0 2,1l0 -1 1 0c-1,0 -2,0 -2,-1 0,0 1,0 2,0 -1,0 -3,0 -4,-1 0,-1 0,0 0,-1l2 0c-1,0 -1,0 -2,0 -1,0 -1,0 -3,0l0 -1c0,-1 0,-1 -1,-2 2,0 1,0 2,0 -1,0 -1,0 -2,0l0 -1c1,0 2,0 3,1 1,1 1,0 0,1 1,0 1,0 1,0l-1 -2 2 0c0,0 -1,0 -2,0 -1,0 -1,-1 -2,-2 2,0 3,1 4,1 -1,0 -2,0 -3,-1 0,0 -1,0 -2,-1 1,1 1,2 2,3 -1,0 -2,0 -3,-1 0,-1 -1,-2 -1,-3 4,-1 3,1 5,1l-1 -1 2 0c-1,0 -1,0 -2,0 -1,0 -1,-1 -2,-1l3 -1c-1,0 -2,0 -3,0 -1,-1 -1,-1 -1,-2 1,0 2,0 3,0 0,0 -1,0 -3,0 0,0 -2,-1 -2,0 1,0 2,0 2,2l-2 0c2,0 3,0 4,2l-3 -1c-1,-2 -8,-16 -8,-17l1 2c1,0 0,0 1,0 0,1 0,1 1,1l0 0c-1,0 -1,0 -1,-1 2,0 4,0 6,0 -1,0 -3,0 -4,0 0,0 -1,0 -1,-1 -1,0 -1,0 -2,0 -1,-1 -2,-4 -2,-5 1,0 2,1 3,2l-2 0c1,1 1,1 1,1 1,0 1,0 2,0l0 1c0,0 0,0 0,1 1,-1 5,-1 6,-1 -1,0 -2,0 -3,0 -1,0 -2,1 -2,0l4 -1c-1,1 -2,0 -3,0 -1,0 -1,1 -2,0 1,-1 2,0 3,-1 -2,0 -4,1 -5,-1 2,0 3,0 6,0 -2,0 -4,0 -6,-1 -1,0 -1,0 -2,0 0,-1 0,-1 -1,-1l-1 -3c0,-1 -1,-2 -1,-3 1,0 1,0 2,1l0 0c0,0 -1,0 -1,0l0 0c1,1 1,1 2,1l-1 1c1,0 2,0 2,1l0 1c0,0 0,0 0,0 0,0 0,0 0,0l2 0c2,0 3,0 5,0 0,-1 -1,-1 -2,0 -1,0 -4,0 -4,-2 0,0 5,2 5,0 -1,0 -4,0 -5,0 -1,0 -1,0 -1,-1 1,0 2,1 4,0 -1,0 -2,0 -3,0 -1,0 -2,0 -3,-1 2,0 4,1 6,0 -1,0 -4,0 -5,-1 -1,0 -2,0 -3,-2l0 1c1,0 1,0 1,1 -1,0 0,0 -1,0l0 0c-1,-2 -2,-4 -3,-6 1,0 1,0 1,1 1,0 2,1 2,2l0 1c1,0 1,0 2,1l1 1c0,0 0,0 0,0 0,0 0,0 0,-1 0,0 0,0 -1,0 1,0 4,1 6,0 -1,0 -2,0 -3,0 -2,-1 -3,-1 -3,-1 0,0 4,0 5,0 -1,0 -3,0 -4,0 -2,-1 -2,-1 -3,-2 2,-1 3,0 5,-1 -1,1 -5,1 -6,0 2,0 3,0 6,0 -4,-1 -2,1 -5,-2 1,0 5,1 6,0 0,0 -4,0 -5,-1 -2,0 -2,0 -3,-1 0,0 0,0 0,-1 -1,0 -1,0 -1,0 0,1 3,3 4,4 -3,1 -3,-1 -5,-3 0,0 0,0 0,0l0 1c-1,-1 -4,-8 -4,-10 -1,1 -1,1 -1,1l0 0c1,4 6,15 8,18 1,0 1,2 1,3 1,3 3,7 4,9 0,1 0,1 1,2 0,1 1,2 1,3l6 14c1,3 2,5 3,8 1,5 4,10 6,14 0,1 1,2 1,3 1,1 1,1 1,2 0,2 3,7 4,9 1,4 4,9 6,14l6 14c-1,0 -1,0 -1,0 -1,-1 -1,-2 -1,-3 -1,-1 -1,-3 -2,-4 1,3 7,18 9,21 1,1 3,4 3,5l0 1c0,0 0,0 0,0l1 1c1,0 1,0 2,1 1,0 2,0 3,1 3,0 5,0 8,0 1,0 14,-2 16,-3 0,0 -1,0 -1,0l3 -1c0,0 0,0 0,0l0 1c-2,1 -4,3 -5,4 1,0 3,-2 4,-4 2,-2 4,-2 7,-3 3,-1 6,-2 9,-4l-1 0zm3 1l0 0c0,0 0,0 0,0l0 0zm-2 -84c0,-1 0,-2 0,-3 -2,-5 -5,-27 -6,-30 -1,-1 -1,-1 -1,-1 -1,-1 -1,-3 -1,-4 -1,-3 -1,-5 -1,-7l-2 -1c0,1 0,1 0,2l2 1 0 4 2 8c0,0 1,2 1,3 0,1 4,23 5,28l1 0zm-11 -51c0,0 0,0 0,-1l-2 0c0,-2 0,-4 -1,-5 0,-3 -1,-8 -2,-11 -1,0 -2,1 -3,2l-4 1c-2,2 -5,2 -8,3 -4,2 -10,4 -15,6l2 0c0,0 0,0 1,0 5,-2 9,-3 14,-5 2,-1 3,-2 5,-3l-9 5c1,0 2,1 3,1 1,0 2,1 3,1 -1,0 -6,-2 -6,-2 -2,1 -5,2 -6,3 -1,0 -2,0 -3,1 2,0 5,1 5,1 -3,1 -2,-2 -11,0 -2,1 -4,1 -6,2 -3,0 -5,1 -8,2 1,0 3,0 4,0 1,1 2,1 4,1 -1,1 -7,-1 -9,-1 -1,0 -5,1 -7,2l2 0c1,0 2,0 2,0 1,1 3,1 4,1 -1,0 -4,0 -5,0 -3,-1 -2,-2 -5,-1l1 1c1,0 1,0 2,0 1,0 3,1 3,1 -1,1 -6,-2 -8,-1 -3,0 -8,1 -10,2l0 0c1,0 5,0 6,1 -1,0 -4,0 -5,-1 -2,0 -3,-1 -6,0 1,0 0,0 1,0 2,1 5,1 7,2 -4,1 -7,-2 -10,-2 -1,0 -3,1 -4,1 -4,0 -9,-1 -14,-1 0,-1 0,0 1,-1 -1,-1 1,-2 2,-3l-1 -3 0 -1c1,0 1,0 2,0 1,1 4,0 5,0 7,-1 14,-2 20,-3 2,-1 3,-1 5,-1 1,-1 2,-1 4,-1 1,0 2,-1 4,-1 2,0 5,-1 8,-2 0,0 2,0 2,0 1,-1 -1,0 0,-1 1,0 1,0 2,0 1,0 3,-1 4,-1 3,-1 6,-2 9,-3 -2,0 -3,1 -4,0 5,-1 11,-3 16,-6 1,0 3,-1 4,-1 1,-1 2,-2 3,-2 2,-1 5,-4 6,-5 -3,4 -7,7 -12,9 -1,0 -4,2 -5,3 -4,1 -7,3 -11,4 -4,1 -8,3 -12,4 -4,1 -13,4 -17,4 -3,0 -6,1 -9,1 -2,1 -4,2 -9,2 -2,1 -3,1 -5,1l-5 0c0,0 0,0 -1,0l-2 0c-1,0 0,0 0,1l2 -1c-1,1 -1,0 -3,1l0 1 1 0c1,0 1,0 1,0 0,1 -1,0 -2,1 1,0 0,0 2,0 2,0 1,0 2,0 -1,1 -2,0 -3,0l0 3c-1,0 0,0 -1,-2 0,0 0,1 0,0l0 0c-1,1 -1,1 -1,2l5 0c6,-1 12,-1 18,-2 7,-1 27,-7 29,-7 1,0 2,0 3,-1 2,0 5,-1 7,-2 2,-1 4,-2 7,-2 8,-3 19,-8 27,-13l1 -1c-3,-3 -3,1 -4,-2l0 0 -1 -2 -2 0c0,0 1,-1 2,-1l-2 -2c0,0 0,0 0,0 -1,0 -1,0 -1,0 -1,0 -2,-1 -3,-1 -3,0 -6,0 -9,0l-4 1c-5,1 -11,3 -16,5 0,0 -1,0 -2,1 -1,0 -2,0 -2,1 9,-2 8,-5 18,-3 1,0 6,-2 7,-1 -1,0 -2,0 -3,0 -1,1 -1,0 -2,1 1,1 2,-1 4,0 0,0 -1,0 -2,0 0,0 -1,0 -2,1 1,0 4,-1 5,-1 -1,1 -2,1 -3,1 -1,1 -1,1 -1,1l-1 1c-1,0 -1,0 -1,1l1 0c0,0 -4,1 -5,2 -1,0 -2,1 -3,1 -3,1 -6,3 -8,3 -2,1 -1,0 -3,1 -1,0 -2,1 -3,1l3 -1c1,0 0,0 1,0 -2,0 -7,2 -9,3 -6,1 -11,3 -17,4 -2,0 -4,0 -6,1 -1,0 -1,0 -2,-1 0,0 -1,0 -1,-1 1,-3 4,-2 5,-4l-1 0c1,0 3,-1 4,-2 -3,1 -4,2 -6,2l0 0c0,-1 3,-2 4,-3 -2,1 -3,2 -5,2 0,0 22,-10 25,-9l-1 1 2 -1 1 -11c0,-3 1,-7 1,-11 0,-2 0,-3 1,-5 0,-4 0,-8 1,-11 0,-4 -2,-3 -2,-6 1,-1 1,0 2,-1l0 -2c0,0 1,-2 2,-1l1 0c6,-8 6,-7 12,-14l4 -6c2,-2 7,-8 9,-8 1,1 1,2 2,4l1 0c-1,1 -1,1 -2,2 -2,3 -5,6 -8,9l-3 4c-3,3 -7,7 -9,11 0,0 -1,1 -1,2 -1,0 -1,1 -2,1l1 2c-2,1 -1,1 -2,1 0,0 0,1 0,2l-1 0c0,1 0,2 0,2 0,3 -1,5 -1,7 0,3 0,6 0,9l0 9c0,2 -1,7 0,9 3,-1 6,-3 9,-3 5,-2 3,-2 9,-3 5,0 11,-2 17,-1l-2 1 4 -1c0,4 1,3 2,3 0,1 1,2 1,3 1,0 2,-1 4,3 0,0 0,0 0,0l1 0c0,0 0,0 0,0 -4,3 -4,3 -7,4 1,0 1,0 1,0l1 0c-1,0 -2,1 -2,1 0,5 3,13 4,16 0,1 0,1 0,1 -1,0 -1,0 -2,0 0,0 0,0 0,1 1,0 2,0 2,0zm-18 139c1,0 1,0 2,1l-1 0c-1,1 -1,0 -1,0l0 -1zm-8 3l0 -1c1,0 1,0 2,0 0,1 1,1 1,1 -1,0 -3,0 -3,0zm-3 1c-1,0 -2,0 -4,-1l-1 0c1,0 4,0 5,1zm-6 -4c0,0 0,0 0,0 1,0 1,0 1,0l2 2c-2,0 -3,-1 -4,-2 1,0 1,0 1,0zm-1 -3c-1,-1 -1,-1 -1,-1 1,0 2,1 2,2l-1 -1zm0 -2c1,0 1,0 2,1 -1,0 -2,0 -2,-1zm-1 0c0,0 0,-1 0,0 0,0 0,0 0,0zm-2 -4c1,1 3,2 3,3 0,0 -1,0 -2,0l-1 -3zm-15 -35c1,0 2,0 2,1 -2,0 -2,0 -2,-1zm2 0c-1,-1 0,0 0,0 0,0 0,-1 0,0 0,0 0,0 0,0zm-1 0c-1,0 -1,0 -1,0 0,0 -1,-1 1,-1 0,0 0,0 0,1 0,0 0,0 0,0zm-4 -6c1,1 1,2 2,2 1,1 2,2 3,3 -2,0 -2,0 -3,0l-2 -5zm-2 -11c0,0 1,1 1,2 -2,0 -3,0 -3,-2 1,0 1,0 2,0zm-5 -8c1,0 2,1 3,2 -1,0 -2,0 -3,-1l0 -1zm0 -6c0,1 1,1 0,1l-2 0 -1 -1c1,0 1,0 2,0 1,0 1,0 1,0zm-3 -2c1,0 2,0 2,1 -1,1 -2,1 -2,-1zm-19 -44c1,1 0,1 0,1 0,0 0,0 0,-1 0,-1 0,1 0,0zm62 -42c0,0 0,0 0,-1 1,1 0,1 0,1zm-50 15c-1,0 -1,0 -1,0 0,-1 0,0 0,-1 0,1 1,1 1,1zm26 -12c0,0 0,1 1,1 1,1 1,0 1,1l-1 0c-1,0 -1,0 -2,0l1 -2zm4 1c-1,0 -3,0 -2,-2 1,0 1,1 2,2zm-27 8c1,0 2,0 2,-1 2,-2 6,-2 8,-3 4,-1 9,-3 11,-4 0,1 0,2 -1,2l-5 2c1,2 2,0 3,1 1,0 1,0 2,0 3,0 5,-2 6,-2 1,-1 3,-1 4,-2 0,-1 -1,-1 -2,-1 0,-1 0,-1 0,-2 1,-1 1,-1 2,-1l13 -3c1,1 0,1 3,1 1,0 0,0 1,0 -1,1 0,0 -1,1 -1,2 -5,3 -7,4l-10 4c-4,1 -10,3 -15,5 -3,1 -2,0 -4,0 -1,0 -1,0 -1,1 0,0 0,0 0,0 0,0 0,0 0,0 -3,1 -7,1 -10,2 2,-2 5,-2 8,-2l6 -2c0,0 1,0 2,0 -1,-1 -6,1 -7,1 -3,1 -4,1 -5,0 0,0 0,0 0,0 -1,0 -1,1 -2,1 0,-1 0,-1 -1,-1l0 -1zm21 -10c1,2 0,1 -1,2 -1,0 -3,0 -3,0l0 0c1,-1 3,-2 4,-2zm8 -2c-1,-1 -1,-1 0,-1 0,1 1,0 0,1zm-4 0l1 0c0,1 0,1 1,1 -1,-1 -2,-1 -1,-2 1,0 2,1 2,2 0,1 0,0 -1,1 1,0 1,2 1,2 -1,0 -1,0 -1,-1 -1,0 -1,0 -1,-1 -1,-1 -1,0 -1,-2zm1 -2c0,0 0,-1 0,-1 1,0 0,0 1,0 0,1 -1,1 -1,1zm0 -2c0,0 0,0 0,-1 0,-1 0,0 1,-1 0,1 0,1 0,1 0,2 -1,1 -1,1zm1 -3c0,-1 0,-1 0,-1l0 1zm-4 9c0,-1 0,-4 0,-5 1,-2 1,-4 1,-5 0,1 0,2 0,4 0,-1 0,-1 0,-1 0,0 0,0 0,0 1,2 1,6 0,8l-1 -1zm3 -32c0,-1 0,-7 0,-8 1,0 1,1 2,1 0,-1 -1,-1 -2,-3 1,0 1,-1 1,0 1,0 2,1 2,2 0,2 0,5 -1,7 0,2 0,6 0,8 0,0 0,0 -1,0 0,-1 0,-2 0,-2 1,-4 1,-6 0,-9 0,0 0,5 0,6l0 -6c-1,0 -1,0 -1,1l0 4c0,1 0,3 0,5 0,1 0,8 -1,9 0,-1 0,-4 0,-6l1 -9zm4 -11c0,0 1,0 1,0 0,1 0,0 -1,0zm2 -1c-1,0 0,0 -1,0l1 0zm-5 -1c1,1 3,2 2,3 -1,0 0,0 -1,-1 0,0 0,0 -1,0l0 -2c0,0 0,0 0,0 0,0 0,0 0,0zm0 -1c0,-1 -1,-2 1,-2 0,1 0,1 0,1 1,0 0,0 1,1 1,1 1,1 1,2 0,1 -1,-1 -3,-2zm5 2c0,-1 0,-2 1,-2 0,-1 2,-4 3,-4 -1,0 -1,2 -2,3 -2,2 -1,2 -2,3zm-3 -4c0,-1 4,-4 4,-5 -1,2 -3,4 -3,6 -1,0 -1,0 -1,-1zm1 1c0,-1 8,-10 10,-12 1,-1 3,-4 4,-4 -2,3 -8,9 -10,13 -1,1 -2,4 -3,4 -1,0 -1,0 -1,-1zm13 -14c1,-1 1,-2 2,-3 1,-2 5,-6 6,-7l3 -5c1,1 2,3 1,4l-3 2c0,-1 1,-1 1,-2 -1,1 -5,5 -6,7 -2,2 -4,5 -6,7l2 -3zm6 -10c0,-1 4,-5 5,-6 0,1 0,1 0,1l-2 2c-1,1 -1,1 -2,2 -1,0 -1,1 -1,1z"/>
    <path class="fil1" d="M4 159c3,-2 6,-4 9,-5l-1 1 11 -4c1,0 0,0 1,-1 0,-1 0,0 0,-1 0,0 -1,1 -1,1 -2,0 0,-1 -2,0 0,0 -1,1 -2,1 1,-1 2,-1 2,-2 -2,1 -16,8 -17,10z"/>
    <path class="fil1" d="M23 207c0,0 1,0 1,0 1,0 1,0 1,1l-1 0c1,1 1,-1 3,2 -1,0 -2,0 -2,0 -1,0 -1,0 -1,0 1,0 1,0 2,0 1,0 1,0 2,1l0 1c0,0 0,0 1,0 1,0 0,0 1,0 1,0 1,0 2,-1l-3 1c-1,-1 -1,-1 -1,-2 0,-1 0,1 -2,-1 2,0 4,0 4,-1 0,0 0,0 -1,0l-3 0c0,0 -1,0 -1,-1 1,0 4,1 5,0l-6 -1c-1,0 -1,1 -1,-1 1,0 3,1 4,0 0,0 -2,0 -5,0 -1,-2 0,-3 -1,-3l2 5z"/>
    <path class="fil1" d="M12 178c-1,-1 -1,-1 -1,-2 1,0 2,0 2,0 1,1 2,2 2,2 1,0 1,1 0,-1l3 0c-2,0 -4,0 -4,-2 1,0 3,1 5,1 -1,0 -3,-1 -4,-1 -2,0 -2,0 -4,-2 2,0 4,1 6,1 -1,0 -6,-1 -7,-2l0 1c0,0 0,0 0,0 1,0 1,0 2,1 -1,0 0,0 -1,0 1,1 1,1 2,2l-2 0c-2,0 -1,-3 -3,-4 0,2 3,5 4,6z"/>
    <path class="fil1" d="M5 160l11 -5c-1,0 -7,2 -9,3 -1,1 -2,1 -2,2z"/>
    <path class="fil1" d="M85 153c1,0 1,0 2,1l-2 1c1,-1 2,-2 3,-2 0,0 -2,2 -2,3 1,-1 2,-3 3,-4 0,0 1,-1 2,-2l-1 0c0,-1 0,-1 1,-2 -1,1 -2,2 -3,3 -1,1 -2,2 -3,2z"/>
    <path class="fil1" d="M40 248c3,2 3,2 4,3 0,0 0,0 0,0 1,0 2,0 2,0 -1,0 -2,0 -2,-1 -1,0 -1,-1 -2,-1 1,0 4,0 5,-1 -1,0 -3,1 -4,0 -1,0 -2,0 -3,0z"/>
    <path class="fil1" d="M17 158c1,0 6,-1 8,-1 -1,0 -8,0 -8,1z"/>
    <path class="fil1" d="M61 309c0,0 0,0 0,0l3 -3 -5 4 1 0c1,0 3,-1 4,-2l-3 1z"/>
    <path class="fil1" d="M71 162c-1,-1 -8,-2 -9,-2 0,1 8,2 9,2z"/>
    <path class="fil1" d="M72 316c1,0 3,-3 3,-3 1,-1 3,-3 3,-3 -1,1 -6,4 -6,6z"/>
    <path class="fil1" d="M23 156c-1,-1 0,-1 -1,-1 0,0 -1,0 -1,0 -1,0 0,0 -2,1 0,0 0,0 0,0 0,0 0,0 0,0l3 0c1,0 1,0 1,0z"/>
    <path class="fil1" d="M86 158c1,0 2,-3 3,-4 0,0 2,-3 3,-4 -1,1 -6,7 -6,8z"/>
    <path class="fil1" d="M55 317c2,0 4,-3 5,-4l2 -3c-1,1 -3,4 -5,6 0,0 -1,1 -2,1z"/>
    <path class="fil1" d="M55 309c2,-1 4,-3 6,-4 -3,1 -4,3 -6,4z"/>
    <path class="fil1" d="M33 168c1,0 5,2 7,1 -1,0 -3,0 -4,-1 -1,0 -3,0 -3,0z"/>
    <path class="fil1" d="M59 164c-1,0 -2,0 -3,0 -1,-1 -2,-1 -3,-1 0,0 5,2 6,1z"/>
    <path class="fil1" d="M43 159c2,0 2,0 4,0 1,0 2,0 3,0 -1,0 -3,-1 -3,-1 -2,0 -1,1 -2,1 0,0 -1,0 -2,0z"/>
    <path class="fil1" d="M101 305c2,-1 6,-5 7,-5 -3,0 -6,5 -7,5z"/>
    <path class="fil1" d="M93 166c1,-1 1,-2 1,-2l-1 2 0 0z"/>
    <path class="fil1" d="M15 172c-1,0 -2,0 -3,-1 -1,0 -2,0 -3,0 1,0 5,1 6,1z"/>
    <path class="fil1" d="M58 156c-1,0 -5,0 -6,0 1,0 4,0 6,0z"/>
    <path class="fil1" d="M16 179c1,0 3,0 4,0l-4 -1c-1,1 0,0 0,1z"/>
    <path class="fil1" d="M35 160c1,1 3,1 5,1 -1,0 -2,-1 -3,-1 0,0 -2,0 -2,0z"/>
    <path class="fil1" d="M48 265c0,0 0,1 0,1 0,0 0,0 0,0 0,0 3,1 4,0 -1,0 -4,-1 -4,-1z"/>
    <path class="fil1" d="M66 315c1,0 4,-3 5,-4 -2,1 -3,3 -5,4z"/>
    <path class="fil1" d="M58 309c1,0 2,-1 2,-2 1,0 1,0 2,-1 -1,0 -3,2 -4,3z"/>
    <path class="fil1" d="M74 148c-1,1 -1,0 -2,1 1,0 4,1 5,1 -1,-1 -2,-1 -3,-2z"/>
    <path class="fil1" d="M61 163c0,-1 -3,-1 -4,-1 1,0 3,1 4,1z"/>
    <path class="fil1" d="M36 162c-1,0 -3,-1 -4,0 1,0 3,0 4,0z"/>
    <path class="fil1" d="M65 310c0,0 -1,0 0,0 0,0 3,-2 3,-3 -1,1 -2,2 -3,3z"/>
    <path class="fil1" d="M89 159c2,-1 3,-3 4,-3 -1,0 -1,1 -2,2 -1,0 -2,1 -2,1 0,0 0,0 0,0z"/>
    <path class="fil1" d="M87 158c0,0 1,-1 2,-2 1,0 1,0 1,-1 -1,1 -3,2 -3,3z"/>
    <path class="fil1" d="M90 143l-1 -1c-1,1 0,1 -3,0 1,0 3,1 3,1 1,0 1,0 1,0z"/>
    <path class="fil1" d="M78 310c2,0 4,-3 5,-4 -1,1 -2,2 -3,2 0,1 -1,2 -2,2z"/>
    <path class="fil1" d="M54 157l-4 0c1,0 3,1 4,0z"/>
    <path class="fil1" d="M79 146c1,0 1,0 2,0 1,0 1,0 2,1 -1,-1 -3,-2 -4,-1z"/>
    <path class="fil1" d="M44 160c-1,0 -2,0 -2,0 -1,0 -2,-1 -3,-1 2,1 3,2 5,1z"/>
    <path class="fil1" d="M50 166c-1,0 -4,-1 -6,0 1,0 5,0 6,0z"/>
    <path class="fil1" d="M74 148c1,0 2,0 4,0l-1 0c0,0 0,0 -1,0 0,0 -1,0 -2,0l0 0z"/>
    <path class="fil1" d="M68 152c-2,0 -2,-1 -4,-1 1,0 4,2 4,1z"/>
    <path class="fil1" d="M24 194c-1,0 -3,0 -5,0 0,0 2,0 3,0 0,0 2,0 2,0z"/>
    <path class="fil1" d="M81 311c2,-1 5,-4 5,-5 0,1 -4,4 -5,5z"/>
    <path class="fil1" d="M56 284c1,0 0,0 2,0 0,1 2,1 2,1 0,-1 -2,-1 -2,-1l-2 0z"/>
    <path class="fil1" d="M61 154l-4 0c1,0 1,1 4,0z"/>
    <path class="fil1" d="M65 153c-1,0 -3,0 -5,-1 1,0 2,1 2,1 1,0 2,0 3,0z"/>
    <path class="fil1" d="M72 310c2,0 2,-1 3,-2l-3 2z"/>
    <path class="fil1" d="M53 315c1,-1 2,-1 2,-2 -1,0 -2,1 -2,2z"/>
    <path class="fil1" d="M33 169c-1,0 -4,0 -5,0 1,0 3,0 5,0z"/>
    <path class="fil1" d="M109 302c1,0 2,-2 3,-3 0,0 1,0 1,-1l0 0c-1,2 -3,4 -4,4z"/>
    <path class="fil1" d="M83 310c2,-1 5,-3 7,-4 -3,1 -5,3 -7,4z"/>
    <path class="fil1" d="M88 144c0,0 -2,-1 -3,0 1,0 2,1 3,0z"/>
    <path class="fil1" d="M107 303c0,0 -1,0 0,0 0,0 0,-1 0,-1l3 -2c-2,1 -2,2 -3,3z"/>
    <path class="fil1" d="M90 160l1 0 -1 0 0 0zm2 0c1,-1 2,-2 2,-3 -1,1 -1,2 -2,3l0 0z"/>
    <path class="fil1" d="M113 300c0,0 1,-1 1,-2l0 0c-1,1 -1,2 -1,2z"/>
    <path class="fil1" d="M48 263l1 2c-1,0 -1,0 -2,0l5 0c0,0 -1,0 -2,0 -1,0 -1,0 -1,-1l-1 -1z"/>
    <path class="fil1" d="M80 147l-2 0c0,0 1,1 2,0z"/>
    <path class="fil1" d="M70 310c1,0 2,-1 3,-2l-3 2z"/>
    <path class="fil1" d="M91 142c-1,-1 -1,-1 -1,-1 0,1 0,1 1,1z"/>
    <path class="fil1" d="M79 158l-5 -1c1,0 4,1 5,1z"/>
    <path class="fil1" d="M70 151l-3 0c1,0 2,0 3,0z"/>
    <path class="fil1" d="M57 309c1,-1 2,-1 2,-2 -1,1 -2,1 -2,2z"/>
    <path class="fil1" d="M73 150l-4 0c1,0 2,1 4,0z"/>
    <path class="fil1" d="M58 155c-1,0 -2,-1 -2,-1 0,1 1,1 2,1z"/>
    <path class="fil1" d="M74 311c1,0 1,-1 2,-1l-2 1z"/>
   </g>
   <path class="fil1" d="M183 339c1,0 2,0 3,-1 2,0 5,-2 8,-2 -1,1 -6,2 -8,3 -1,0 -2,0 -3,0zm13 -2c0,-1 1,0 3,-1 1,0 7,-2 8,-2 -1,1 -4,2 -5,2 -1,1 -5,2 -6,1zm9 -4c0,0 0,0 -1,0 1,0 1,0 1,0zm0 0c2,0 3,-1 4,-1 1,0 4,-1 5,-1 -1,1 -7,2 -9,2zm11 -3c0,0 0,0 0,0 0,0 0,0 0,1 -1,-1 0,-1 0,-1zm1 -1c0,-1 1,-3 2,-3 0,1 0,2 -1,2 0,0 -1,1 -1,1zm4 1c1,0 6,-2 9,-2l-6 2c-2,0 -6,2 -7,1 -1,0 0,0 0,0 4,-2 11,-4 16,-5 1,0 5,-1 6,-1 -1,1 -3,2 -4,2 -1,0 -1,0 -2,0l-3 0c-2,1 -5,1 -7,2 -1,0 -2,0 -2,1zm-17 -105c-1,-2 2,-6 4,-7 -1,2 -1,4 -2,5 0,1 -2,2 -2,2zm29 1c0,1 2,1 2,2 -1,0 -2,-1 -3,-1 -1,-1 -2,0 -2,-2 1,0 2,1 3,1zm-25 0l1 -2c-1,0 -1,1 -2,2 0,2 -1,2 -3,4l-1 1c-1,0 0,0 -1,0 1,-3 2,-5 4,-7 1,0 1,0 1,-1 1,0 1,0 1,0l1 0c0,0 0,0 0,0 0,-2 1,-2 3,-4 0,0 1,-1 1,-1 0,1 0,2 0,3 0,2 -2,3 -3,4 -1,0 -1,1 -2,1zm20 -2c-1,0 -2,-1 -2,-1 0,0 1,0 1,0 1,1 1,1 1,1zm-20 -2c0,-1 0,-5 2,-6 0,1 -1,3 -1,3 0,2 0,2 -1,3zm0 -6c0,1 0,1 -1,1 -2,2 -3,3 -2,1 0,-2 0,-1 1,-2 1,-1 2,-2 2,-2l0 2zm2 4c0,-1 1,-4 1,-5 0,0 1,-1 1,-1 1,-1 1,-1 2,-1 0,1 0,4 -1,4 -1,1 -3,3 -3,3zm7 -1c-1,0 -3,2 -3,2 -1,-1 0,-2 0,-3 0,-1 1,-1 1,-2l0 -1c0,0 0,-1 0,-1 1,0 1,1 1,1 1,1 2,1 2,2 0,1 0,1 -1,2zm-8 -6c0,-1 1,-2 1,-2 1,2 0,4 -1,5 0,-1 0,-2 0,-3zm3 -1c0,0 0,0 1,0 0,1 -1,1 -1,1 0,0 0,0 -1,0l1 -1zm-7 2c1,-1 1,-2 2,-3 0,0 1,-2 2,-2 0,2 -1,4 -2,5 -1,0 -1,0 -2,0zm10 -2c0,0 0,0 0,0 0,0 1,1 0,1l0 -1zm-6 -1c0,-1 0,-1 1,-1 0,0 0,0 0,1 0,0 0,0 -1,0zm-48 -10c0,0 1,0 2,0l-2 0c-1,0 0,0 0,0zm3 0c3,0 5,1 8,1 1,0 7,1 7,2 -2,1 -14,-2 -15,-3zm28 5c-1,1 -3,0 -4,0 -1,0 -3,-1 -3,-1 0,-1 7,1 7,1zm20 4c-4,-3 0,-3 1,-1 0,1 1,2 1,2 -1,1 -2,-1 -2,-1zm-66 -13c-1,-1 -2,-1 -2,-2 0,0 5,2 6,2 1,1 2,1 3,2 2,1 3,1 2,2 -1,0 -7,-3 -9,-4zm-14 -8c0,0 0,0 1,0l2 1c0,1 1,1 2,2 1,0 2,0 3,1 0,0 1,1 2,1 -1,0 -4,-2 -5,-2 -2,-1 -3,-2 -5,-3zm108 13c-1,0 -3,0 -5,0 -1,0 -4,1 -3,-1 1,-2 3,0 4,0 1,0 2,-1 2,-1 1,0 2,1 2,2zm-76 -12c-1,-1 -3,-1 -4,-2 -1,0 -2,0 -2,-1 -1,-3 1,-3 3,-3 1,0 1,-1 2,0 1,1 0,0 1,1 0,0 -1,0 -1,2 0,1 1,2 1,3zm72 9c1,-1 1,0 2,-1 0,0 1,0 1,-1 0,1 1,1 1,1 0,1 0,1 -1,1 -2,-1 -1,0 -3,0zm-79 -16c-1,0 -1,0 -1,0 1,0 1,0 1,0zm96 17c-1,0 0,0 -1,0 0,0 0,0 1,0zm-151 -28c1,0 3,1 3,1 1,1 1,1 2,1 0,1 1,1 1,1 -1,0 -5,-2 -6,-3zm63 11c0,0 1,0 1,0 0,1 0,1 -1,0zm91 17c0,0 0,0 0,0 0,0 0,0 0,0zm-125 -23c0,-1 1,-2 1,-2l0 2c0,0 -1,0 -1,0zm-6 -3c0,-1 1,-2 2,-2 0,0 0,2 0,3 -1,0 -2,-1 -2,-1zm-5 -2c-1,1 -1,-1 0,-1 0,0 0,0 1,0 0,0 -1,1 -1,1 0,0 0,0 0,0zm33 8c2,-1 7,-1 7,-1l-3 1c-2,0 -2,1 -3,1 0,0 -1,-1 -1,-1zm69 10c0,0 0,0 0,0 0,0 0,0 0,0 0,1 0,0 0,0zm-104 -19c0,0 0,0 0,-1 1,0 1,0 1,0 0,1 0,1 -1,1zm98 16c0,1 0,1 0,1 0,0 -1,0 -1,0 0,-1 0,-1 1,-1zm-95 -15c1,-2 1,-2 1,-2 2,0 0,2 -1,2zm2 1c0,-1 2,-3 2,-3 0,0 1,0 1,0 0,1 -1,2 -1,2 -1,1 -1,2 -2,1zm102 19c1,-1 3,-2 4,-1 1,0 1,2 2,3 2,0 1,0 2,1 2,0 4,-1 5,-1 0,1 0,2 -1,3 -1,1 -2,0 -2,0 -2,1 -1,2 -3,1 -1,0 -1,-1 -2,0 0,0 1,1 2,1 0,1 -1,1 -1,2 0,0 0,1 0,1 -1,1 -8,2 -9,1 0,-2 -1,-2 -3,-3 -1,-1 -2,0 -2,1 -1,0 -2,1 -2,2 1,0 2,-2 3,-2 0,0 3,1 3,3l-6 0c-2,0 -5,1 -7,0 0,0 0,-1 -1,-1 -5,-1 -6,-1 -12,-3 -2,-1 -13,-5 -13,-5 0,-1 0,0 0,-1 1,0 2,-1 2,-2 0,-2 -2,-1 -3,-2 0,0 0,-1 1,-1 0,0 0,1 1,0 1,0 0,-2 1,-3 1,0 2,1 3,1 0,0 1,0 2,0 2,1 1,1 2,1 2,1 4,-2 3,-4 -1,-2 -2,0 -4,-1 0,0 1,-1 2,-1 2,-2 1,-2 3,-2 1,0 2,0 3,0 0,0 0,1 0,1 1,1 2,0 3,1 0,0 0,0 1,1 0,0 0,0 0,0 2,2 3,4 4,4 0,0 3,-3 4,-3 0,1 0,2 1,3 0,0 0,0 0,1 -1,2 1,1 2,3 2,1 2,-1 3,-1 1,2 0,3 0,4 1,1 1,0 1,0 1,-3 -1,-5 2,-3l1 1c0,0 0,0 1,0 0,0 0,0 0,1 1,0 1,0 2,0 2,1 1,0 2,-1zm-69 -10c1,-1 0,-1 1,-1 0,0 0,0 0,0 0,0 0,0 1,0l5 -2c0,0 6,-1 6,-1 0,1 -5,2 -6,2 -2,1 -4,2 -6,2l-1 0zm-27 -7c0,0 4,-5 5,-5 0,0 0,1 0,1 -1,1 -1,2 -2,2 -1,2 -2,4 -3,2zm84 12c-1,-2 0,-3 1,-3 0,1 2,3 -1,3zm4 0c-1,0 0,-1 1,-2 1,1 0,2 -1,2zm-47 -2c0,0 0,-1 0,-1 0,-1 2,0 4,-2 2,-1 0,-2 2,-3 4,-1 3,1 4,2 1,1 2,2 4,1 2,-1 2,0 3,-1 2,0 2,-1 4,0 -1,1 -2,0 -2,2 0,0 0,2 1,2 1,1 3,-1 3,1 0,0 -1,1 -1,1 -1,0 0,-1 -2,-1 -1,0 -2,0 -3,0 -1,0 -3,-2 -4,0 0,0 -1,1 -1,1 0,1 -1,0 -2,2 -2,4 2,3 2,3 0,0 0,0 0,1 -1,0 -2,0 -2,0 -2,-1 -2,-1 -3,0 -1,0 -10,-2 -11,-3 0,0 0,0 0,-1 0,0 -1,0 -1,-1 -1,-1 1,-3 2,-3 1,0 2,1 3,0zm-42 -11c0,0 0,-3 0,-4 1,0 3,0 4,0 -1,0 -3,4 -4,4zm11 -3c0,0 0,-1 1,-1 0,0 1,1 1,1 -1,1 -1,1 -2,0zm-1 -1c0,0 0,0 0,0 0,1 0,1 0,1 -1,0 -1,0 -1,1 -1,0 -1,0 -1,1 -1,0 -1,0 -2,0 0,-1 2,-3 3,-3 0,0 1,0 1,0l0 0zm102 20c-1,0 -2,2 -1,2 1,1 0,0 1,0 0,1 0,1 0,2 -1,0 -1,-1 -2,-1 -1,0 -2,0 -3,0 0,-1 0,-1 0,-2 -1,0 0,0 -1,1l0 0c0,0 0,0 0,0l0 -2c0,-1 0,-1 -1,-1 0,1 0,2 -1,3 0,0 -1,-1 -1,-2 -1,-1 0,-2 0,-3 -1,0 -1,0 -1,1l-1 1c0,0 0,0 0,0l0 0c0,-1 0,-1 0,-1l0 -2c0,-1 1,0 2,0l5 1c2,1 4,2 6,3 1,0 3,1 3,1 0,1 0,1 0,2 1,2 2,6 1,8 -1,0 -1,0 -2,0 -1,-2 1,-5 0,-6 -1,0 -1,3 -1,3 -1,-1 1,-4 -1,-4 0,1 0,3 0,4 -1,3 0,2 1,3 0,0 0,0 -1,0 0,0 0,0 0,0 -1,-2 -1,-1 -1,-3 0,-2 0,-1 -1,-2 0,-1 2,-5 0,-6zm-68 -12c0,-1 1,-1 2,-2 0,0 1,0 1,0 0,1 -2,2 -3,2zm56 7c1,0 0,1 0,2 0,1 0,2 -1,2 0,-1 0,-2 0,-2 0,-1 0,-2 1,-2zm-63 -7c0,-1 1,-1 2,-1 0,0 1,-1 2,-1 0,0 4,-1 4,-1 -1,1 -2,2 -4,2l-4 1zm59 12c0,0 1,-1 1,-1 0,-1 -1,-4 0,-5 2,0 1,3 1,5 0,1 -1,1 -1,1 -1,1 -2,2 -2,2 0,-1 0,0 1,-2zm-70 -12c0,0 14,-4 16,-3 0,0 0,0 0,0 -3,0 -1,0 -4,1 -3,1 -4,2 -8,2l-4 0c0,0 0,0 0,0l0 0zm70 8c0,0 0,2 0,3 -1,0 -2,-5 -1,-6 1,0 0,2 1,3zm-10 -4c0,0 -2,3 -3,2 0,0 0,-1 1,-1 0,0 2,-1 2,-1zm-36 -10c1,1 0,2 -1,2 1,0 1,0 1,-1 0,0 0,0 0,-1zm-2 2c-1,-1 -1,-2 0,-3 0,0 2,2 0,3zm24 2c0,0 0,2 0,3 0,-1 0,-1 -1,-2 0,0 0,0 -1,-1 1,0 1,0 2,0zm49 18c0,-1 0,-5 0,-5 1,1 0,3 1,4 0,-1 0,-4 0,-4 0,-1 0,-2 0,-3 0,-1 0,-1 1,-1 0,0 0,0 0,1l1 8c0,2 -1,3 -1,3 1,0 0,0 1,0 1,1 -1,3 -1,3 -5,1 -3,-3 -3,-4 0,-1 -1,-6 0,-6 0,1 0,7 1,8 1,-1 0,-3 0,-4zm20 -3c0,-1 2,-3 2,-3 0,1 0,2 -1,3l-1 0zm-67 -10c-1,0 -1,-2 -1,-3 0,-1 -1,-4 1,-4l0 7zm6 -3c0,0 0,-2 0,-3 1,0 2,-1 2,-1 1,0 1,2 1,3 -1,0 -2,1 -3,1zm-15 -5c1,0 2,0 2,0 0,1 -2,2 -2,0zm12 4c0,-1 0,-3 0,-4 0,-1 1,-2 2,-2 0,1 0,3 0,4 0,1 -1,2 -2,2zm-59 -6c0,0 0,0 0,0 1,-1 -1,0 -2,0 -4,-1 -2,-2 -2,-3 1,-1 0,-1 0,-1 0,-1 0,-3 2,-2 1,1 1,2 2,2 1,2 2,1 2,1 2,0 2,0 3,0 1,0 3,-1 3,-1 1,-1 -1,-2 -1,-2 -1,-1 -1,-2 -1,-3 1,0 2,0 3,0 3,0 3,1 4,3 1,2 2,1 2,0 1,1 0,2 1,2 0,1 0,1 0,2l-7 5c-1,1 -1,1 -1,1 -1,1 -1,1 -2,1 0,1 -2,1 -1,2 1,3 2,4 3,5 2,2 0,1 3,2 0,1 0,2 0,2 -1,0 -3,-1 -4,-1 -1,-1 -2,-1 -4,-1 -1,-1 -1,-1 -1,-2 0,0 0,-1 -1,-1 0,-1 1,-4 -1,-3 0,0 0,-1 0,0 0,0 0,0 0,1 0,1 0,2 1,3 -2,0 -4,-1 -5,-2 -3,-1 -6,-1 -8,-4 0,0 0,-3 2,-3 0,1 1,4 2,5 1,1 0,-2 0,-2 0,0 0,0 0,-1 0,-1 -1,-1 -1,-2 0,0 0,-1 1,-1 1,0 0,0 2,0 1,0 2,0 2,-1 2,-1 1,0 3,0 0,0 1,0 1,-1zm42 1c0,-1 0,-2 0,-3 3,1 0,0 1,4 0,0 2,0 3,1 0,0 0,1 0,2 2,1 2,-1 4,-1 0,1 0,1 0,2 1,1 1,1 2,1 -1,1 -4,0 -4,0 -1,1 -2,2 -3,2 -2,-1 -1,-1 -3,0 -1,0 -3,-1 -4,0 -1,0 -1,2 -2,1 0,-1 0,-2 -1,-2 -2,-1 -3,-2 -4,-1 -6,3 -2,3 -5,3 -3,0 -5,0 -7,1 -1,0 -6,1 -7,1 1,0 1,0 1,0 4,-1 6,-2 10,-3 2,-1 9,-2 10,-4 0,-1 0,-1 1,-1 0,0 1,-1 1,-1 2,0 3,1 5,1 0,0 0,-1 0,-1 -1,0 -3,-1 -4,-1 -1,0 -2,0 -3,0 0,-1 0,-1 0,-1 1,0 4,0 5,0 2,1 1,0 3,2l1 -1c0,0 0,0 -1,-1 -1,-1 0,-1 -1,-1 -1,0 0,1 -2,0 -1,0 -2,0 -3,0 -1,0 -2,0 -2,-1l0 0c0,0 1,0 1,0 2,0 4,1 5,0 1,0 2,1 3,1 0,0 0,0 0,0 0,0 0,0 0,0 0,1 0,1 0,1zm0 -3c0,1 -1,1 -2,1 -2,-1 -2,0 -4,-1 -3,0 -4,0 -4,-3 1,0 1,1 2,1 3,1 4,1 6,1 0,1 2,1 2,1zm-11 -1c-1,0 -1,-1 -1,-2 -1,0 -1,0 -1,-1 1,0 1,1 2,2 0,1 0,1 0,1zm35 8c-1,-1 -1,-3 0,-4 0,0 1,-1 2,-1 1,0 1,0 2,0 1,0 1,0 2,1 0,1 -1,2 -2,1 0,0 0,0 -2,0 -1,1 -1,1 0,2 0,0 0,0 0,0 1,-1 1,-1 2,-1 0,0 -4,2 -4,2zm-20 -11c1,0 3,1 4,1 1,0 4,2 3,3 -1,1 -1,1 -1,2 0,1 0,3 -1,4 0,-1 0,-1 -1,-3 -2,0 -2,0 -2,1 -1,0 -1,-1 -3,-1l-1 0c0,-1 0,0 0,-1 1,-1 0,-2 1,-3 0,-1 1,-3 1,-3zm-16 -1c-1,0 -1,-1 0,-1 0,1 0,0 0,1zm1 -1c1,0 7,1 8,1 2,0 3,1 4,1 1,1 1,1 1,2 0,0 0,1 -1,1 0,0 -1,0 -1,0 -1,0 -1,-1 -2,-1 -1,0 -3,0 -7,-1 -1,-1 -2,-1 -2,-3zm31 11c0,-1 0,-3 1,-4l2 -1c1,0 1,-1 1,-1 1,0 1,0 2,1 1,1 0,1 -2,2 -1,1 0,0 -2,0 0,1 0,3 -2,3zm11 -4c0,0 0,0 0,0 1,-1 1,-1 1,-1 0,1 0,1 -1,1zm-43 -8c0,0 0,-1 0,-1 1,-3 1,-2 2,-2 2,1 3,0 5,0 1,0 3,1 5,1 1,0 3,0 4,1 0,1 0,1 0,2 -1,2 -3,1 -4,0 -3,-1 -11,0 -12,-1zm-1 -1c0,0 0,-4 1,-4 0,0 0,0 0,1 0,0 0,0 0,1 0,1 -1,2 -1,2zm24 -2c1,0 2,0 2,2 -1,1 -2,-1 -3,-1 -2,-2 -2,-1 -2,-1 0,-1 2,-1 3,0zm-21 -3c1,0 5,0 6,0 2,0 1,0 1,1 0,0 0,0 0,0 1,-1 2,0 3,0 0,1 0,1 1,1 1,-1 0,-1 2,0 2,0 3,0 2,1 0,0 -2,0 -3,0 -2,0 -1,0 -2,-1 -2,1 -2,0 -6,0 -2,1 -5,1 -4,-2zm19 1c0,0 0,0 0,-1 0,0 0,0 1,0l2 0c7,-1 6,0 8,1 1,1 2,1 2,3 0,0 -1,1 -2,1 -1,0 -1,1 -2,1 -2,1 -1,1 -2,1 -1,1 -2,1 -2,1 -1,-1 1,-5 0,-6 0,0 -2,0 -3,0 -1,-1 -1,-1 -2,-1l0 0zm48 30c-1,-1 -2,-1 -3,-2 -1,0 -3,-1 -5,-2 -4,-4 -8,-3 -9,-5 0,-1 0,-1 0,-2 0,-2 1,-2 1,-4 2,-4 0,-5 0,-6 2,1 1,1 2,2 1,0 1,0 1,-1 -1,-2 -4,-2 -6,-4 -1,-2 -1,-1 -2,-2 0,-2 2,-3 4,-2 3,1 5,5 7,7 2,1 8,4 9,5 3,1 2,0 2,5 -1,1 -1,2 -2,2 -1,0 -2,-1 -3,-1 -1,0 -2,0 -3,0 -1,-1 -2,-1 -2,0 1,1 6,1 7,2l0 1c0,0 -1,0 -1,0 -2,0 -10,-3 -11,-2 2,1 7,2 8,3 2,0 3,1 4,0 2,0 2,-1 3,-2 1,0 4,3 4,3 0,1 -1,3 -2,5l-3 4c0,-1 0,-1 -1,-2 -1,-1 -2,-1 -3,-1 -4,-2 -16,-5 -18,-6 0,-1 1,-2 1,-2 2,0 0,1 3,-1 1,0 4,2 5,2 2,1 3,2 5,3 2,2 5,3 7,4 0,0 1,1 2,1 1,-1 0,-2 -1,-2zm-55 -31c1,0 3,-4 4,-4 0,1 1,3 1,3 -1,1 -3,2 -5,1zm-21 8c0,1 -1,1 -2,2 0,0 -1,1 -2,0 -1,-1 -2,-8 -2,-9 -1,-4 -2,-7 -2,-10 -1,-1 -1,-2 0,-2l7 -6c1,-1 1,-1 2,-1 0,1 0,6 -1,7 -1,1 -4,3 -4,4 0,1 1,0 1,0 1,0 1,-1 1,-1 1,-1 2,-2 3,-2 0,3 0,6 0,9 -1,2 0,8 -1,9zm3 -35c0,2 0,4 0,7 0,1 -1,1 -1,2l0 3c0,1 1,2 0,2 0,0 0,-4 0,-5 1,-2 0,-4 1,-6 0,-1 -1,-3 0,-3 0,0 0,0 0,0zm-37 -93c2,8 4,22 6,28 0,0 0,1 0,1 1,1 0,1 1,2 0,-1 -1,-5 -1,-6 -1,-6 -2,-13 -3,-19l-2 -9c0,-2 0,-2 -1,-4 0,-1 0,-1 0,-2 -1,-4 -3,-6 1,-5 1,1 1,1 1,1 0,3 0,5 1,6 0,1 0,3 0,4 0,0 0,0 0,0 1,2 1,2 1,3 0,2 0,4 1,6 0,2 1,4 1,6 0,1 0,2 0,3 1,1 1,2 1,3 0,2 1,4 1,6 0,1 1,2 1,3 0,1 0,2 0,3 0,2 0,4 1,6 0,5 1,9 2,13 0,1 0,2 0,3 0,1 1,2 1,3 0,1 0,2 1,3 0,1 0,1 0,2 0,1 1,2 1,3 0,1 0,2 0,3 1,2 1,2 1,3 1,4 1,6 2,10 0,2 1,3 1,5 1,5 1,8 2,13 1,1 1,1 1,2 0,1 0,3 0,4 1,2 2,3 2,5 0,3 1,4 1,6 0,1 0,2 1,3 1,3 1,6 2,9 0,2 1,5 1,6 -1,-1 -1,-4 -2,-5 0,-3 -1,-5 -2,-9 0,-1 -1,-2 -1,-4 0,-2 -1,-3 -1,-5 -1,-2 -1,-4 -2,-6 0,-3 0,-5 -1,-7 -2,-6 -3,-13 -4,-18 -1,-4 -2,-6 -2,-9 -1,-3 -1,-4 -2,-7 0,-1 0,-2 -1,-2 0,-2 0,-3 -1,-5 0,-1 0,-3 -1,-4 -2,-8 -2,-11 -4,-19 0,-3 -2,-11 -3,-13 0,-2 0,-3 -1,-5 0,-2 -1,-6 -2,-9l-2 -9c0,-1 0,-1 -1,-2 0,-2 -1,-7 1,-7 0,0 1,4 1,5 1,2 1,3 2,5 0,1 0,2 0,3zm44 2c-1,3 -1,6 -1,8 0,1 0,2 0,3 0,1 0,4 0,5 -1,4 -1,7 -1,11 0,3 0,6 -1,10 0,2 0,3 0,5 0,1 -1,5 0,5 0,-1 1,-4 1,-5 1,-7 1,-9 1,-16 0,-4 1,-7 1,-10 0,-4 0,-7 0,-11 1,-3 1,-7 1,-10 0,-2 0,-3 0,-5 0,-2 0,-3 0,-5 0,-2 1,-5 1,-8 0,-2 0,-1 0,-2 1,-4 0,-7 1,-11 3,1 3,2 3,4 0,1 0,3 -1,4 0,4 0,7 0,10 -1,6 -1,14 -1,20 -1,3 -1,6 -1,9 -1,4 -1,7 -1,10 0,4 -1,7 -1,10 0,3 0,7 -1,10 0,1 0,4 0,5 0,1 0,3 0,5 -1,3 -1,6 -1,10 -1,5 -1,16 -2,19 0,2 0,3 0,5 0,3 0,7 0,9 0,2 -1,4 -1,5 0,4 1,1 0,5 0,2 0,3 0,5 0,1 0,3 0,5 0,3 -2,8 -1,10 1,1 0,2 0,3 -1,3 -1,2 0,3 0,0 0,0 0,1 0,1 0,2 0,4 0,1 0,1 -1,1 0,-1 0,-1 0,-1 -1,0 -4,0 -4,0l-9 2c-1,0 -4,1 -5,1 0,0 3,-3 4,-3 1,0 1,-1 2,-1 0,-1 1,-1 1,-2 1,-1 6,-3 7,-4 0,0 1,0 2,0 0,-1 0,-2 0,-3 0,-3 0,-5 0,-7 1,-3 1,-7 1,-10 0,-1 0,-3 0,-5 0,-2 0,-3 0,-5 0,-1 1,-9 1,-10 -1,1 0,1 -1,1 -1,0 0,-2 0,-3 0,-2 0,-3 0,-4 0,-5 1,-11 1,-15 0,-9 0,-8 1,-16 0,-5 1,-18 1,-23 0,-5 0,-9 0,-14 0,-2 0,-3 0,-4 0,-2 0,-3 1,-4 0,-1 0,-3 0,-4 0,-1 0,-2 0,-4 0,-1 0,-2 0,-3 0,-3 0,-6 1,-8l0 -8c0,-1 1,-5 1,-7 0,-1 -1,-3 0,-4 0,-2 1,-3 2,-4 1,1 0,4 0,5 0,3 -1,5 0,8 0,1 -1,2 -1,3l0 10c0,1 0,2 0,3 0,2 0,5 0,7zm-8 82c0,0 0,3 0,4 0,2 0,3 -1,4 -1,1 -5,5 -5,6 1,0 1,-1 1,-1 1,-1 4,-3 4,-3 0,0 0,4 0,5 0,1 -2,3 -3,4 0,0 -6,5 -7,6 0,-1 -1,-3 -1,-4 -1,-4 -1,-8 -2,-11 -1,-1 -1,-3 -1,-4 -1,-4 -1,-8 -2,-12 -1,-2 -1,-5 -1,-7 -2,-8 -4,-15 -5,-23 -1,-5 -2,-10 -3,-16 0,-5 -1,-10 -2,-15 0,-3 -1,-5 -1,-8 0,-1 -2,-11 -2,-11 -1,-1 -1,-2 -1,-3 0,-1 0,-1 0,-1 0,-1 0,-3 -1,-4 0,-4 0,-2 1,-4 -1,-1 -5,-2 -7,-2 0,0 -1,1 -2,2 -2,2 -2,1 -1,4 1,2 1,4 2,6 0,0 0,1 0,1 0,1 0,1 0,1 0,1 0,1 0,1l1 2c0,0 0,0 0,1 0,0 0,0 0,1 1,3 2,6 3,9 0,1 1,6 2,9 0,1 1,2 1,4 1,3 1,6 2,9 0,3 1,7 1,10 1,3 2,6 2,9l1 4c1,3 2,6 3,9 1,7 1,4 -1,6l-3 2c-1,0 -1,0 -1,1 0,0 -1,1 -2,2 1,-1 3,-3 4,-3 0,0 1,0 1,-1 1,0 2,-1 3,-1 1,0 2,7 2,7 -1,1 -1,1 -2,2 -1,0 -4,3 -4,4 2,-1 5,-4 6,-4 0,0 1,3 1,4 0,1 1,3 1,4 -1,1 -2,1 -4,2 0,0 -1,1 -1,1 -1,1 -1,1 -2,2l-3 2c-1,1 -2,2 -3,3 1,0 2,-1 2,-1 1,0 1,-1 2,-1 0,0 0,0 0,-1 2,-1 7,-6 9,-6 1,2 1,4 2,6 1,3 1,2 -4,6l-3 2c-1,1 -2,2 -3,3 1,0 1,0 2,-1 1,0 2,-2 3,-2l4 -3c0,-1 1,-2 2,-2 0,2 0,4 1,5 0,1 1,4 0,5 0,0 -2,2 -3,2 -1,1 -1,2 -2,3 -2,1 -6,4 -6,5 1,0 1,-1 2,-1l6 -5c0,-1 0,-1 1,-1 1,-1 2,-1 3,-2 1,1 1,4 1,5 1,1 1,3 1,4 1,2 1,4 1,5 1,1 1,4 1,5 -1,-1 -1,0 -1,-1 -2,-3 -2,-3 -6,-3 -2,0 -4,0 -4,2 1,2 2,3 2,4 -2,0 -4,-1 -4,-1 -1,0 -1,0 -1,1 -1,-1 -1,-3 -2,-3 -1,-1 -3,0 -4,0 0,1 0,2 -1,2 0,1 0,1 0,2 0,0 -1,0 -2,0 -1,0 0,0 -1,-1 -1,1 -1,1 -2,1 -1,0 -1,0 -2,0 -1,0 -2,0 -2,0 -2,0 -1,0 -3,0 0,0 -1,1 -2,1 1,-2 5,-4 6,-6 -2,0 -5,4 -7,5 0,0 -1,1 -2,1 -1,0 -5,-1 -7,0 0,1 1,0 1,1l0 1c-1,0 -1,-1 -1,-1l-1 0c-1,0 -2,-1 -2,0 0,1 2,2 3,2 1,1 2,1 4,2 0,0 1,0 1,0 2,1 1,1 2,1 1,0 2,0 3,1 1,0 1,0 1,1 1,0 1,-1 1,0 1,0 2,1 4,1 1,1 1,1 2,1 3,2 8,4 12,5 1,1 3,1 5,2 3,2 6,2 10,4 5,1 10,3 15,5 5,1 15,4 20,7 2,0 3,1 5,1 1,1 5,1 6,2 0,0 0,0 0,0 0,2 3,0 3,2 -1,0 0,0 -1,0 0,-1 0,-1 -1,0 0,0 0,1 0,1 0,1 -1,2 -2,1 0,0 0,-1 0,-1 0,-2 1,-2 0,-2 0,-1 -3,0 -4,0 -1,0 -3,-1 -4,-1 -1,0 -3,0 -4,0 -2,0 -3,-1 -5,-1 -3,0 -6,-1 -9,-2 -2,0 -6,-1 -9,-1 -1,0 -2,0 -4,0 -3,-1 -6,-1 -9,-2 -1,0 -1,-1 -2,-1 -1,0 -1,0 -2,-1 -3,0 -11,-4 -14,-6 -4,-2 -11,-4 -14,-7 0,0 -1,0 -1,-1 -1,0 -1,0 -2,-1 -1,0 0,1 -2,0l-17 -11c-1,0 -2,0 -3,-1l-7 -4c-1,-1 -3,-2 -4,-3l-2 -1c1,0 2,-1 3,-1 0,0 2,1 3,1 2,0 3,1 5,2 3,1 8,5 10,5 1,-2 -3,-3 -5,-4 -1,-1 -2,-1 -3,-2l-8 -3c-1,0 -2,0 -3,0l-5 2c0,0 -1,1 -1,2 2,0 1,-2 4,-1 1,1 2,1 3,2 1,0 4,3 5,4 -2,-1 -5,-3 -6,-3 0,1 0,1 1,1l9 6c3,1 3,1 6,3 2,0 5,1 5,3 0,2 0,2 0,4 0,2 0,4 0,5 0,0 0,0 1,0 0,-2 0,-4 1,-6 0,0 1,2 1,2 1,2 4,6 5,6 0,-1 -4,-7 -5,-8 -1,0 -2,-1 -1,-2 0,-1 0,-1 0,-1 0,0 4,2 5,3 1,0 1,1 2,1 2,2 4,1 6,5l3 3c0,0 0,0 1,0 0,-1 -1,0 -2,-2 0,0 -1,-1 -1,-1 2,0 5,3 6,3 4,2 7,4 10,5 2,2 5,7 7,8 0,-1 0,-2 -1,-2 -1,-1 -2,-2 -2,-3 -1,0 -1,-1 -1,-1 1,0 4,2 5,2 1,1 3,1 4,2 0,0 1,0 1,0 1,-1 0,-2 2,-2 -1,1 -1,1 -1,1l0 1c1,1 2,-1 4,1l3 3c0,1 0,2 1,2 0,-1 -2,-3 -3,-4 0,-1 0,-1 0,-2 2,1 3,1 5,2 2,0 4,1 6,1 3,0 7,0 11,1 5,1 5,2 11,1 1,0 3,1 5,1l4 0c1,0 1,0 1,1 0,1 0,1 0,1 0,1 0,1 0,2 -1,4 -2,7 -2,11 -1,4 -2,9 -3,14 -1,3 -2,5 -2,7 0,1 0,2 0,3 -1,1 -1,2 -1,3 0,1 0,2 0,2 -1,1 -1,1 -1,2 -1,3 -2,7 -2,11 0,0 0,1 0,1 0,2 -1,4 -2,5 0,2 -1,5 -2,7 0,2 1,2 -1,7 -1,4 -2,17 -3,21 -1,5 -2,10 -2,15 -1,2 -1,4 -2,7 0,1 -1,1 0,3 0,0 -1,3 -1,3 0,1 -1,2 -1,3 0,2 0,2 1,3 2,1 4,0 5,0 2,0 4,-1 6,-1 4,-1 4,0 6,-1 6,0 10,-4 15,-5 3,-1 2,0 6,-1 5,-1 17,-4 21,-6 2,-1 4,-2 5,-2 1,-1 2,-1 2,-2 1,0 2,-1 1,-2l0 0c1,-2 1,-4 1,-5 1,-1 1,-2 1,-3 1,0 1,-1 1,-1l1 -2c0,-1 0,-1 0,-1 0,-1 1,-2 1,-3l3 -10c0,-3 3,-7 3,-10 1,-1 2,-3 2,-4 1,-2 1,-3 2,-5 1,-1 1,-3 2,-5l3 -9c2,-3 3,-6 4,-10 1,-1 1,-3 2,-5 0,-1 2,-4 1,-5 -1,0 -1,1 -1,2 0,1 0,1 -1,2 0,1 0,4 -2,4 -1,1 -4,3 -5,4 -1,1 -5,4 -5,5 1,-1 2,-2 3,-2l2 -2c0,0 1,-1 1,-1 2,-1 3,-2 5,-2 -1,2 -2,4 -3,6 -1,2 -2,4 -3,6 0,1 0,1 0,1l-1 1c-1,1 -2,1 -3,2 0,0 -4,2 -4,3 2,0 5,-4 7,-4 -1,3 -1,5 -2,7l-2 4c-1,1 -1,1 -1,1 -1,0 -2,1 -2,1 -1,1 -5,5 -6,5 1,0 2,-1 3,-1 1,-1 4,-4 5,-4 0,1 -4,11 -6,16 0,1 -1,3 -1,4 0,2 -2,8 -3,8 -1,1 -2,2 -2,3 1,0 1,-1 2,-1 0,2 -1,3 -2,5 0,1 0,3 -1,5 -1,0 -2,1 -4,1 0,-1 0,-3 1,-3 0,-2 0,-2 1,-3 0,-1 3,-3 3,-4 -2,1 -3,3 -4,4 -2,1 -1,1 -1,3 -1,1 -1,2 -1,3 -1,0 -4,1 -4,1 0,-1 0,-7 1,-8 0,-2 1,-7 1,-9 -1,1 -1,7 -2,9 0,1 0,2 -1,4 0,1 0,3 0,4 -1,1 -5,2 -6,2 0,0 -1,1 -2,1 0,-2 3,-10 3,-13 0,0 -1,2 -1,3 0,2 -2,6 -2,8 -1,1 0,1 -1,2 -1,1 -7,2 -8,2 0,-2 0,-2 1,-3l7 -6c0,0 1,-1 1,-1 -1,0 -2,1 -2,1l-5 4c-1,1 -1,2 -1,1l2 -9c0,-1 0,-1 0,-2 0,-1 0,-1 0,-1 -2,2 -2,12 -4,14l-4 3c-1,1 -1,1 -2,1 -1,1 -1,1 -2,1 0,0 -1,0 -1,1 -2,0 -7,1 -8,1 0,0 6,-6 7,-6 0,1 -1,3 0,3 1,0 1,-2 1,-3 0,-2 3,-4 4,-5 1,0 2,-1 2,-2 -1,0 -1,0 -1,1 -1,1 -3,2 -4,3 0,-1 1,-5 1,-5 -1,0 -1,3 -2,4 0,2 -1,2 -2,3 0,1 -5,5 -6,5 0,-2 1,-4 1,-6 0,-1 0,-1 1,-2 0,-1 0,-2 0,-2 0,0 0,-1 0,-1 0,0 0,0 0,0 -1,1 -1,2 -2,3 -1,1 -1,1 0,1 0,0 1,-1 1,-1 0,1 -2,10 -3,11 0,0 0,0 0,0l-3 0c-2,1 -8,3 -10,3 -1,-2 1,-2 2,-3 0,-1 2,-2 3,-2 0,1 -1,2 0,2 1,0 1,-2 1,-3l4 -3c1,-1 3,-2 3,-3 1,-2 -5,4 -6,4 0,-1 2,-6 1,-7 0,1 0,0 0,1l-1 3c-1,1 -1,3 -2,4 0,0 -4,4 -5,4 0,-1 0,-3 1,-4 0,-2 0,-1 -1,-1l-1 6c-1,0 -1,1 -2,1 0,1 0,1 0,1 0,1 -1,1 -2,1 0,-2 0,-3 1,-5 0,-3 0,-3 2,-4 1,-1 2,-2 3,-3l3 -2c1,-1 2,-2 3,-3 1,-2 2,-1 2,-2 0,0 1,0 1,-1 1,-1 5,-4 6,-5 -1,0 -1,0 -2,1l-3 3c-1,0 -2,1 -3,2 -3,2 -6,5 -10,8 0,0 0,0 0,0 -1,1 -1,1 -1,1 -1,0 1,-8 1,-9l3 -3c1,0 1,0 1,-1 1,0 1,0 1,0 1,-1 1,-1 2,-2 2,-1 4,-2 6,-3 0,-1 1,-1 2,-2l5 -3c1,-1 3,-2 3,-3 0,0 -5,3 -5,3l-12 8c-1,1 -4,3 -5,4 0,0 0,0 -1,0 1,-2 1,-4 1,-6 1,-2 0,-3 3,-5 0,0 0,0 1,-1 0,0 1,0 1,-1 1,-1 4,-3 6,-4 2,-2 6,-5 9,-7 0,0 1,0 1,-1 -1,0 -2,1 -2,1 -2,1 -3,3 -5,3 0,1 0,1 0,1l-10 7c-1,0 -2,2 -3,2 0,-2 1,-4 1,-6 1,-2 3,-4 5,-6 0,0 0,0 0,0 1,0 1,0 1,-1l13 -10c0,0 1,-1 1,-1 -1,0 -6,4 -7,5l-8 6c0,0 0,0 -1,0l-2 3c-1,0 0,0 -1,0l1 -5c0,-2 0,-4 1,-5 1,-1 1,-1 2,-1 0,-1 0,-1 1,-1 0,-1 3,-3 3,-4 2,-1 4,-2 5,-4l3 -2c1,-1 3,-3 4,-3 0,-1 1,0 1,-2 -1,1 0,1 -3,2 -1,1 -2,2 -3,3l-6 5c-2,1 -3,3 -5,4 0,0 -1,1 -1,1 -1,0 -1,1 -1,1 0,-2 1,-4 1,-6 0,-1 0,-2 0,-3 1,-2 8,-7 10,-9l2 -2c1,0 1,0 1,0l7 -6c1,-1 4,-3 4,-4 -1,0 -4,3 -5,4 -2,2 -4,4 -7,5 -2,2 -4,5 -7,6l-3 3c0,0 -1,1 -1,1 0,-1 1,-4 1,-5 0,-1 1,-2 1,-2 0,-1 0,-2 0,-3l0 0c1,0 1,-1 2,-1 0,-1 1,-1 1,-2 2,-2 7,-6 9,-8 0,0 1,-1 1,-1l5 -4c2,-2 4,-3 6,-5 1,-1 3,-2 3,-3 0,0 0,0 -1,0l-2 2c-1,1 -3,2 -4,3 -2,2 -6,5 -8,8l-9 7c-1,1 -2,2 -3,3 0,-1 1,-5 1,-6 1,-1 1,-4 2,-4 0,-1 0,-1 1,-1 0,-1 -1,0 -1,-2 0,0 0,-1 1,-1 0,-1 0,-4 1,-4 1,-2 2,-3 4,-5l4 -4c1,-1 5,-4 5,-5 -1,0 -3,2 -4,3l-3 3c0,1 -1,1 -1,2 -2,1 -4,4 -5,4 0,-2 1,-5 2,-7 0,-2 1,-3 3,-4 0,-1 1,-2 2,-2 0,-1 1,-1 1,-2 1,-1 2,-2 3,-3 1,0 1,0 1,0 0,1 -1,3 0,3 1,0 0,-3 2,-5 1,-1 3,-3 4,-3 0,2 -2,9 -1,9 0,-1 0,-1 1,-2 0,-1 0,0 0,-2 0,-2 1,-4 1,-6 1,0 1,1 1,1 2,1 3,1 2,4 0,1 -1,6 -1,7 1,-1 1,-1 1,-2 0,-1 0,-1 1,-2 0,-1 0,-3 1,-4 0,1 2,2 2,3 0,2 -2,12 -2,13 -1,0 -1,0 -1,0 1,0 0,0 1,0 0,0 1,0 1,-1 0,-2 1,-10 2,-11l1 1c1,-1 0,-1 1,-1 0,1 0,1 0,1 2,1 1,0 1,5 0,1 0,1 0,2 0,0 0,1 0,1l0 1c0,-1 0,-3 1,-4 1,-4 0,-4 4,-3 2,1 2,1 1,3l-1 6c0,0 0,0 0,1 0,0 0,0 1,0 0,0 1,-7 2,-8 1,0 4,1 5,2 0,0 0,0 0,1 1,1 -1,5 -1,6 0,1 0,1 0,1l0 0c1,-1 2,-6 2,-7 1,0 2,0 2,1 3,2 3,-1 1,-2 0,0 -1,0 -1,-1 -1,0 -1,0 -1,-1 -1,0 -1,0 -2,0 -2,0 -5,-3 -6,-4 -1,0 -2,-1 -3,-1l-4 -2c0,-1 0,0 -1,0 -1,-1 -3,-2 -3,-3 -2,-1 -4,-3 -5,-5 -1,-1 -2,-1 -3,-3 -1,0 -1,-1 -2,-1 -1,-2 -3,-4 -5,-5l0 -1c0,0 0,0 0,0l1 0c1,0 1,0 1,0l7 -1c3,0 5,0 9,0 2,0 4,-1 6,-1 2,0 1,-1 4,-1 1,0 3,-1 4,-1 1,0 0,1 1,1l1 -1c1,0 3,0 4,-1 2,0 3,0 5,0 0,0 1,0 2,0 1,0 1,0 2,-1l3 0c1,0 1,0 1,0 0,-1 0,0 0,-1l-1 0c1,-1 3,-3 3,-5 0,0 -2,2 -2,2 -1,2 -2,2 -3,3l0 1c0,0 -1,0 -1,0 0,-1 1,-2 1,-2 1,-1 1,-2 2,-2 0,-1 2,-3 2,-4 0,0 1,-1 0,0l-3 3c-2,2 -2,4 -4,4 1,-2 7,-7 7,-9 -1,0 -1,0 -1,1l-3 3c-1,1 -3,4 -4,4 1,-1 2,-2 3,-3l5 -7c0,0 0,-1 1,-1 0,-1 1,-2 0,-2 0,0 -1,1 -1,1 -1,2 -8,12 -9,12 0,0 0,-1 1,-2 1,-1 8,-9 7,-10 -1,0 -1,2 -2,2 -1,1 -6,8 -6,8 -1,-1 0,-2 1,-3 0,-1 1,-2 2,-3 1,-1 4,-4 4,-5 -1,0 -3,3 -4,4 -1,1 -3,4 -3,4 -1,0 0,0 -1,-1 0,-1 0,-1 0,-2 0,-2 5,-6 5,-7 -1,-1 -1,0 -2,1l-2 3c0,0 0,0 0,0 0,1 -1,1 -1,1 0,0 0,0 0,0 0,-1 0,-2 0,-3 0,0 1,0 1,0 0,-1 0,-1 1,-2 0,-1 1,-2 1,-2 1,-1 5,1 6,2l-1 2c1,-1 1,-2 2,-2 1,0 3,1 4,1 1,1 3,1 4,2 0,0 -3,4 -4,6 0,1 -1,2 -1,3 -1,0 -2,2 -2,3 0,0 1,1 2,1 0,0 1,-2 1,-3 -1,0 -1,1 -1,1 -1,0 -1,0 0,-1l2 -3c1,0 1,0 2,-1 1,2 0,1 3,1 0,1 -1,1 -1,2 1,0 1,0 1,0 1,0 1,0 2,0 0,-1 0,-1 -1,-1 0,0 0,0 1,0l1 0c4,1 0,2 2,4 0,0 0,1 1,0 0,0 1,-3 1,-3 -1,-2 -6,-3 -8,-4 0,0 0,0 0,0l0 -1c0,0 0,-1 1,-1 0,0 4,-2 4,0 0,1 -1,2 0,3 1,1 3,-1 3,-1 1,0 1,0 1,0 0,0 0,0 1,0 1,2 0,2 1,4 1,0 1,-1 3,-1 1,2 -1,2 0,4 1,0 2,-3 1,-4 0,-2 -3,-1 -3,-1 0,-1 -1,-1 -1,-2 0,-2 -2,-1 -3,-3 -1,-1 -1,-2 -1,-3 -1,-1 -1,-3 -2,-3 0,2 3,6 2,7 0,0 0,0 -1,0 0,-1 -1,-2 -1,-2 -2,-1 -2,0 -3,0 -1,-1 1,-1 -1,-3 0,-1 -1,-5 -2,-6 0,2 2,6 2,7 -1,0 -4,-1 -5,-2 -2,0 -4,-2 -6,-2 -2,0 -3,-2 -5,-2 -3,0 -2,2 -4,3 -1,0 -4,-2 -4,-3 -3,-2 -3,-1 -2,-4 2,-5 0,-5 -2,-5 -1,-1 -3,-2 -5,-3 0,0 -1,-1 -2,-1 -2,-2 -5,-4 -6,-6 -1,-2 -7,-4 -8,-2 -1,0 -1,1 -1,2 -1,-1 -1,-1 -2,-2 0,1 1,3 1,4 1,0 2,2 3,2 1,1 2,2 2,3 2,2 1,5 0,7 -1,2 -1,2 -2,4 -1,0 -2,1 -2,2 -2,2 -4,2 -2,3 1,2 2,5 0,6 -1,0 -1,-2 -1,-2 0,-1 1,-2 1,-3 -1,0 -1,1 -2,1 -1,0 0,-1 0,-2 0,0 2,-2 2,-2 -1,0 -2,1 -2,1l-1 0c-1,1 0,1 -1,2 0,1 -1,1 -1,1 -1,0 -1,-2 -1,-3 1,0 2,-1 2,-2 2,-1 4,0 5,-1 0,-1 0,-1 0,-2 -1,0 -4,1 -5,1 -1,1 -1,1 -2,1l-6 4c0,0 -3,2 -3,2 -1,0 -2,-2 -2,-2 -1,-1 -2,-9 -1,-10 1,0 1,1 1,2l0 4c0,1 0,2 1,2 0,0 0,0 0,0l0 -2c0,0 0,-1 0,-1 0,-1 2,-1 2,-1 1,0 1,1 0,2 0,0 -1,1 -1,1 1,1 2,0 3,-1 1,0 1,0 2,-1l3 -1c1,0 1,-1 2,-2 1,1 0,1 1,1 1,0 2,-2 2,-3 1,0 1,1 1,1 0,1 -2,3 -1,3 1,0 1,0 1,-1 0,0 0,0 1,-1 0,1 0,1 1,1 1,1 1,1 2,0 0,0 0,0 0,-1l0 0c0,-1 0,-3 0,-4 1,0 1,-1 1,-2 0,0 0,0 -1,-1 -1,1 -1,2 -1,3 0,2 -1,2 -2,2 -1,0 -1,-1 -1,-1 0,-2 2,-4 2,-6 -1,0 -1,0 -2,0 -1,2 -1,3 -2,4 0,0 0,0 0,-1l-1 0c0,-1 1,-2 1,-2 1,-1 1,-2 2,-2 0,-1 0,-1 0,-1 -1,0 -1,1 -2,1 1,-1 1,-1 1,-2 -1,0 0,0 -1,0 -1,1 -1,2 -2,3 0,0 -1,1 -2,1 -2,-1 0,-3 0,-5 0,0 0,0 0,-1 0,0 0,0 0,0l-1 0c0,1 0,4 -1,5 -1,1 -1,1 -2,2 -1,1 -6,3 -8,4 -1,1 -2,1 -3,1 1,-1 2,-3 2,-4l-1 -3c-1,0 0,0 -1,0l0 1c0,0 0,0 -1,-1 1,0 1,0 1,-1 -1,0 0,0 -1,1 -1,0 -2,-1 -3,-1 0,-1 -2,-1 -2,-1 0,-1 0,-2 1,-2 3,0 3,1 5,2 1,0 1,-1 0,-1 -1,-1 -2,-2 -2,-2 -1,0 -1,0 -2,0 0,-1 0,-1 1,-1 1,0 4,2 4,3 1,1 0,3 1,5 0,0 0,1 0,1 1,-1 0,-2 0,-2 1,-1 2,-1 2,-2l2 -1c1,0 4,-2 5,-3 0,0 1,0 1,0 2,-1 3,-1 4,-1 0,-1 0,-1 1,-1 1,0 2,0 2,0 1,1 2,1 2,1 1,1 1,2 2,2 0,-1 -1,-1 -1,-2l-1 -2 0 1c-1,0 -1,0 -2,-1 0,0 -1,0 -1,0 -1,0 -2,0 -2,0 -1,0 -1,0 -1,0 -1,0 -1,-1 -1,-1 0,-2 -2,-6 -2,-7 0,-2 1,-2 1,-3 -1,-1 -1,0 -2,1 0,1 -3,5 -3,6 0,0 0,0 0,0 1,0 1,0 1,-1 1,1 1,3 2,3 0,-1 -2,-5 0,-5 0,1 3,6 3,7 -1,1 -1,1 -2,1 0,0 0,0 0,-1 -1,-1 -1,-1 -2,-2 -1,0 -3,-2 -4,-2 -2,0 -2,0 -4,1 -1,0 -4,0 -4,0 -1,-1 -1,-2 -1,-3 -1,-1 -1,-2 -1,-3 -1,-3 -1,-5 -2,-7 0,-2 -1,-4 -2,-6 0,-2 0,-3 -1,-4 0,-2 0,-1 0,-3 -1,-1 -1,0 -1,-2 0,0 0,-1 0,-2 0,-1 0,-1 -1,-2 -1,-3 -3,-2 -6,-4 -1,0 -3,-2 -4,-2 -1,1 4,3 4,4 6,3 5,2 3,4 0,1 -3,4 -3,5 1,0 4,-4 5,-4 0,0 1,2 1,3 0,1 -1,2 -2,2 -1,1 -2,3 -3,4 0,0 -1,0 -1,1 1,0 1,0 1,-1 2,-1 3,-2 5,-4 0,0 0,0 0,0 1,0 2,4 2,4 0,1 -9,10 -9,11 0,0 1,0 1,-1 1,-1 2,-2 4,-3 0,-1 3,-5 4,-5 1,1 1,3 1,4 1,1 0,1 0,1 -2,2 -5,6 -6,7 1,0 1,0 1,0 1,-1 5,-6 6,-6 1,1 1,2 0,3 0,1 -1,2 -1,3 -1,1 -3,4 -3,5 1,-1 4,-6 5,-6 1,0 1,3 -1,4 -2,3 -2,5 -5,3l1 -1c-2,0 -1,1 -3,1 -1,0 -2,0 -3,0 -2,0 -2,0 -4,0 -1,0 0,0 -1,-1 -1,0 -1,1 -1,1 -1,-1 0,-2 0,-3 0,0 0,-1 0,-2 0,-2 0,-3 0,-5 1,-3 1,-6 1,-10 0,-3 0,-7 0,-10 0,-1 0,-3 0,-4 0,-2 1,-4 1,-5 0,-2 0,-3 0,-5 0,-5 1,-11 1,-15 0,-2 0,-8 1,-10 0,-2 0,-4 0,-5 1,-5 1,-10 1,-15 1,-2 1,-4 1,-5 0,-2 0,-3 0,-5 1,-4 1,-7 1,-11 1,-3 1,-6 1,-10 0,-1 0,-3 0,-5 1,-1 0,-3 1,-4 0,-4 0,-7 0,-10 1,-3 1,-8 1,-10 0,-3 1,-3 -1,-4 -1,-1 -3,-2 -4,-2 -1,1 -2,2 -2,2 -1,1 -2,1 -3,2 0,2 1,7 0,9 0,1 0,1 0,2 0,1 0,3 0,4 -1,7 -1,14 -1,22 0,2 -1,5 -1,7 0,3 0,5 0,7 0,2 0,5 0,7 0,2 0,5 0,7l-1 8c0,4 0,11 0,14 -1,3 -1,6 -1,8 0,1 0,2 0,4 0,1 0,9 -1,10 0,0 0,0 -1,-1 0,0 -1,0 -1,0 -1,-1 -2,-1 -3,-1 -1,-1 -3,-2 -4,-3 -2,-1 -3,-2 -5,-3 0,-1 -3,-3 -4,-3 -1,1 4,4 4,4l5 4c0,0 -1,1 -1,1 -1,1 -1,1 -2,1 -1,1 -2,2 -2,4 0,0 0,0 1,-1l4 -4c1,-1 1,-1 2,0 2,1 4,2 5,3 0,1 -5,5 -6,6 -1,0 -2,1 -2,2 0,0 2,-1 2,-2l3 -2c1,-1 4,-3 5,-3 0,0 0,4 0,5zm126 11c0,0 0,0 0,1 -1,-1 -1,-1 -1,-2 1,0 1,0 1,1zm-24 -16c0,2 1,2 -1,4 -1,1 -2,2 -4,2 -3,0 -5,-1 -8,-3 -1,0 -8,-2 -8,-2 -1,0 -3,1 -4,1 0,1 -1,1 -1,1 -1,1 -1,1 -2,1l-3 2c-1,1 -1,1 -3,2 -1,0 -1,1 -3,2 -1,0 -2,1 -3,1 -2,1 -4,3 -6,4 -2,1 -4,2 -6,3l-1 0c-3,3 -5,8 -7,12 -1,1 -1,2 0,4 0,1 0,1 1,2 0,1 1,5 2,5 1,0 0,-3 -1,-3 0,-1 0,-3 -1,-4 -1,-4 -1,-3 1,-6 0,0 0,0 1,-1 0,1 1,4 1,5 1,1 1,2 1,3 0,0 1,0 1,1 0,0 0,1 1,1 0,-1 -2,-7 -3,-8 -1,-4 0,-4 2,-7 0,0 0,-1 1,-1 1,1 2,5 3,7 0,0 0,1 0,2 0,1 1,2 1,3 1,0 1,0 1,1 0,0 0,0 0,0 0,0 0,0 0,0 0,1 0,0 0,1 0,-1 0,-2 0,-2 0,-1 -2,-5 -2,-6 0,-1 -2,-7 -2,-7 1,-1 3,-3 4,-3 1,1 1,5 2,6l2 5c0,1 0,1 0,1 0,-1 -1,-4 -1,-5 -1,-1 -1,-3 -1,-5 -1,-4 -1,-2 4,-5 0,0 1,-1 1,-1 1,1 3,6 3,7 1,1 1,2 2,3 0,-2 -4,-9 -4,-10 1,-1 2,-1 3,-2 1,0 2,-1 3,-1 0,0 1,2 1,2l2 5c0,1 1,2 1,2 0,-1 -1,-5 -2,-6 -1,-3 -2,-4 1,-5l2 -2c1,0 2,-1 2,-1 2,1 5,10 6,11 0,-1 -1,-2 -1,-3 -1,-1 -1,-2 -1,-3 -3,-6 -3,-6 0,-7 2,-1 2,-1 5,0 2,0 1,1 2,2 1,2 3,7 4,8 0,-1 -1,-4 -2,-5 0,0 -1,-3 -1,-4 0,0 3,1 4,2 5,2 4,1 7,7 2,4 3,8 5,12 0,0 0,0 0,0 0,1 0,1 1,1 0,-2 -8,-16 -7,-19 3,-1 2,1 5,-2 1,-1 0,-1 1,-1 0,1 4,9 4,10 0,-1 -1,-5 -2,-7 0,-1 -1,-1 -1,-2 -1,-2 0,-3 1,-5 1,-2 1,-4 2,-5 1,1 3,8 4,8 0,-1 -3,-7 -3,-9 0,-2 6,-7 6,-7 1,1 2,5 2,5 1,-1 -1,-5 0,-6 0,-1 4,-3 5,-2 1,2 2,5 3,8 0,0 1,2 1,2 0,-1 -1,-6 -2,-7 0,-1 -1,-2 -1,-3 3,0 6,2 8,3 5,2 0,8 -2,12 0,1 -1,2 -2,3 0,0 0,1 -1,1l0 1c-1,1 -8,-3 -10,-2 -1,0 -1,1 -1,1 0,1 0,1 0,1 -1,1 -1,2 -2,3 0,1 -2,4 -2,5l7 1c0,2 0,2 0,3 1,2 1,3 2,5 0,0 1,1 1,2 0,-1 -1,-4 -1,-5 -1,-1 -1,-3 -1,-4 1,0 4,0 5,1 2,1 0,2 1,3l0 -2c1,0 2,1 2,2 0,-1 0,-1 0,-1 0,-1 0,-1 0,-1 1,0 2,0 2,1 0,0 1,1 1,1 0,-1 -1,-1 -1,-2 1,0 1,0 1,1l1 -1c0,1 1,1 1,1 2,0 5,2 6,0 -1,-1 -1,-1 -3,-1 0,0 -2,0 -2,-1 -1,0 -2,0 -3,0 -3,-1 -7,-2 -9,-3 -2,0 -5,0 -6,-1 0,0 1,-5 2,-6 0,0 0,-1 1,-1 1,0 5,1 6,2 3,1 2,1 4,-2 1,-1 2,-2 3,-3 1,-3 3,-5 4,-7 0,-2 0,-3 0,-5 0,0 0,0 0,-1 -2,-2 -3,-2 -5,-4 -2,0 -3,-1 -5,-1 -2,-1 -2,-1 -4,-1 -2,0 -5,2 -7,3 -2,3 -5,4 -7,9 0,1 -1,2 -2,3 -1,4 0,2 -2,3zm-22 119c1,0 2,0 3,0 1,-1 2,-1 2,-1 2,-1 5,-2 6,-1 -1,1 -6,2 -8,2 -1,0 -2,1 -3,0zm18 -3c1,-1 1,-1 2,-1 1,0 2,-1 2,-1l-1 1c-1,0 -2,1 -3,1zm5 -2c0,0 3,-1 4,-1 0,1 -1,1 -2,1 -1,0 -2,0 -2,0zm6 -1c0,-1 0,0 1,0 0,-1 1,-1 1,-1 0,1 -2,1 -2,1zm5 -1c1,-1 2,-1 2,-1 4,-1 3,-1 5,-1 0,0 1,-1 2,-1 -1,1 -3,2 -4,2 -1,0 -2,0 -3,1 0,0 0,0 -1,0 0,0 0,0 0,0 -1,0 -1,0 -1,0zm7 -33c0,-1 2,-3 2,-3 0,1 -1,2 -2,3zm10 -14c0,0 0,0 0,0l1 -1c0,1 0,1 -1,1zm3 -5c1,0 1,-1 2,-2 0,0 1,-1 1,-2 1,-1 1,-1 1,-2 2,-1 3,-4 5,-6 0,-1 1,-2 2,-3 0,-1 0,-1 0,-1 1,1 -4,7 -5,9 0,1 -5,7 -6,7zm12 -18c0,-1 0,-1 0,-1l-3 -7c-2,-4 -2,-4 -3,-8 -1,-1 -1,-4 -2,-4 -1,1 0,2 0,3 1,1 1,2 1,3 1,1 1,1 1,2 1,2 3,8 4,11 1,1 1,1 0,3 -1,1 -1,2 -2,3 -1,-1 -1,-5 -2,-6 0,1 1,4 1,5 1,3 1,1 -1,4 -1,1 -2,3 -2,4 -1,0 -1,1 -2,2 0,0 -1,1 -1,2 -2,2 -4,5 -5,7 -1,2 -5,6 -6,7 -1,-1 -2,-9 -4,-9 0,0 1,4 2,4 0,2 0,3 1,5 0,1 0,2 0,2 -2,2 -3,5 -5,6 -1,0 -2,-5 -2,-7 0,0 -1,-2 -1,-2 0,1 1,8 2,9 0,1 1,1 1,1 0,1 1,1 1,1 1,2 5,4 7,5 2,1 6,5 6,5l1 0c0,2 0,1 1,3 0,3 0,4 1,7 0,2 2,3 -1,4 -1,0 -2,0 -2,0 -4,1 -9,2 -13,3 -1,0 -2,1 -4,1 -1,0 -2,1 -4,1 -1,0 -2,1 -4,1 -2,1 -5,1 -8,2 -3,1 -5,1 -8,1 -3,1 -6,2 -8,2 -3,1 -5,1 -5,4 1,1 0,1 0,2 0,1 -1,4 -1,5 0,0 1,-1 1,-1 1,-4 0,-6 5,-7 1,0 1,0 2,0 1,0 1,0 1,0 0,0 -3,9 -2,11 0,0 0,0 0,-1l2 -4c1,-6 1,-3 1,-6 1,-1 1,-1 2,-1 1,0 1,0 2,-1 1,0 4,-1 5,-1 0,2 -1,3 -1,5 0,-1 0,0 0,-1 1,0 1,-2 1,-2 1,-2 1,-2 3,-2 1,0 3,-1 4,-2 1,0 1,0 1,0 2,1 -1,3 -1,3 -1,1 -4,2 -4,3 0,0 1,-1 2,-1l4 -3c2,-2 0,-2 1,-2l0 2c0,2 -1,5 -1,7l1 -1c0,-1 1,-5 2,-8 0,-1 5,-2 6,-2 3,0 6,-1 9,-2 1,-1 1,-1 2,-1 2,0 5,-1 7,-1 1,0 2,-1 2,-1 1,0 2,0 2,-1l0 -1c1,0 1,0 2,-1 -1,-1 -1,0 -2,-3l-1 -5c0,0 0,0 0,-1 0,-2 0,-4 -2,-5 -2,-2 -3,-2 -4,-4 -2,-1 -4,-2 -5,-3 -1,0 -3,-2 -3,-2 0,-1 4,-7 5,-8 1,-2 3,-4 5,-7 0,0 1,-1 1,-2 1,0 1,-1 1,-2l3 -3c1,-1 1,-1 3,-3 1,-2 2,-3 2,-4 1,-1 2,-3 3,-4 1,-1 2,-2 2,-4 2,-2 1,-1 0,-2 0,-1 0,-1 0,-1zm-202 65c-1,-1 -1,-1 -2,-2 0,-1 0,-1 -1,-2 -2,-2 -2,-6 -2,-9 0,-4 1,-4 -1,-5 0,3 0,7 0,10l-1 9 -1 0c0,1 1,1 1,2 0,0 0,6 0,6 -2,1 -1,1 0,2 0,1 -1,2 -1,3 0,1 0,2 0,3 0,3 0,5 0,7 -1,1 -1,2 -1,3 0,1 0,1 0,2 0,0 0,0 0,1 0,0 0,2 0,3 0,1 0,5 0,6 0,0 -1,0 -1,1 0,0 0,1 1,1 0,1 -1,2 -1,3 0,1 0,1 0,2 0,1 0,1 0,1 0,1 0,1 0,2 0,1 0,3 0,4 0,1 0,3 0,3 -1,1 -1,0 -1,1 0,1 0,1 0,1 1,1 0,6 0,7 0,1 0,3 0,4 0,1 -1,2 -1,3 0,0 1,1 2,1 0,0 0,-4 0,-6 1,1 1,1 2,2l2 2c0,1 1,1 1,2 0,-1 -2,-4 -3,-6 -1,-1 -1,-1 -2,-2 0,0 1,-5 1,-5 1,0 3,4 4,5 1,0 2,1 2,2 1,0 2,2 2,2 0,0 -1,-3 -2,-3l-5 -7c-1,-1 -1,-2 -1,-3 0,-2 0,-4 0,-6 1,0 3,4 4,4 1,-1 -2,-4 -3,-5 -1,-1 -1,-1 -1,-3 0,-1 0,-3 1,-4 0,0 1,1 1,2 1,0 1,1 2,1 1,1 2,3 3,4 0,-1 -2,-3 -3,-4l-1 -2c0,0 0,0 -1,-1 0,0 0,0 0,0 -2,-2 -1,-3 -1,-5 0,-1 0,-5 0,-6 1,0 5,5 6,6 0,0 0,1 1,1l0 -1 0 0c-1,-1 -4,-4 -4,-5 -1,-1 -3,-3 -3,-5 0,-2 1,-4 1,-6 1,0 2,3 4,3 0,-1 -1,-1 -1,-1 -3,-4 -3,-3 -3,-7 0,-1 0,-3 1,-4 0,0 2,2 3,2 -1,-1 -3,-3 -3,-4 0,-1 0,-6 0,-6 1,0 2,1 2,2 1,0 1,1 2,1 0,0 -1,-1 -2,-2 -1,-3 -2,-3 -2,-5 0,-1 0,-4 1,-6 0,1 1,2 2,3 2,2 1,2 3,3zm-15 -108c0,0 4,-12 5,-13 0,-1 0,-2 1,-2 0,-1 0,-2 -1,-2 0,0 -1,1 -1,2l-3 9c-2,4 -3,8 -4,12l-2 4 1 4c0,2 -1,0 0,3 1,0 1,1 1,2 1,2 2,3 3,4 0,1 0,2 1,3 -1,0 -1,0 -1,1 1,0 1,0 1,1 0,0 1,1 1,1 0,1 0,2 1,3 0,1 0,2 0,3 1,3 1,1 1,3 1,0 1,1 1,2 0,0 1,1 1,2 0,0 0,1 1,2 0,1 0,1 0,2 1,1 1,1 1,2l2 5c1,3 2,3 4,0 1,-1 2,-1 3,-2l3 -3c1,-1 2,-1 2,-2 0,0 -2,1 -3,2 -1,1 -6,5 -7,6 -1,-1 -1,-2 -2,-3 -2,-6 -2,-5 0,-7 1,-1 2,-2 2,-2l4 -3c0,0 0,0 0,0 0,-1 1,-1 1,-1 0,0 0,0 0,0 1,-1 2,-1 2,-2 -1,0 -1,1 -2,1 0,1 -1,1 -1,1l-2 2c-1,1 -5,4 -6,4 -1,0 -3,-6 -3,-6 1,-1 3,-2 3,-3 1,0 1,0 1,0 1,-1 2,-2 2,-2 -1,0 -2,1 -3,2 0,0 -2,1 -3,1 0,0 -3,-7 -3,-9 0,-2 3,-3 4,-4 1,-1 2,-1 2,-2 0,0 -1,0 -1,1l-4 2c0,0 -1,1 -1,1 -1,0 -1,-1 -1,-2 -1,-1 -2,-3 -3,-4 0,-2 0,-2 -1,-3l0 -1c0,0 0,0 0,0l0 -2c0,-1 0,-2 0,-3 0,0 0,0 0,-1 0,0 0,0 0,-1 1,-1 2,-5 3,-6 1,-1 2,-1 3,-2 0,-1 2,-2 2,-3 -1,0 -4,3 -5,3zm15 185c-1,-1 -1,-1 -2,-1 -3,-1 -4,-3 -5,-2 -1,1 0,1 1,2 3,2 4,1 6,2 3,1 7,5 11,7 2,1 4,3 6,4 2,2 4,3 7,5l8 5c2,1 3,2 5,3 2,1 4,3 4,3 2,1 3,2 5,3 2,1 3,2 4,2l10 6c1,0 1,1 2,1 1,1 2,1 3,1 0,-2 -1,-2 -2,-2 -2,0 -7,-4 -10,-5 0,-1 -1,-1 -2,-1 -5,-3 -8,-6 -13,-9 -6,-3 -13,-7 -18,-11 -2,-1 -7,-4 -9,-6 -2,-1 -4,-3 -6,-4 -1,-1 -2,-1 -2,-2 -1,0 -2,-1 -3,-1zm25 -191c-1,1 -4,1 -5,1 -2,0 -3,0 -5,0 -1,0 -8,1 -9,0 0,0 0,-2 -1,-2 -1,-2 -2,-4 -2,-6 0,-1 0,-1 0,-2 -1,-1 0,0 0,-1 -1,-1 -2,-1 -3,-1 -1,0 -2,0 -3,0 0,0 -1,1 -2,0 -1,0 -3,0 -3,0 -1,2 2,2 3,2 3,-1 4,-1 6,-1 0,3 0,1 1,4 1,2 2,5 2,6 1,1 0,2 0,3 1,0 2,0 3,0l8 -1c1,0 2,0 3,0 1,1 1,0 2,0 2,0 2,0 3,0 2,0 2,0 3,1 1,-1 0,-2 0,-5 -1,0 -1,-4 -1,-5 1,0 2,0 3,0 1,0 3,0 3,-2 -1,0 -1,0 -2,0 -1,0 -2,1 -2,1 -2,0 -4,-1 -4,1 0,1 2,6 2,7zm105 67c1,-1 1,-1 1,-2 -1,0 -2,0 -4,0 -1,0 -10,-3 -10,-2 -1,0 2,1 2,1 2,1 2,1 4,1 3,1 3,1 7,2zm-44 73c0,0 1,0 1,-1l14 -11c1,-1 2,-2 2,-2 -1,0 -3,2 -5,3 0,0 0,0 0,0 0,1 0,1 -1,1 -1,0 -2,2 -3,2l-3 3c0,0 0,0 -1,1 0,0 0,0 0,0 -1,1 -4,3 -4,4 0,0 0,0 0,0zm32 -74c0,0 5,2 6,2 1,0 2,0 3,0 1,0 3,1 3,0 0,-1 -2,-1 -3,-1 -5,0 -9,-3 -9,-1zm66 6c2,0 1,-2 0,-3 0,-1 0,-1 0,-2 -1,0 -1,0 -1,-1 0,-1 -1,-2 -1,-3 -1,-1 -1,-1 -1,-2 0,-1 0,-1 -1,-1 0,0 3,9 4,10 0,1 0,2 0,2zm-90 19c0,0 0,0 1,-1 0,-1 1,-1 2,-1 2,0 1,3 2,4 1,-1 1,-5 -1,-6 -2,0 -5,2 -4,4zm-94 8c1,1 1,2 2,2 0,-1 -2,-3 -3,-4 -2,-2 -3,-2 -3,-4l-1 0c-1,1 0,2 0,2 0,1 1,1 2,1 0,1 0,1 1,1 0,1 1,2 2,2zm3 -8c-1,-1 -3,-3 -3,-4 -1,-2 -2,-5 -4,-4 0,0 0,1 0,1 1,1 6,7 7,7 0,0 0,0 0,0zm33 -28c1,0 0,-1 1,-2 2,1 4,4 4,2 0,0 0,-1 -1,-1 -1,-1 -2,-2 -3,-2 -1,0 -2,2 -1,3zm115 75c0,0 1,-1 1,-1 1,0 1,0 1,-1 1,0 2,-1 3,-1l2 -2c1,0 1,-1 2,-1 0,0 2,-1 0,-2 0,0 -1,1 -1,1 -1,2 -4,4 -6,5 -1,1 -2,1 -2,2zm-95 -126c-1,-1 0,-1 -1,-1 -1,2 1,0 -3,3 -1,1 -1,1 -2,2 0,0 -1,1 -1,2 1,0 3,-2 3,-3 1,0 1,-1 1,-1 1,-1 3,-1 3,-2zm-7 197c-1,-1 -3,-5 -4,-6 -1,0 -1,0 -1,0 0,1 0,1 1,1 0,1 0,1 0,1 2,2 2,3 3,4 1,1 1,2 2,2 0,-1 -1,-2 -1,-2zm29 -119c0,0 1,0 1,0 1,0 2,-2 3,-3 1,0 2,1 2,1 0,-1 -1,-3 -3,-2 0,1 -2,3 -3,4zm-47 -21c0,0 -1,0 -1,0 -4,-1 -1,-2 -3,-3 -1,0 -1,2 0,3 0,0 3,1 4,0zm57 16c2,0 2,-2 4,-1 1,0 1,2 2,2 0,-1 -1,-3 -2,-3 -1,-1 -4,1 -4,2zm15 81c1,-1 0,-1 1,-1 1,0 1,0 2,-1 1,-1 2,-1 3,-2 0,0 0,0 0,0l3 -2c0,0 1,0 1,-1 -1,0 -1,0 -2,1l-6 4c-1,0 -1,0 -1,1 -1,0 -1,0 -1,1zm-20 -75c0,1 0,1 1,1 1,1 1,1 2,1 1,0 2,0 3,-1 0,0 0,0 0,0 0,0 0,-1 0,-1 0,0 -1,0 -1,1 -3,1 -3,-2 -5,-1zm0 -9c-1,1 -2,2 -3,2 -1,0 -1,0 -2,-1 -2,-1 -1,2 2,2 0,0 1,0 1,-1 1,0 2,0 3,-1 0,0 0,-1 -1,-1zm56 1c1,0 1,-1 1,-1 1,0 1,-1 1,-1 1,-1 5,-5 4,-6 0,0 0,0 -1,1 -1,1 -4,6 -5,7zm-69 4c1,2 6,1 6,-1 -1,-1 -1,1 -3,1 -1,0 -3,0 -3,0zm-29 90c0,0 1,2 1,2 0,1 3,4 3,4 1,0 0,1 0,0 1,0 -1,-3 -1,-3 -1,-1 -1,-1 -2,-2 0,0 0,-1 -1,-1zm-8 -105c1,1 2,0 2,2 0,0 0,0 1,1 0,-1 0,-1 0,-2 0,-2 -4,-3 -3,-1zm152 -39c0,0 -1,-4 -2,-5 0,0 0,-1 -1,-2 0,0 0,-1 0,-1 -1,0 -1,-1 -1,-1 0,0 3,7 3,8 0,1 0,1 1,1zm-72 59c-1,0 -2,0 -3,0 -3,-1 -2,2 2,1 2,0 2,-1 1,-1zm-8 37c1,-1 1,-5 1,-5 1,-1 1,-1 1,-2 -1,0 -1,0 -1,1 -1,1 -1,1 -1,1 0,0 0,0 1,0 -1,1 -1,3 -1,4 0,0 0,1 0,1zm-11 43c0,0 2,-1 2,-1 1,-1 4,-3 4,-4 -1,0 -4,3 -5,4 0,0 -1,1 -1,1zm-57 -104c0,0 1,0 1,-1 -1,0 -1,0 -2,-1 -1,0 -2,-1 -2,0 -1,0 0,1 1,1 1,1 1,1 2,1zm118 19c-1,0 -1,1 -2,2 0,0 -2,2 -1,2 0,1 3,-3 3,-4zm-127 118l-1 -2c0,0 0,-1 -1,0 0,0 0,1 1,1 0,1 2,4 3,4 0,-1 0,-1 -1,-2 0,0 -1,0 -1,-1zm42 -121c1,-1 1,-2 2,-2 0,0 0,0 1,0 -1,-2 -4,0 -3,2 0,0 0,0 0,0zm31 62c1,0 5,-4 6,-4 0,-1 0,-1 1,-1 1,-1 0,-1 0,-1l-3 2c0,1 -4,3 -4,4zm-41 82c0,-1 -2,-5 -3,-5 -1,0 0,1 0,1 0,1 1,1 1,2 0,0 1,2 2,2zm-46 -40c0,-1 0,-1 -1,-1 -1,0 0,1 0,1 1,1 3,4 4,4 0,-1 -1,-1 -1,-1l-2 -3zm14 -3c-1,-1 -4,-5 -5,-5 0,1 4,5 5,5zm-33 -94c0,1 0,1 1,1 0,0 1,-5 0,-5 0,0 0,0 0,0 0,1 0,1 0,1l-1 3zm86 -14c-1,1 0,3 2,2 0,0 1,0 0,-1 0,0 0,0 -1,0 0,0 0,-1 -1,-1zm110 -15c1,-1 0,-1 0,-2 0,0 -1,-1 -1,-2 -1,1 0,2 0,2 0,1 0,2 1,2zm-160 54c0,0 1,1 1,2 1,0 1,1 2,1 0,0 -2,-3 -3,-3zm80 22c1,0 1,-1 2,-1 0,-1 1,-1 0,-2 0,0 0,1 -1,1 0,1 -1,1 -1,2zm50 -47c0,0 1,0 1,0 0,-1 0,-2 -1,-2 0,0 0,1 0,2zm-63 99c-1,0 -1,0 -2,1 0,0 -1,0 -1,1 0,0 2,-2 3,-2zm32 -159c0,-1 0,-2 -1,-2 0,-1 0,-1 0,-1 0,1 0,3 1,3zm-34 129c0,0 2,-2 3,-3 -1,0 -1,0 -1,1 -1,0 -2,1 -2,2zm-38 -143c0,0 0,-1 0,-1 0,-1 0,-1 0,-1 -1,1 -1,2 0,2zm-23 79c0,0 1,1 1,1 0,1 0,1 1,1 0,0 0,0 0,1 0,-1 0,-1 -1,-2 0,-1 0,-1 -1,-1zm66 80c1,0 2,-1 2,-1 -1,-1 -2,0 -2,1zm59 -86c0,0 1,0 1,-1 -1,0 -1,0 -1,0 0,0 0,1 0,1zm-4 1c0,0 1,0 1,-1 0,0 0,0 0,-1 -1,0 -1,1 -1,2zm24 -64c0,-1 -1,-3 -2,-3 0,0 1,1 2,2 0,0 0,0 0,1zm-78 159c1,0 1,0 1,0l2 -2c-1,0 -1,1 -2,1 0,0 -1,1 -1,1zm-75 -172c0,0 1,0 1,0 0,-1 1,-1 1,-1 -1,0 -2,0 -2,1zm-25 120c0,0 -1,-1 -2,-2 0,1 1,2 2,2zm29 -19c0,-1 0,-2 -1,-2 0,1 0,1 0,1 1,1 1,1 1,1zm-30 52c0,-1 0,-1 0,-1 0,1 -1,0 0,1 1,1 0,1 1,1 0,0 0,-1 -1,-1zm67 -124c1,0 2,0 2,-1 -1,0 -1,0 -2,1zm-27 5c1,0 1,0 2,-1 -1,0 -2,1 -2,1zm49 164c0,0 1,-1 1,-1 0,0 -1,0 -1,1zm-93 -83c0,1 1,2 2,2 0,0 -1,-1 -1,-1 0,0 0,-1 -1,-1zm3 -15c0,1 0,1 1,1 0,0 0,0 -1,-1 0,0 0,0 0,0zm101 97c1,0 1,-1 1,-1 0,0 -1,0 -1,1zm0 -89c0,1 0,2 0,2 0,0 0,0 0,-1 0,0 0,0 0,-1zm-11 79c1,0 2,0 2,-1 -1,0 -2,1 -2,1zm5 -21c1,0 2,0 2,-1 0,0 -2,1 -2,1zm52 -158c0,-1 0,-1 -1,-2 0,1 0,2 1,2zm-21 115c1,0 1,-2 1,-2 0,0 -1,2 -1,2zm36 -64c0,-1 0,-1 -1,-1 0,1 1,1 1,2 0,-1 0,-1 0,-1zm-167 -47c0,0 1,-1 1,-1 0,0 0,0 0,0 -1,0 -1,0 -1,1zm166 45c0,0 0,-1 0,-1 0,1 0,1 0,1zm-57 137c1,0 1,0 1,-1 0,0 -1,0 -1,1zm56 -173c1,0 1,0 0,0 0,-1 0,-1 0,-1 0,0 0,1 0,1zm29 22c0,0 0,1 0,1 0,-1 0,-1 0,-1zm-88 119c-1,0 -1,0 -1,1 1,0 1,0 1,-1zm46 -36c0,0 1,0 1,0 -1,-1 -1,0 -1,0zm2 -1c1,0 1,0 1,-1 0,0 0,0 -1,0 0,0 0,1 0,1zm-132 -53c0,1 0,1 0,1l0 0c0,0 0,0 0,-1 0,0 0,0 0,0zm105 -54c0,-1 0,-1 0,-1 0,0 0,0 0,1zm-23 125c1,0 1,0 1,-1 0,0 0,0 -1,1zm0 -35c0,0 1,-1 1,-1 -1,0 -1,0 -1,1zm4 -67c0,0 0,0 1,0 0,-1 0,-1 0,-1l-1 0 0 1zm-2 112c0,0 0,0 0,0 1,-1 1,-1 1,-1 -1,0 -1,0 -1,1zm-3 22c1,0 1,0 1,0 0,-1 0,-1 0,0 -1,0 -1,0 -1,0zm-30 -145c0,0 0,0 0,-1 0,1 0,1 0,1zm46 114c0,0 0,0 0,0 0,-1 0,0 0,0zm-2 -31c-1,1 1,0 0,0zm-63 -100c0,0 0,-1 1,-1 -1,0 -1,0 -1,1zm-41 24c0,0 1,0 0,0 0,0 0,0 0,0zm108 -11c0,-2 -2,-1 0,0zm51 -28c0,0 1,0 1,-1 0,0 -1,0 -1,0 0,0 0,0 0,1zm15 -9c0,0 0,0 -1,-1 0,1 0,1 1,1zm-56 39c0,0 0,0 0,0 0,0 0,0 0,0zm-110 43c0,0 0,0 0,1 0,0 0,0 1,0 -1,0 -1,-1 -1,-1zm-16 39c0,-1 0,0 0,0 -1,0 0,0 0,0 0,0 0,0 0,0zm176 -93c1,0 1,0 1,0l-1 0zm-174 145c0,-1 0,-1 0,-1 0,0 -1,0 0,0 0,1 0,1 0,1zm86 27c1,0 0,0 1,0 -1,0 0,0 -1,0l0 0zm63 -171c1,1 0,0 1,0 0,0 0,0 -1,0zm-148 145c0,0 0,0 0,-1 -1,1 0,1 0,1 0,0 0,0 0,0zm107 -38c0,-1 0,0 0,-1 0,1 0,1 0,1zm31 26c1,-1 1,0 1,-1 -1,0 -1,0 -1,0 0,1 0,0 0,1zm-52 45c0,0 0,0 0,0 0,1 0,1 0,1 0,0 0,-1 0,-1zm-39 -168c-1,0 -1,1 0,0zm65 -5c0,0 0,1 0,0 0,0 -1,0 0,0zm47 4c0,0 1,0 1,0 0,-1 -1,0 -1,0zm-161 85c0,0 0,0 0,0 1,0 0,0 0,0zm107 -4c0,-1 0,0 0,0 0,0 1,0 0,0zm-7 4c0,-1 0,0 -1,0l0 0c1,0 1,0 1,0zm-73 -78c0,1 0,0 1,0l0 0c-1,0 0,0 -1,0zm66 133c0,1 0,1 0,0 0,0 0,0 0,0z"/>
   <line class="fil2 str0" x1="104" y1="166" x2="97" y2= "162" />
  </g>
 </g>
</svg>
