<?xml version="1.0" encoding="UTF-8"?>
<!DOCTYPE svg PUBLIC "-//W3C//DTD SVG 1.1//EN" "http://www.w3.org/Graphics/SVG/1.1/DTD/svg11.dtd">
<!-- Creator: CorelDRAW X8 -->
<svg xmlns="http://www.w3.org/2000/svg" xml:space="preserve" width="36.6222mm" height="53.0487mm" version="1.1" style="shape-rendering:geometricPrecision; text-rendering:geometricPrecision; image-rendering:optimizeQuality; fill-rule:evenodd; clip-rule:evenodd"
viewBox="0 0 167 242"
 xmlns:xlink="http://www.w3.org/1999/xlink">
 <defs>
  <style type="text/css">
   <![CDATA[
    .fil0 {fill:black}
    .fil1 {fill:black}
   ]]>
  </style>
 </defs>
 <g id="Layer_x0020_1">
  <metadata id="CorelCorpID_0Corel-Layer"/>
  <path class="fil0" d="M94 241c0,-1 1,-1 2,-1 1,-1 3,-2 5,-3 0,1 -4,3 -5,3 -1,0 -2,0 -2,1zm9 -3c0,-1 0,-1 1,-1 1,-1 5,-3 6,-3 -1,1 -2,2 -3,2 -1,1 -4,2 -4,2zm6 -4c0,0 -1,0 -1,0 0,0 0,0 1,0zm0 0c1,-1 2,-1 2,-2 1,0 3,-1 3,-1 0,1 -4,2 -5,3zm7 -4c0,0 0,0 0,0 0,0 0,0 0,0 -1,0 0,0 0,0zm0 -1c0,-1 1,-2 1,-2 0,0 0,1 0,1 0,0 -1,1 -1,1zm4 0c0,1 4,-2 6,-2l-5 2c-1,0 -3,2 -4,2 -1,-1 -1,-1 -1,-1 4,-1 8,-4 11,-5 1,0 4,-2 4,-2 0,1 -2,2 -2,2 -1,0 -1,0 -1,0l-3 1c-1,1 -3,1 -4,2 -1,1 -1,1 -1,1zm-27 -72c-1,-2 1,-5 2,-6 0,2 0,3 0,4 -1,1 -1,2 -2,2zm21 -3c0,0 1,0 2,1 -1,0 -2,0 -2,-1 -1,0 -2,1 -2,-1 1,0 2,1 2,1zm-18 3l0 -2c0,1 0,2 0,2 0,1 -1,2 -2,3l-1 1c0,1 0,1 0,1 0,-2 1,-5 2,-6 0,0 0,0 0,-1 1,0 1,0 1,0l0 0c0,0 0,0 0,0 1,-2 1,-2 2,-3 1,-1 1,-1 1,-1 0,0 0,1 0,2 0,1 -1,2 -1,3 -1,0 -1,1 -2,1zm14 -4c0,0 -1,0 -1,-1 0,0 0,1 0,1 1,0 1,0 1,0zm-14 1c-1,-1 -1,-4 0,-4 0,1 0,2 0,2 0,1 0,2 0,2zm-1 -4c0,0 0,0 0,1 -1,1 -2,3 -2,1 0,-1 0,-1 1,-2 0,-1 1,-2 1,-2l0 2zm2 2c0,0 0,-3 0,-3 0,0 0,-1 1,-1 0,-1 0,-1 1,-1 0,1 0,3 0,3 -1,1 -2,2 -2,2zm5 -1c-1,0 -2,2 -2,2 0,-1 0,-2 0,-2 0,-1 0,-1 0,-2l0 0c0,-1 0,-1 0,-1 1,0 0,0 1,0 0,1 1,0 1,1 1,1 0,1 0,2zm-7 -3c0,-1 1,-2 1,-2 1,1 0,3 0,3 -1,0 -1,-1 -1,-1zm2 -2c1,0 1,0 1,1 0,0 0,0 0,0 -1,0 -1,1 -1,1l0 -2zm-4 3c0,-1 0,-2 0,-2 1,-1 1,-2 2,-2 0,1 -1,3 -1,3 -1,1 0,1 -1,1zm6 -3c0,0 0,0 1,0 0,0 0,1 0,1l-1 -1zm-4 0c0,0 0,-1 1,-1 0,0 0,0 0,1 0,0 -1,0 -1,0zm-36 0c1,-1 1,-1 2,-1l-1 1c-1,0 0,0 -1,0zm3 -1c2,0 4,0 5,0 2,0 5,-1 6,0 -1,1 -11,1 -11,0zm20 0c0,1 -2,0 -2,0 -1,0 -3,0 -3,0 0,0 5,0 5,0zm15 0c-3,-2 -1,-2 0,0 1,0 2,0 2,1 -1,0 -2,-1 -2,-1zm-49 -1c0,0 -1,0 -2,-1 1,0 4,1 5,1 1,1 2,1 3,1 1,0 2,0 2,1 -1,0 -6,-1 -8,-2zm-10 -3c0,0 -1,0 0,0l1 0c1,1 2,1 3,1 0,0 1,0 2,0 0,1 1,1 1,1 -1,0 -3,0 -4,-1 -1,0 -2,0 -3,-1zm78 -5c-1,0 -2,0 -3,1 -1,0 -3,1 -3,-1 0,-1 2,0 3,-1 1,0 1,0 2,0 0,0 1,0 1,1zm-56 1c-1,0 -2,0 -3,0 -1,0 -1,-1 -1,-1 -1,-2 0,-2 1,-3 1,0 1,0 2,0 1,1 0,0 1,1 0,0 -1,0 -1,1 1,1 1,1 1,2zm53 -3c0,0 0,0 1,-1 0,0 0,0 1,0 0,0 0,0 0,0 1,1 0,1 0,1 -2,0 -1,0 -2,0zm-59 0c0,-1 0,0 0,-1 0,0 0,0 0,1zm71 -1c-1,0 0,0 -1,0 0,-1 0,0 1,0zm-111 0c0,-1 2,0 2,0 1,1 1,1 1,1 1,0 1,0 2,0 -1,0 -5,-1 -5,-1zm46 -1c0,0 0,0 1,0 0,1 0,1 -1,0zm67 0c0,0 0,0 0,0 0,0 0,0 0,0zm-92 0c0,0 0,-1 1,-1l0 1c0,1 -1,0 -1,0zm-5 -1c0,-1 1,-2 1,-2 1,0 1,2 1,2 -1,0 -1,0 -2,0zm-3 0c-1,0 -1,-1 0,-2 0,1 0,0 0,1 0,0 0,0 0,0 0,0 0,0 0,1zm24 0c1,0 5,-1 5,-1l-2 1c-1,1 -1,1 -2,1 0,0 -1,0 -1,-1zm51 -1c-1,0 -1,0 0,-1 0,0 0,0 0,1 0,0 0,0 0,0zm-77 0c0,0 0,0 0,-1 0,0 0,0 1,0 0,1 0,1 -1,1zm72 -1c0,0 0,0 0,0 0,0 0,0 -1,0 0,0 0,0 1,0zm-69 1c0,-1 -1,-1 0,-2 1,0 0,2 0,2zm1 1c0,-1 1,-3 1,-3 0,0 1,0 1,0 0,1 -1,2 -1,2 0,0 -1,1 -1,1zm75 -1c0,0 2,-1 2,-1 1,1 2,2 3,2 1,0 0,0 1,0 2,0 3,-1 4,0 0,0 0,1 -1,1 -1,1 -1,1 -1,1 -2,1 -1,1 -3,1 0,0 0,0 -1,0 0,1 1,1 2,1 0,0 -1,0 -1,1 0,1 1,1 1,1 -1,1 -6,2 -7,2 0,-1 -1,-2 -2,-2 -1,0 -2,0 -2,1 0,0 -1,1 -1,2 1,0 2,-2 2,-2 1,0 2,0 3,1l-5 2c-1,0 -3,1 -4,1 -1,-1 0,-1 -1,-1 -4,0 -4,0 -9,-1 -2,0 -10,-1 -10,-2 0,0 0,0 0,0 1,0 1,-1 0,-2 0,-1 -1,-1 -2,-1 0,0 0,-1 1,-1 0,0 0,1 1,0 0,0 0,-1 0,-2 1,0 1,0 2,0 0,0 1,0 2,0 1,0 1,0 1,0 2,1 3,-2 2,-3 -1,-1 -2,0 -3,0 0,0 1,-1 1,-1 1,-2 1,-2 2,-2 1,0 1,0 2,0 0,0 0,0 0,1 1,0 2,-1 2,0 1,0 1,0 1,0 0,0 0,0 1,1 1,0 2,1 2,2 1,-1 2,-3 3,-3 1,0 0,1 1,2 0,0 0,0 0,1 0,1 1,0 2,1 1,1 2,0 2,0 1,1 1,2 1,2 0,1 0,0 0,0 1,-2 -1,-3 2,-2l0 0c1,0 0,0 1,0 0,0 0,0 0,1 1,0 1,0 1,0 2,0 1,0 2,-2zm-50 2c0,0 0,0 0,0 0,0 0,0 0,0 0,0 0,0 1,0l3 -2c0,0 4,-2 5,-2 -1,1 -4,2 -5,3 -1,0 -2,1 -4,1l0 0zm-21 -1c0,0 3,-4 3,-4 0,0 0,1 0,1 0,0 0,1 -1,2 0,1 -1,2 -2,1zm62 -2c-1,-1 -1,-2 0,-3 0,1 2,3 0,3zm3 -1c-1,0 -1,-1 0,-1 0,0 0,1 0,1zm-34 5c0,0 0,0 0,-1 0,-1 1,0 3,-2 0,-1 -1,-1 1,-2 2,-2 2,0 2,1 1,1 2,1 3,0 1,-1 2,0 3,-1 1,0 1,-1 2,-1 0,1 -1,1 -1,2 0,0 0,1 1,1 1,1 2,-1 2,0 0,1 0,1 0,1 -1,0 -1,0 -2,0 0,0 -1,1 -2,0 0,0 -2,-1 -3,1 0,0 0,1 0,1 0,1 -1,0 -2,1 -1,3 2,2 2,3 0,0 0,0 0,0 0,0 -1,0 -1,0 -2,0 -1,0 -2,1 -1,0 -7,0 -8,-1 0,0 0,0 0,0 -1,-1 -1,-1 -1,-1 -1,-1 0,-2 1,-2 0,-1 1,0 2,-1zm-31 -2c0,-1 -1,-3 -1,-3 0,0 2,-1 3,-1 -1,1 -2,3 -2,4zm7 -4c0,0 0,0 1,-1 0,1 0,1 0,1 0,0 0,0 -1,0zm-1 0c0,0 0,0 0,0 0,0 0,0 0,0 0,1 0,0 -1,1 0,0 0,1 0,1 0,0 -1,0 -1,0 0,0 1,-2 1,-3 1,0 1,0 1,0l0 1zm75 0c0,1 -1,2 0,2 0,0 0,0 0,0 1,0 1,1 1,1 -1,0 -1,-1 -2,0 0,0 -1,0 -2,0 0,0 0,-1 0,-2 -1,1 0,1 -1,1l0 0c0,0 0,0 0,0l0 -1c0,0 0,0 -1,-1 0,1 0,2 0,3 0,0 -1,-1 -1,-1 -1,-1 0,-2 -1,-3 0,0 0,1 0,1l0 1c0,0 0,0 0,0l-1 0c0,0 0,-1 0,-1l0 -1c0,-1 0,0 1,0l4 0c2,0 3,1 5,1 0,0 2,0 2,1 0,0 0,0 0,1 1,1 2,4 2,5 0,0 -1,0 -1,0 -1,-1 -1,-3 -1,-4 -1,0 0,2 -1,3 0,-1 0,-3 -1,-3 0,1 0,2 0,3 1,2 1,1 2,2 0,0 0,0 -1,0 0,0 0,0 0,0 -1,-1 -1,-1 -1,-2 0,-2 0,-1 -1,-2 0,0 1,-4 -1,-4zm-50 0c1,0 1,0 1,-1 1,0 1,0 2,0 0,1 -2,1 -3,1zm41 -2c1,0 0,1 0,2 1,0 1,1 0,1 0,0 0,-1 0,-1 0,-1 -1,-2 0,-2zm-46 4c0,-1 1,-1 1,-1 1,-1 1,-1 2,-1 0,0 3,-1 3,-1 -1,0 -2,1 -3,1l-3 2zm44 1c0,-1 1,-1 1,-2 0,0 -2,-2 -1,-3 1,0 1,2 1,3 0,1 0,1 -1,2 0,0 0,1 -1,1 0,0 0,0 1,-1zm-52 0c1,0 10,-4 12,-5 0,1 0,1 -1,1 -1,0 0,0 -2,1 -2,2 -3,2 -6,2l-2 1c-1,0 -1,0 -1,0l0 0zm51 -4c0,1 1,2 1,3 -1,0 -2,-3 -2,-4 1,0 1,1 1,1zm-7 -1c0,0 -1,2 -2,2 0,0 0,-1 0,-1 0,0 2,-1 2,-1zm-27 -2c1,0 0,1 0,1 0,0 0,0 0,0 0,-1 0,-1 0,-1zm-1 1c-1,0 -1,-1 -1,-2 1,0 2,2 1,2zm17 -2c0,0 1,2 1,2 -1,0 -1,0 -1,0 0,-1 -1,-1 -1,-1 0,0 0,-1 1,-1zm37 7c0,-1 0,-3 0,-4 0,1 0,3 1,3 0,0 0,-3 -1,-3 0,-1 0,-1 0,-2 0,0 0,0 0,-1 1,0 1,0 1,1l2 6c0,1 -1,2 -1,2 1,0 0,0 1,0 1,0 0,2 -1,2 -3,2 -2,-2 -2,-2 -1,-1 -2,-4 -1,-5 0,1 1,5 2,6 0,-1 -1,-3 -1,-3zm14 -5c0,-1 1,-2 1,-2 0,0 0,1 0,2l-1 0zm-49 2c0,0 -1,-2 -1,-2 0,-1 -1,-3 0,-3l1 5zm4 -3c0,0 0,-1 0,-2 0,0 1,-1 1,-1 0,0 1,1 1,2 0,0 -1,1 -2,1zm-11 -2c0,0 1,0 1,0 0,1 -1,2 -1,0zm9 1c-1,0 -1,-1 -1,-2 0,-1 1,-1 1,-2 0,1 1,2 1,3 0,1 -1,1 -1,1zm-43 4c0,0 0,0 0,0 0,-1 -1,0 -1,0 -3,0 -2,0 -2,-1 0,-1 0,-1 0,-1 -1,-1 0,-2 1,-2 0,1 1,1 1,2 1,0 2,0 2,-1 1,0 1,1 2,0 1,0 2,0 2,-1 1,-1 -1,-1 -1,-1 -1,0 -1,-1 -1,-2 1,0 1,0 2,0 2,-1 2,0 4,1 1,1 1,0 1,0 0,1 0,1 1,1 0,1 0,1 0,1l-4 5c-1,1 -1,1 -1,1 0,0 0,1 -1,1 0,0 -1,1 -1,2 1,1 2,2 4,3 1,1 0,1 1,1 1,0 1,1 1,1 0,0 -2,0 -3,0 -1,0 -2,0 -3,-1 -1,0 -1,0 -1,0 0,-1 0,-1 -1,-1 0,-1 0,-3 -1,-2 0,0 0,-1 0,0 0,0 0,0 0,0 0,1 1,2 1,3 -1,0 -2,-1 -3,-1 -3,0 -5,0 -6,-2 -1,0 -1,-2 0,-2 0,0 1,3 2,3 1,0 0,-1 0,-1 0,-1 0,-1 0,-1 -1,-1 -1,-1 -1,-1 0,-1 0,-1 0,-1 1,-1 0,0 2,-1 1,0 1,0 2,0 1,-1 0,-1 1,-1 1,0 1,0 1,-1zm30 -5c0,0 0,-1 0,-2 1,0 0,1 0,3 1,0 2,0 3,0 0,0 0,1 1,2 1,0 1,-2 2,-1 0,0 0,0 1,1 0,0 0,0 1,0 0,1 -3,1 -3,1 -1,0 -1,2 -2,1 -1,0 -1,0 -2,1 -1,0 -2,0 -3,0 0,1 0,2 -1,1 0,0 0,-1 -1,-1 -2,-1 -2,-1 -3,0 -4,3 -1,3 -4,3 -1,0 -3,1 -4,2 -1,0 -4,1 -5,1 0,0 0,0 1,0 2,-1 4,-2 6,-4 1,0 6,-2 7,-3 0,-1 0,-1 0,-2 1,0 1,0 2,0 0,0 2,0 3,0 0,-1 0,-1 0,-1 -1,0 -2,0 -3,0 -1,0 -1,0 -2,0 0,0 0,-1 0,-1 0,0 2,0 3,0 2,0 1,0 2,1l1 -1c0,0 0,0 0,0 -1,-1 -1,-1 -2,-1 0,0 1,0 -1,0 -1,0 -1,0 -2,0 -1,0 -2,1 -2,0l0 0c0,0 1,0 1,0 1,0 3,0 4,0 0,-1 1,0 1,-1 0,1 0,1 0,1 0,0 1,0 1,0 0,0 0,0 0,0zm0 -2c-1,1 -1,1 -1,1 -2,0 -2,0 -4,0 -2,0 -3,1 -3,-2 0,0 1,1 2,1 2,0 3,0 4,0 0,0 2,0 2,0zm-9 1c0,0 0,-1 0,-1 -1,-1 -1,0 -1,-1 1,0 1,0 1,1 1,1 0,1 0,1zm26 1c0,0 0,-2 0,-3 0,0 1,-1 1,-1 1,0 1,0 2,0 0,0 1,0 1,1 0,0 0,1 -1,1 0,0 0,-1 -1,0 -1,0 -1,1 -1,1 0,0 1,0 1,0 0,0 1,-1 1,-1 0,0 -2,2 -3,2zm-15 -5c1,-1 2,0 3,0 1,0 3,1 2,2 0,1 0,0 0,1 0,1 0,2 0,3 -1,0 -1,-1 -1,-2 -2,0 -1,1 -2,1 0,0 -1,0 -2,0l-1 0c1,-1 0,0 1,-1 0,-1 -1,-1 -1,-2 1,0 1,-2 1,-2zm-12 1c0,0 0,0 0,0 0,0 0,0 0,0zm1 0c1,-1 5,-1 6,-1 1,0 2,0 3,0 0,1 1,1 1,1 0,1 0,1 0,2 -1,0 -1,0 -2,0 0,-1 0,-1 -1,-1 -1,0 -2,1 -5,0 -1,0 -2,0 -2,-1zm24 3c-1,-1 -1,-2 0,-3l1 -1c0,0 0,0 1,-1 0,0 0,0 1,1 1,0 0,1 -1,1 -1,1 0,1 -1,1 0,0 0,2 -1,2zm7 -4c0,0 0,0 0,-1 0,0 0,0 0,0 0,0 0,1 0,1zm-32 0c0,0 0,-1 0,-1 1,-2 0,-1 1,-1 2,0 2,-1 4,-1 0,0 2,0 3,0 1,0 3,-1 4,0 0,0 -1,1 -1,1 0,2 -2,1 -2,1 -2,0 -8,1 -9,1zm-1 -1c0,0 0,-3 0,-3 1,0 1,0 1,1 0,0 0,0 0,1 0,0 -1,1 -1,1zm17 -5c1,1 1,1 1,2 0,0 -1,0 -1,-1 -2,0 -2,0 -2,0 0,-1 1,-1 2,-1zm-15 2c0,-1 3,-1 4,-1 1,-1 1,0 1,0 0,0 0,0 0,0 0,-1 1,0 2,0 0,0 0,0 1,0 0,0 0,0 1,0 1,0 2,0 2,1 0,0 -1,0 -2,0 -2,0 -1,0 -2,0 -1,1 -2,-1 -4,0 -1,1 -4,2 -3,0zm13 -3c0,0 0,0 0,0 0,0 1,0 1,0l2 -1c4,-1 4,0 5,0 1,0 2,1 2,2 0,0 -1,1 -1,1 -1,0 -1,1 -2,1 -1,1 0,0 -1,1 0,0 -1,1 -1,1 -1,-1 0,-4 -1,-4 0,0 -2,0 -2,0 -1,-1 -1,-1 -2,-1l0 0zm38 15c0,0 -1,0 -2,0 -1,-1 -2,-1 -3,-2 -4,-1 -6,0 -8,-2 0,0 0,0 0,-1 0,-1 0,-2 0,-3 1,-3 0,-4 -1,-4 2,0 1,0 2,1 1,0 1,-1 0,-1 0,-1 -3,-1 -4,-2 -2,-1 -1,-1 -2,-1 0,-2 1,-2 3,-2 2,0 4,2 6,4 1,0 5,2 7,2 2,1 1,0 1,3 0,1 0,2 -1,2 0,0 -1,0 -2,0 -1,0 -1,0 -2,0 -1,0 -1,0 -1,1 1,0 4,0 5,0l0 0c0,1 0,1 -1,1 -1,0 -7,-1 -7,0 1,0 4,0 6,1 1,0 2,0 3,-1 1,0 1,-1 1,-1 1,0 3,1 3,2 1,0 0,2 -1,3l-1 3c0,0 0,-1 -1,-1 -1,0 -2,0 -3,0 -2,-1 -11,-2 -13,-3 0,0 1,0 1,-1 1,0 0,1 1,-1 1,0 4,1 5,1 1,0 2,1 3,1 2,1 5,2 6,2 0,0 1,1 1,1 1,-1 0,-2 -1,-2zm-42 -14c0,-1 1,-3 2,-4 0,1 1,2 1,3 -1,0 -2,1 -3,1zm-14 8c-1,1 -1,1 -2,2 0,0 -1,1 -1,0 -1,0 -2,-5 -3,-6 -1,-2 -2,-5 -3,-7 0,0 0,-1 0,-1l5 -6c0,0 0,-1 1,-1 0,1 0,5 0,6 0,1 -2,2 -2,3 0,0 0,0 0,0 1,-1 1,-1 1,-1 1,-1 1,-1 2,-2 0,3 0,5 1,7 0,1 1,5 1,6zm-3 -25c0,1 0,3 0,5 1,0 1,1 1,1l0 3c0,0 0,1 0,1 0,0 0,-3 0,-4 0,-1 -1,-3 -1,-4 0,0 -1,-2 0,-2 0,0 0,0 0,0zm-39 -61c3,5 6,15 8,19 0,0 0,0 1,1 0,0 0,0 0,0 0,0 -1,-3 -1,-4 -2,-4 -3,-8 -5,-12l-2 -6c-1,-2 -1,-2 -2,-3 0,-1 0,-1 0,-1 -1,-3 -3,-5 0,-4 1,0 1,0 1,1 0,1 0,3 1,4 1,0 1,1 1,2 0,0 0,0 0,0 1,1 1,1 1,2 0,1 1,3 1,4 1,2 2,3 2,4 0,1 0,2 1,2 0,1 0,2 1,2 0,2 1,3 1,5 0,0 1,1 1,2 0,0 0,1 1,2 0,1 1,3 1,4 1,3 2,6 3,9 0,0 0,1 1,2 0,1 0,1 1,2 0,0 0,1 0,2 1,1 1,1 1,2 1,0 1,1 1,2 0,1 1,1 1,2 0,1 1,1 1,2 1,2 1,4 2,6 1,2 1,3 2,4 1,3 2,6 3,9 1,1 1,1 1,1 0,1 0,2 1,3 0,1 1,2 2,3 0,3 1,3 1,4 1,1 1,2 1,3 1,2 2,3 3,6 0,1 2,3 1,4 0,-1 -1,-3 -1,-3 -1,-3 -2,-4 -3,-7 -1,-1 -1,-1 -2,-3 0,-1 0,-2 -1,-3 -1,-1 -1,-2 -2,-4 -1,-2 -1,-3 -2,-5 -2,-3 -4,-8 -5,-12 -1,-2 -2,-4 -3,-6 -1,-2 -1,-3 -2,-5 0,0 -1,-1 -1,-1 0,-1 -1,-2 -1,-3 -1,-2 -1,-3 -1,-4 -3,-5 -4,-7 -6,-12 0,-2 -3,-8 -4,-9 0,-2 0,-2 -1,-4 0,-1 -2,-4 -3,-6l-3 -6c0,0 0,-1 0,-1 -1,-1 -2,-5 -1,-5 1,0 2,2 2,3 1,1 1,3 2,4 0,0 0,1 0,2zm32 -4c0,1 0,4 0,5 0,1 0,2 0,2 1,1 1,3 1,4 0,3 1,5 1,7 0,3 1,5 1,8 0,1 0,2 0,4 0,0 0,3 1,3 0,0 0,-3 0,-4 -1,-5 -1,-6 -1,-11 -1,-3 -1,-5 -1,-8 -1,-2 -1,-5 -1,-7 0,-3 -1,-5 -1,-7 0,-2 -1,-3 -1,-4 0,-1 0,-2 0,-4 -1,-1 -1,-3 -1,-5 -1,-2 0,-1 0,-2 0,-3 -1,-5 -1,-8 2,0 2,1 3,2 0,2 0,3 0,4 0,2 1,4 1,7 0,4 1,10 1,14 1,2 1,5 1,7 0,2 1,5 1,7 0,2 0,5 1,7 0,3 0,5 0,7 1,1 1,3 1,4 0,1 0,2 0,3 0,3 1,5 1,8 0,4 1,11 2,14 0,1 0,2 0,3 0,2 1,5 1,7 0,1 0,2 0,3 1,3 1,1 1,4 0,1 0,2 0,3 1,1 1,3 1,4 0,2 0,6 1,7 0,1 0,1 0,2 -1,3 0,2 0,2 1,0 1,1 1,1 0,1 0,2 0,3 0,0 0,1 0,1 0,-1 0,-1 -1,-1 0,0 -2,1 -3,1l-6 2c0,1 -2,2 -3,2 0,-1 2,-3 2,-3 1,0 1,-1 1,-1 1,-1 1,-1 2,-2 0,0 3,-3 3,-3 1,0 2,-1 2,-1 0,0 0,-1 0,-2 0,-2 -1,-3 -1,-5 0,-2 -1,-5 -1,-7 0,-1 0,-2 0,-4 0,-1 -1,-2 -1,-3 0,-1 -1,-6 -1,-7 0,0 0,0 0,1 -1,-1 -1,-2 -1,-3 0,-1 0,-2 0,-3 -1,-3 -1,-8 -2,-11 -1,-6 -1,-5 -1,-11 0,-3 -2,-13 -2,-16 -1,-4 -2,-7 -2,-11 0,0 -1,-1 -1,-2 0,-1 0,-2 0,-3 0,-1 0,-2 0,-3 0,-1 0,-2 -1,-3 0,0 0,-1 0,-2 0,-2 -1,-4 -1,-6l0 -5c-1,-1 -1,-4 -1,-6 0,-1 -1,-2 -1,-2 0,-1 1,-3 2,-3 1,0 0,2 1,3 0,2 0,4 0,6 0,1 0,1 0,2l1 7c0,1 1,1 1,2 0,2 0,4 1,6zm5 58c0,1 0,3 0,4 1,1 1,2 0,3 0,1 -3,4 -3,4 1,0 1,0 1,-1 1,0 2,-2 3,-2 0,0 0,3 0,4 0,1 -1,2 -1,2 -1,1 -4,5 -4,6 -1,-1 -1,-3 -2,-3 -1,-2 -2,-5 -3,-8 0,0 -1,-1 -1,-2 -1,-3 -2,-6 -3,-8 -1,-2 -1,-4 -2,-5 -2,-6 -4,-11 -6,-16 -2,-3 -3,-7 -4,-11 -1,-3 -3,-7 -4,-10 0,-2 -1,-4 -2,-6 0,0 -3,-7 -3,-8 0,0 0,-1 0,-2 0,0 -1,0 -1,0 0,-1 0,-2 -1,-3 -1,-3 0,-1 0,-3 -1,0 -4,0 -5,0 0,0 -1,1 -1,1 -1,2 -1,1 0,4 1,1 1,2 2,3 0,1 0,1 0,1 0,1 0,1 0,1 0,0 0,0 0,0l1 2c0,0 0,0 0,0 0,1 0,1 1,1 1,2 1,4 2,6 1,1 2,4 3,6 1,1 1,2 2,3 1,2 1,4 2,6 1,3 2,5 3,7 0,2 1,4 2,6l1 3c1,2 2,4 3,6 2,5 2,2 0,4l-1 2c-1,1 -1,1 -1,1 0,0 -1,1 -1,1 1,0 2,-2 2,-2 1,0 1,0 1,0 0,-1 1,-2 2,-2 0,0 2,5 2,5 0,1 0,1 -1,1 0,1 -2,3 -2,4 1,-1 3,-4 4,-4 0,1 1,2 1,3 0,1 1,2 1,3 0,0 -1,0 -2,2 -1,0 -1,0 -1,1 0,0 -1,0 -1,1l-2 2c0,1 -1,2 -1,2 0,0 0,0 1,0 0,-1 0,-1 1,-1 0,-1 0,-1 0,-1 1,-1 4,-5 5,-5 1,1 2,2 2,3 1,2 1,2 -1,5l-2 2c-1,1 -2,2 -2,3 1,0 1,-1 1,-1 0,-1 1,-2 2,-2l2 -3c1,0 1,-1 1,-1 1,1 1,2 2,3 0,1 1,2 1,3 0,1 -2,2 -2,2 0,1 -1,2 -2,2 0,1 -3,4 -3,5 1,0 1,-1 1,-1l4 -5c0,0 0,0 1,0 0,-1 1,-2 1,-2 1,0 2,2 2,3 0,1 1,2 1,3 1,1 1,2 2,4 0,0 1,2 1,3 -1,0 -1,0 -1,-1 -2,-1 -2,-2 -5,-1 -1,0 -3,1 -2,2 1,2 1,2 2,2 -2,1 -3,0 -4,0 0,1 0,1 0,1 -1,0 -1,-1 -2,-2 -1,0 -2,1 -2,1 0,0 -1,1 -1,1 0,1 1,1 0,2 0,0 0,0 -1,0 -1,0 0,0 -1,0 -1,0 0,1 -1,1 -1,0 -1,0 -2,0 0,0 -1,0 -1,0 -1,1 -1,0 -2,0 0,1 -1,1 -2,1 1,-1 4,-3 4,-5 -1,1 -3,4 -4,5 0,0 -1,0 -1,1 -1,0 -5,0 -5,1 0,0 0,0 0,0l0 1c0,0 0,0 -1,-1l0 1c-1,-1 -2,-1 -2,0 0,0 2,1 2,1 1,0 3,0 4,0 0,1 0,1 1,1 1,0 1,0 1,0 1,0 1,0 2,0 1,0 1,0 1,1 1,0 1,-1 1,0 1,0 1,0 3,0 0,1 1,0 1,1 3,1 7,1 9,2 2,0 3,0 4,0 3,1 5,1 8,1 4,1 8,2 11,2 4,0 11,2 16,2 1,0 2,1 3,1 1,0 4,0 5,0 0,0 0,1 0,1 0,1 2,-1 2,0 -1,0 0,0 0,0 -1,0 -1,0 -1,0 0,1 0,1 0,1 0,1 0,1 -1,2 0,-1 0,-1 0,-2 -1,-1 0,-1 -1,-1 0,0 -2,0 -2,0 -1,0 -2,1 -4,1 -1,0 -2,0 -3,0 -1,0 -2,0 -3,0 -2,0 -5,0 -7,0 -1,0 -4,0 -6,0 -1,0 -2,0 -3,0 -2,0 -5,1 -7,0 0,0 -1,0 -1,0 -1,0 -1,0 -2,0 -2,0 -8,-2 -11,-3 -3,0 -8,-1 -10,-3 -1,0 -1,0 -2,0 0,0 0,-1 -1,-1 0,0 0,1 -1,0l-14 -5c-1,0 -1,0 -3,-1l-4 -1c-2,-1 -3,-1 -4,-2l-1 0c0,-1 1,-1 1,-1 1,-1 2,0 2,0 2,0 3,0 5,0 2,1 6,3 7,2 1,-1 -2,-1 -4,-2 -1,0 -1,0 -2,0l-6 -1c-1,0 -2,-1 -2,0l-3 2c-1,0 -1,1 -1,1 1,0 0,-1 2,0 1,0 2,0 3,0 0,1 3,2 4,2 -1,0 -4,-1 -5,-1 1,1 1,1 1,1l8 2c2,1 2,1 4,2 1,0 4,0 4,1 0,2 1,2 1,3 0,1 0,3 0,4 1,0 1,0 1,0 0,-2 -1,-3 0,-4 0,0 1,1 1,1 1,1 3,3 4,3 0,0 -4,-4 -5,-5 0,0 -1,0 -1,-1 0,0 0,0 1,-1 0,0 2,1 3,2 1,0 1,0 2,0 2,1 3,1 5,3l2 1c0,1 1,1 1,1 0,-1 -1,-1 -1,-1 0,-1 -1,-1 -1,-2 1,1 4,2 5,2 2,1 5,2 7,3 2,0 5,4 6,4 0,-1 0,-1 -1,-1 0,-1 -1,-1 -2,-2 0,0 0,0 -1,-1 1,0 4,1 4,1 1,1 2,1 4,1 0,0 0,0 0,0 1,-1 0,-1 1,-1 0,0 0,0 0,0l0 1c1,0 1,-1 3,0l2 2c0,0 1,1 2,1 -1,-1 -2,-2 -3,-3 0,0 -1,0 -1,-1 2,0 3,0 4,0 1,1 4,1 4,1 3,-1 6,-1 8,-1 4,0 5,0 8,0 2,-1 3,-1 4,-1l3 0c1,0 1,0 1,1 0,0 0,0 0,0 0,1 0,1 0,2 0,2 0,5 0,7 0,4 0,7 0,11 0,2 0,3 0,5 0,1 0,2 0,3 0,0 0,1 0,2 0,0 0,1 0,1 0,1 0,1 0,2 -1,2 -1,5 -1,7 0,1 0,1 1,2 0,1 -1,2 -1,3 0,2 0,4 0,5 0,2 0,2 0,5 0,4 0,13 0,16 1,3 0,7 1,11 0,1 0,3 0,5 -1,1 -1,1 -1,2 0,0 1,2 0,3 0,1 0,1 0,2 1,1 0,1 1,2 2,1 3,0 4,-1 1,-1 3,-1 4,-2 3,-1 3,0 4,-1 4,-1 7,-4 10,-6 2,-1 2,0 4,-1 4,-1 12,-5 15,-7 1,-1 2,-2 3,-3 0,0 1,0 1,-1 1,0 1,-1 1,-1l-1 0c0,-2 1,-3 1,-4 0,-1 0,-2 0,-2 0,-1 0,-1 0,-1l0 -2c0,0 1,0 1,-1 0,0 0,-1 0,-2l0 -8c1,-1 1,-5 2,-7 0,-1 0,-2 1,-3 0,-1 0,-3 0,-4 0,-1 1,-2 1,-3l1 -8c0,-2 1,-4 2,-7 0,-1 0,-2 0,-3 0,-1 1,-3 0,-4 0,0 0,1 0,1 0,1 0,1 -1,2 0,1 0,2 0,3 -2,0 -3,2 -4,3 0,1 -3,3 -3,4 1,0 2,-1 2,-1l2 -2c0,0 0,-1 0,-1 1,-1 2,-2 3,-2 0,1 -1,3 -1,5 0,1 -1,3 -1,4 0,1 0,1 0,1l-1 1c-1,1 -1,1 -1,2 -1,0 -3,2 -3,3 1,-1 3,-4 4,-4 0,2 0,3 0,5l-1 3c0,1 0,1 -1,1 0,0 -1,1 -1,1 -1,1 -3,4 -3,4 0,0 1,0 1,-1 1,-1 3,-3 4,-3 0,1 -2,8 -2,12 -1,1 -1,2 -1,3 0,1 0,5 -1,6 0,1 -1,2 -1,2 1,0 1,0 1,-1 0,2 0,3 0,4 0,1 0,2 0,4 -1,0 -2,1 -3,1 0,-1 0,-2 0,-3 0,0 0,-1 0,-2 1,0 2,-2 2,-2 -1,0 -2,2 -2,3 -1,0 -1,1 -1,2 0,1 0,2 0,2 0,1 -2,2 -3,2 0,-1 0,-5 0,-6 0,-2 0,-6 0,-7 -1,1 0,5 -1,6 0,1 0,2 0,4 0,0 1,2 0,3 0,0 -2,1 -3,2 -1,0 -1,0 -1,0 0,-1 0,-7 0,-9 0,0 -1,2 -1,2 1,2 0,5 0,7 0,0 0,0 0,1 -1,0 -5,2 -6,3 0,-2 0,-2 1,-3l4 -5c0,-1 0,-1 0,-1 0,0 -1,1 -1,1l-3 4c0,0 -1,1 -1,0l0 -6c0,-1 0,-1 0,-2 0,-1 0,0 0,-1 -1,2 0,9 -1,11l-2 3c-1,1 -1,0 -1,1 -1,0 -1,0 -1,1 -1,0 -1,0 -2,0 0,1 -4,2 -5,2 0,0 4,-5 4,-5 1,1 0,2 1,2 1,0 0,-2 0,-2 0,-1 1,-3 2,-4 1,-1 1,-1 1,-2 0,0 0,0 0,1 -1,1 -2,2 -3,2 0,0 1,-3 0,-3 0,0 0,2 0,3 0,2 -1,2 -1,3 -1,0 -4,4 -4,4 0,-1 0,-3 0,-4 0,-1 0,-2 0,-2 0,-1 0,-1 0,-2 0,0 0,0 0,0 0,0 0,0 0,0 -1,1 -1,2 -1,2 -1,1 -1,1 0,1 0,0 0,-1 1,-1 0,0 -1,7 -1,8 0,0 0,0 0,0l-2 1c-2,1 -6,3 -7,3 -1,-1 0,-2 1,-2 0,-1 1,-2 2,-2 0,0 -1,1 0,1 1,0 0,-2 1,-2l2 -3c0,0 2,-2 2,-2 0,-2 -3,3 -4,3 0,0 0,-4 0,-4 0,0 0,-1 0,0l-1 2c0,1 0,3 0,3 0,1 -3,4 -3,4 -1,-1 -1,-2 -1,-3 0,-1 0,-1 0,-1l0 5c0,0 -1,1 -1,1 0,0 0,0 0,1 0,0 -1,0 -1,0 -1,-1 -1,-2 -1,-3 1,-2 0,-2 1,-3 1,-1 1,-2 2,-3l2 -2c0,-1 1,-1 2,-2 1,-2 1,-1 1,-2 0,0 0,0 1,0 0,-1 3,-5 3,-5 -1,0 -1,0 -1,1l-2 2c0,1 -1,1 -1,2 -2,2 -4,5 -6,7 -1,0 -1,0 -1,0 0,1 0,1 -1,1 0,0 0,-6 0,-6l2 -3c1,0 1,0 1,-1 0,0 0,0 0,0 1,-1 1,-1 2,-1 1,-2 2,-3 3,-4 0,0 1,-1 1,-1l4 -3c0,-1 2,-2 2,-3 -1,0 -4,3 -4,4l-7 7c-1,0 -3,2 -3,3 -1,0 0,0 -1,0 0,-1 0,-3 0,-4 0,-2 0,-3 1,-4 0,0 0,0 1,-1 0,0 0,0 1,-1 0,-1 2,-3 3,-4 1,-1 4,-4 5,-6 1,0 1,0 1,-1 0,0 -1,1 -1,2 -1,1 -2,2 -3,2 0,1 0,1 0,1l-6 6c-1,1 -1,2 -2,2 0,-1 0,-3 0,-4 0,-2 1,-4 2,-5 1,0 1,0 1,0 0,-1 0,-1 0,-1l8 -9c0,0 1,-1 1,-1 -1,0 -4,4 -5,5l-5 5c0,0 0,0 0,0l-2 3c0,0 0,0 0,0l0 -4c0,-2 0,-3 0,-4 1,0 1,0 1,-1 0,0 1,0 1,-1 0,0 1,-2 2,-3 1,-1 2,-2 3,-3l1 -2c1,-1 3,-3 3,-3 0,0 0,0 0,-1 0,0 0,0 -1,2 -1,0 -2,1 -2,2l-4 4c-1,1 -2,3 -3,4 0,0 0,0 -1,1 0,0 0,0 0,1 0,-2 0,-3 0,-5 -1,-1 0,-2 0,-2 0,-1 5,-6 6,-8l1 -1c0,0 0,-1 0,-1l5 -5c0,-1 2,-2 2,-3 -1,0 -3,3 -3,3 -1,2 -3,4 -4,5 -2,2 -3,4 -5,5l-1 2c-1,1 -1,1 -1,1 0,0 0,-2 0,-3 0,-1 0,-1 0,-2 0,-1 0,-1 0,-2l0 0c1,0 1,-1 1,-1 0,0 1,-1 1,-1 1,-2 4,-6 5,-7 0,-1 1,-1 1,-1l3 -4c1,-1 2,-3 3,-4 1,-1 2,-2 2,-3 0,0 0,0 0,1l-2 2c-1,0 -1,1 -2,2 -1,2 -4,5 -5,6l-5 7c-1,1 -1,2 -2,3 0,-2 0,-4 0,-5 0,-1 0,-3 0,-3 1,-1 1,-1 1,-1 0,-1 0,0 -1,-1 0,-1 1,-1 0,-1 0,-1 0,-3 1,-3 0,-2 1,-3 2,-4l3 -4c0,0 2,-3 2,-3 -1,0 -1,1 -2,2l-1 3c-1,0 -1,0 -1,1 -1,1 -3,3 -3,3 0,-1 0,-3 0,-5 0,-1 1,-2 2,-3 0,-1 0,-1 1,-2 0,0 0,-1 1,-1 0,-1 1,-2 1,-3 1,0 1,0 1,0 0,1 0,2 0,2 1,0 0,-2 1,-4 0,0 2,-2 2,-2 1,1 0,6 1,7 0,-1 0,-1 0,-2 0,-1 0,-1 0,-2 0,-1 0,-3 0,-4 1,0 1,0 1,1 1,0 2,0 2,2 0,1 0,4 0,5 1,0 1,-1 1,-1 0,-1 0,-1 0,-2 0,-1 0,-2 0,-3 1,1 2,1 2,2 0,1 0,9 0,9 0,1 0,0 0,1 0,0 0,0 0,0 1,-1 1,-1 1,-2 0,-1 -1,-6 0,-7l1 0c0,-1 0,0 0,-1 1,1 0,1 1,1 1,0 0,0 1,3 0,1 0,1 0,2 0,0 0,0 0,1l0 0c0,0 0,-2 0,-3 0,-3 0,-3 3,-2 1,0 1,0 1,1l0 5c0,0 0,0 0,0 0,1 1,1 1,1 0,-1 0,-5 0,-7 1,0 3,1 4,1 1,1 0,1 0,1 1,0 0,4 1,5 0,0 0,0 0,0l0 0c0,-1 0,-4 0,-5 1,0 1,0 2,0 2,1 2,-1 0,-1 0,0 0,0 -1,0 0,-1 0,-1 -1,-1 0,0 0,0 -1,0 -1,0 -4,-1 -5,-2 -1,0 -1,0 -2,0l-3 -2c0,0 -1,1 -1,1 -1,-1 -2,-1 -3,-2 -1,-1 -3,-2 -4,-3 -1,0 -1,0 -2,-1 -1,0 -1,-1 -2,-1 -1,-1 -2,-2 -4,-3l0 0c0,0 0,0 0,-1l1 0c0,0 0,0 0,0l5 -1c2,-1 4,-1 6,-2 2,0 3,-1 5,-1 1,-1 0,-1 2,-1 1,-1 2,-1 3,-2 0,0 0,1 1,1l0 -1c1,0 2,-1 3,-1 1,0 2,-1 3,-1 1,0 2,0 2,0 1,0 1,-1 2,-1l2 -1c0,0 0,0 0,0 0,0 1,0 0,0l0 0c0,-1 1,-3 1,-4 0,0 -1,1 -1,2 -1,1 -2,1 -2,2l0 0c0,1 0,1 -1,1 0,-1 1,-1 1,-2 0,0 0,-1 1,-1 0,-1 1,-3 1,-4 0,0 0,0 0,0l-2 3c-1,2 -1,3 -2,3 0,-1 4,-5 4,-7 -1,0 -1,1 -1,1l-2 3c0,0 -1,3 -2,3 0,-1 1,-2 2,-3l2 -5c0,0 1,-1 1,-1 0,-1 0,-1 0,-2 -1,0 -1,1 -1,2 0,1 -4,9 -5,9 0,0 1,-1 1,-1 0,-2 4,-8 4,-9 -1,1 -1,2 -2,2 0,1 -3,7 -3,7 -1,-1 0,-2 0,-3 1,0 1,-1 1,-2 1,-1 2,-3 2,-4 0,0 -1,2 -2,3 0,1 -1,3 -2,4 0,-1 1,-1 0,-1 0,-1 0,-1 0,-1 -1,-2 2,-5 2,-6 -1,0 -1,0 -1,1l-1 2c0,0 0,0 0,1 0,0 0,0 0,0 -1,0 -1,0 -1,0 0,0 0,-1 0,-2 0,0 0,0 1,-1 0,0 0,0 0,-1 0,0 0,-1 1,-1 0,-1 3,0 4,0l0 2c0,-1 0,-2 1,-2 0,0 2,1 3,1 1,0 2,0 3,0 0,1 -2,4 -2,5 0,1 0,1 -1,2 0,1 -1,2 0,2 0,1 0,1 1,1 0,0 0,-1 0,-2 0,0 0,1 -1,1 0,0 0,0 1,-1l1 -2c0,0 0,-1 1,-1 1,1 0,1 2,0 0,1 0,1 0,1 0,0 0,0 1,0 0,0 0,0 1,0 0,0 -1,0 -1,-1 0,0 0,0 0,0l2 0c2,1 0,2 1,3 1,0 1,0 1,0 0,0 0,-2 0,-3 0,-1 -4,-1 -6,-1 0,0 0,0 0,0l0 -1c0,0 0,-1 0,-1 1,0 3,-2 4,0 0,0 -1,1 0,2 1,0 2,-1 2,-2 0,0 0,1 1,1 0,0 0,0 0,0 1,0 0,1 1,2 1,0 1,-1 2,-1 1,1 0,2 1,3 1,0 1,-2 0,-3 0,-2 -2,-1 -2,-1 0,0 -1,0 -1,-1 0,-1 -2,0 -3,-2 0,0 0,-1 -1,-2 0,0 -1,-1 -1,-1 0,1 2,3 2,4 0,0 0,0 0,0 -1,0 -1,-1 -2,-1 -1,0 -1,1 -2,1 0,-1 1,-1 -1,-3 0,0 -2,-3 -2,-3 0,1 2,3 2,5 -1,-1 -3,-1 -4,-1 -1,-1 -3,-1 -4,-1 -2,0 -2,-1 -4,-1 -2,1 -1,2 -2,3 -1,0 -3,-1 -4,-1 -2,-2 -2,-1 -2,-4 1,-3 0,-3 -2,-3 -1,0 -2,-1 -3,-1 -1,0 -2,-1 -2,-1 -2,-1 -4,-2 -5,-3 -1,-1 -6,-2 -6,-1 -1,1 -1,2 -1,2 -1,0 0,-1 -1,-1 0,1 1,2 1,3 0,0 2,1 2,1 1,0 2,1 2,1 2,1 1,4 1,6 0,1 0,1 -1,2 -1,1 -1,2 -1,2 -1,2 -3,2 -1,3 0,1 2,3 1,4 -1,0 -2,-1 -2,-2 0,0 1,-1 1,-1 -1,0 0,0 -1,1 -1,-1 -1,-1 0,-2 0,0 0,-1 0,-2 0,0 -1,1 -1,2l-1 0c0,0 1,1 0,1 0,0 0,1 -1,1 0,0 0,-1 0,-2 0,0 0,-1 1,-2 1,-1 2,-1 3,-1 0,-1 0,-1 0,-1 -1,0 -3,1 -4,1 0,0 0,1 -1,1l-3 3c-1,0 -2,2 -3,2 0,0 -1,-1 -1,-1 -1,-1 -3,-6 -2,-7 0,0 0,1 1,1l1 3c0,1 0,1 0,2 0,-1 0,0 0,-1l0 -1c0,0 0,0 0,-1 0,0 1,-1 1,-1 1,0 1,1 1,2 -1,0 -1,0 -1,1 0,0 1,-1 2,-1 0,-1 1,-1 1,-1l2 -2c1,0 1,-1 1,-1 1,0 1,0 1,1 1,-1 1,-2 1,-3 1,0 1,0 1,1 0,0 -1,2 0,2 0,0 0,-1 0,-1 0,0 1,0 1,-1 0,0 0,1 1,1 1,1 1,0 1,-1 0,0 0,0 0,0l0 0c-1,-1 0,-2 0,-3 0,0 0,-1 0,-1 0,-1 0,-1 -1,-1 -1,0 0,1 0,2 0,1 -1,2 -1,2 -1,0 -1,-1 -1,-1 0,-1 1,-3 0,-4 -1,-1 -1,0 -1,0 0,1 -1,2 -1,3 0,0 0,0 0,-1l-1 0c0,0 0,-1 1,-2 0,0 0,-1 0,-1 0,0 0,0 0,0 0,0 0,0 -1,0 1,0 1,0 1,-1 -1,0 0,0 -1,0 0,1 -1,2 -1,2 0,1 0,1 -1,2 -2,-1 0,-3 -1,-4 0,-1 0,0 0,-1 0,0 0,0 0,0l-1 0c0,1 1,3 0,4 0,1 0,1 -1,2 -1,1 -4,2 -5,4 -1,0 -1,1 -2,1 0,-1 1,-3 1,-3l-2 -2c0,0 0,0 0,0l0 0c0,0 0,0 0,0 0,-1 0,0 0,-1 -1,0 0,0 -1,1 0,0 -1,-1 -2,-1 0,0 -1,0 -2,0 0,-1 0,-2 1,-2 2,0 2,1 4,1 0,0 0,-1 -1,-1 0,0 -1,0 -1,-1 -1,0 -1,0 -2,0 1,0 0,0 1,0 1,0 3,1 3,1 1,1 1,2 1,4 1,0 0,0 1,0 0,0 0,-1 0,-1 0,-1 1,-1 1,-1l1 -1c1,-1 3,-2 3,-3 0,0 1,0 1,-1 1,-1 2,0 2,-1 1,0 1,-1 1,-1 1,0 1,0 2,0 0,1 1,1 1,1 1,0 1,1 2,1 0,-1 -1,-1 -1,-2l-1 -1 0 1c-1,0 -1,0 -1,0 -1,0 -1,0 -2,0 0,0 0,0 -1,0 0,0 0,0 -1,0 0,0 0,0 0,-1 -1,-1 -3,-4 -3,-4 0,-2 1,-2 1,-3 -1,0 -1,1 -1,1 -1,1 -2,4 -2,5 0,0 0,0 0,0 0,0 0,0 1,-1 0,1 1,2 1,2 1,-1 -2,-3 0,-4 0,1 3,5 3,5 0,1 -1,1 -1,1 0,0 0,0 -1,-1 0,0 -1,0 -1,-1 -1,0 -2,-1 -3,0 -2,0 -2,0 -3,0 -1,0 -3,1 -3,1 -1,-1 -1,-1 -1,-2 -1,-1 -1,-1 -1,-2 -1,-2 -2,-3 -2,-5 -1,-1 -2,-3 -3,-4 0,-1 0,-2 -1,-2 0,-2 0,-1 0,-2 -1,-1 -1,0 -1,-2 0,0 -1,-1 -1,-1 0,-1 0,-1 -1,-2 -1,-1 -2,-1 -4,-1 -1,-1 -3,-2 -3,-1 -1,1 3,1 3,1 5,2 4,2 3,3 0,1 -2,4 -2,4 1,0 2,-3 3,-4 0,1 1,2 1,2 0,1 0,2 -1,3 0,1 -1,2 -1,2 -1,1 -1,1 -1,1 0,0 0,0 1,0 1,-1 1,-2 2,-4 0,0 1,0 1,0 0,0 1,3 1,3 0,1 -4,8 -5,9 1,0 1,-1 1,-1 1,-1 2,-2 2,-3 1,-1 2,-3 3,-4 0,1 1,2 1,3 1,0 0,0 0,1 -1,1 -3,4 -3,6 0,-1 0,-1 1,-1 0,-1 2,-5 3,-5 0,1 1,2 1,2 -1,1 -1,2 -1,2 0,1 -2,4 -2,4 1,0 3,-4 3,-5 1,1 1,2 0,4 -1,2 0,3 -3,3l0 -1c0,0 0,0 -2,1 0,0 -1,0 -2,0 -1,0 -1,0 -2,0 -1,1 -1,0 -1,0 -1,0 -1,1 -1,1 0,-1 0,-1 0,-2 0,-1 0,-1 0,-2 0,-1 -1,-2 -1,-3 0,-3 -1,-5 -1,-7 0,-2 0,-5 -1,-7 0,-1 0,-3 0,-4 -1,-1 -1,-2 -1,-3 0,-2 0,-3 0,-4 -1,-3 -1,-7 -2,-11 0,-1 0,-5 0,-7 0,-1 -1,-2 -1,-4 0,-3 -1,-7 -1,-10 0,-2 0,-3 0,-4 0,-1 0,-2 -1,-4 0,-2 0,-5 0,-7 0,-2 -1,-5 -1,-7 0,-1 0,-3 0,-4 0,-1 -1,-2 -1,-3 0,-3 0,-5 -1,-8 0,-2 0,-5 0,-7 -1,-2 0,-2 -2,-2 -1,0 -2,-1 -3,-1 -1,1 -1,1 -1,2 -1,0 -1,1 -2,2 0,1 2,4 2,6 0,1 -1,1 0,1 0,1 0,2 0,3 1,5 1,11 2,16 0,2 0,3 1,5 0,2 0,3 1,5 0,2 0,3 0,5 1,2 1,4 1,5l1 6c0,2 1,8 1,10 0,2 0,4 1,6 0,1 0,1 0,2 0,1 1,7 1,8 0,0 0,0 -1,-1 0,0 0,0 -1,0 0,0 -1,0 -2,0 -1,-1 -2,-1 -3,-2 -1,0 -3,-1 -4,-1 0,-1 -2,-2 -3,-2 -1,1 3,2 3,3l4 1c0,1 0,1 -1,2 0,0 0,0 0,1 -1,1 -2,1 -2,2 1,0 1,0 1,0l3 -4c0,0 0,0 1,0 1,0 3,1 4,1 0,1 -3,5 -4,6 0,0 -1,1 -1,1 0,0 1,-1 1,-1l2 -2c1,-1 3,-3 3,-3 1,0 1,3 1,3zm91 -8c0,0 0,0 0,0 0,0 -1,0 -1,-1 1,0 1,0 1,1zm-19 -8c0,1 0,1 -1,3 0,0 -1,1 -2,1 -2,1 -4,0 -6,0 -1,-1 -6,-1 -6,-1 -1,0 -2,1 -2,1 -1,1 -1,1 -1,1 -1,1 -1,1 -1,1l-2 2c-1,1 -1,1 -2,1 -1,1 -1,1 -2,2 -1,1 -1,1 -2,2 -1,1 -2,2 -4,3 -1,1 -3,2 -4,3l0 0c-2,3 -3,7 -4,10 -1,1 0,1 1,3 0,0 0,0 0,1 1,0 2,3 3,3 0,0 -1,-2 -1,-2 -1,-1 -1,-2 -1,-2 -2,-3 -2,-2 -1,-5 0,0 0,0 1,0 0,0 1,2 2,3 0,0 0,1 1,1 0,1 0,1 0,1 0,1 0,1 1,1 0,-1 -3,-5 -3,-6 -1,-2 -1,-2 0,-4 0,-1 1,-2 1,-2 1,1 2,4 3,5 0,0 0,1 0,1 1,1 1,2 2,2 0,1 0,1 0,1 0,0 0,0 0,0 0,0 0,0 0,0 0,1 0,0 0,1 0,-1 0,-1 0,-2 0,-1 -2,-3 -2,-3 0,-1 -3,-5 -2,-6 0,0 1,-2 2,-2 0,1 2,3 2,4l2 3c0,1 0,1 1,1 -1,-1 -2,-3 -2,-3 -1,-1 -1,-3 -2,-4 -1,-2 -1,-1 3,-4 0,0 0,0 0,-1 1,1 3,4 4,5 0,1 0,1 1,1 0,0 -4,-5 -4,-6 1,-1 2,-1 2,-2 0,0 1,-1 2,-1 0,0 1,1 1,2l2 3c0,0 1,1 1,1 0,0 -2,-3 -2,-4 -1,-2 -2,-2 -1,-4l2 -1c1,-1 1,-1 2,-1 1,0 4,6 5,7 0,-1 -1,-2 -1,-2 -1,-1 -1,-1 -1,-2 -3,-4 -3,-4 -1,-5 1,-1 1,-2 3,-1 2,0 1,0 2,1 1,1 3,5 4,5 0,0 -1,-2 -2,-3 0,0 -1,-2 -1,-3 0,0 2,1 2,1 5,1 4,0 7,4 1,3 3,5 5,8 0,0 0,0 0,0 0,1 0,1 0,1 1,-2 -7,-11 -7,-13 2,-1 2,1 4,-2 0,-1 0,-1 0,-1 0,1 4,6 5,7 -1,-1 -2,-4 -3,-5 0,0 -1,-1 -1,-1 -1,-2 -1,-2 0,-4 0,-1 0,-3 1,-4 1,1 3,5 4,5 0,-1 -3,-4 -3,-6 -1,-1 2,-5 3,-5 1,0 1,3 2,3 0,-1 -2,-4 -1,-5 0,0 3,-2 3,-1 1,1 2,3 3,5 1,0 1,1 2,1 -1,-1 -2,-4 -3,-5 0,0 -1,-1 -1,-1 2,-1 4,0 6,0 4,2 1,6 0,9 0,1 0,2 -1,2 0,1 0,1 0,2l0 1c-1,1 -7,-1 -8,-1 0,1 0,1 0,1 0,0 0,1 0,1 -1,1 -1,1 -1,2 0,1 -1,3 -1,4l5 0c0,1 0,1 1,2 0,1 1,2 2,3 0,0 0,1 1,1 0,0 -1,-2 -2,-3 0,0 -1,-2 -1,-3 1,0 3,0 4,0 1,1 0,2 1,3l0 -2c1,0 1,1 2,1 -1,-1 -1,0 -1,-1 0,0 0,0 0,-1 0,0 1,1 1,1 1,0 1,1 1,1 0,-1 0,-1 -1,-2 1,0 1,0 1,1l1 -1c0,1 0,1 1,1 1,-1 3,1 4,-1 -1,0 -1,0 -2,0 0,0 -2,0 -2,-1 -1,0 -2,1 -2,0 -2,0 -5,0 -7,0 -1,0 -3,0 -4,0 0,0 0,-4 0,-4 1,-1 1,-1 1,-2 1,0 4,1 5,1 2,1 1,1 2,-2 1,-1 1,-2 2,-3 1,-2 2,-3 2,-5 0,-1 0,-2 -1,-3 0,-1 0,-1 0,-1 -2,-2 -2,-2 -4,-2 -1,0 -2,0 -4,-1 -1,0 -1,0 -3,0 -1,1 -3,3 -4,4 -2,2 -3,3 -4,7 0,0 -1,1 -1,2 0,3 0,2 -1,3zm0 87c1,0 2,0 2,-1 1,0 1,0 2,-1 0,0 3,-1 3,-1 0,1 -4,2 -5,3 -1,0 -2,0 -2,0zm12 -5c1,0 1,0 2,-1 0,0 1,0 1,0l0 0c-1,1 -2,1 -3,1zm4 -1c0,-1 2,-1 2,-2 0,1 0,1 -1,1 0,0 -1,1 -1,1zm3 -2c1,0 1,0 1,-1 1,0 1,0 1,0 0,1 -1,1 -2,1zm4 -2c1,0 1,0 2,-1 2,-1 2,0 3,-1 0,0 1,0 1,0 -1,0 -2,1 -3,1 0,0 -1,1 -1,1 0,0 -1,0 -1,0 0,0 0,0 0,0 -1,0 0,0 -1,0zm1 -24c0,-1 1,-2 1,-2 0,0 -1,2 -1,2zm5 -11c0,0 0,0 0,-1l1 0c0,0 0,1 -1,1zm2 -4c0,0 0,-1 1,-2 0,0 0,-1 0,-1 0,-1 1,-1 1,-2 1,-1 1,-3 2,-5 1,-1 1,-2 1,-2 0,-1 0,-1 1,-1 0,1 -2,6 -3,7 0,1 -2,6 -3,6zm6 -15c0,0 -1,0 -1,0l-3 -5c-1,-3 -2,-2 -3,-5 0,-1 -1,-2 -2,-3 0,1 1,2 1,3 0,0 1,1 1,2 0,0 1,0 1,1 1,1 3,5 4,7 1,1 1,1 0,2 0,1 0,2 -1,2 0,0 -1,-3 -2,-3 0,1 1,2 2,3 1,2 0,1 0,3 -1,1 -1,2 -2,3 0,1 0,1 0,2 -1,0 -1,1 -1,1 -1,2 -2,4 -3,6 0,2 -2,5 -3,6 -1,-1 -3,-6 -4,-6 0,0 1,2 2,3 0,1 1,2 1,3 0,1 1,1 1,2 -1,1 -2,3 -3,4 -1,0 -2,-3 -3,-4 0,-1 0,-1 -1,-1 0,0 3,5 3,6 0,0 1,0 1,0 0,1 0,0 1,1 1,1 4,1 5,2 2,1 5,3 5,3l1 0c1,1 0,1 1,2 0,2 1,3 2,5 0,1 1,2 0,3 -1,0 -1,0 -2,0 -3,1 -6,2 -8,4 -1,0 -2,1 -3,1 -1,0 -2,1 -3,1 -1,1 -2,1 -3,1 -1,1 -3,2 -5,3 -2,1 -4,2 -6,2 -2,1 -4,2 -5,3 -2,0 -4,1 -3,3 0,0 0,1 0,1 0,1 0,3 0,4 0,0 0,-1 0,-1 1,-3 0,-4 3,-5 1,-1 1,-1 2,-1 0,0 0,0 0,0 1,0 0,7 0,8 1,0 1,0 1,-1l0 -3c0,-4 0,-2 0,-4 1,-1 1,-1 1,-1 1,0 1,-1 2,-1 0,0 2,-1 3,-1 0,1 0,2 0,3 0,0 0,0 0,0 0,-1 0,-2 1,-2 0,-2 0,-2 1,-2 1,0 2,-1 3,-2 0,0 0,0 1,0 1,0 -1,2 -1,2 -1,1 -2,2 -2,3 0,0 1,-1 1,-1l2 -3c1,-1 1,-1 1,-1l0 1c0,2 0,4 1,5l0 0c0,-1 0,-4 0,-6 0,-1 3,-2 4,-3 2,0 5,-1 6,-3 1,0 1,0 2,0 1,-1 3,-2 5,-2 0,0 1,-1 1,-1 1,0 1,0 1,-1l0 0c1,-1 1,-1 1,-1 -1,-1 0,0 -1,-3l-2 -3c0,0 0,0 0,0 0,-2 -1,-3 -2,-4 -2,-1 -2,-1 -4,-2 -1,-1 -2,-1 -4,-2 0,0 -2,-1 -2,-1 0,-1 2,-5 2,-6 1,-2 2,-4 3,-6 1,0 1,0 1,-1 0,0 0,-1 1,-2l1 -2c1,-2 1,-2 2,-3 0,-1 0,-2 1,-3 0,-1 1,-2 1,-3 1,-1 1,-2 1,-3 1,-2 1,-1 0,-2 0,0 0,-1 0,-1zm-136 73c0,0 0,0 -1,-1 0,0 0,0 -1,-1 -2,-1 -2,-4 -3,-6 0,-3 1,-3 -1,-3 0,2 1,4 1,6l1 7 -1 0c0,1 1,1 1,1 0,1 1,5 1,5 -1,1 0,1 0,2 0,0 0,1 0,2 0,1 0,1 0,2 0,2 1,3 1,5 0,0 0,1 0,2 0,1 0,1 0,1 0,0 0,1 0,1 0,0 1,2 1,2 0,1 0,3 0,4 0,1 0,1 0,1 0,1 0,1 0,1 1,0 1,2 1,2 0,1 0,1 0,1 0,1 0,1 0,2 0,0 0,0 0,1 0,0 0,2 1,3 0,1 0,1 0,2 -1,0 -1,0 -1,0 0,1 1,1 1,2 0,0 1,3 1,4 0,1 0,2 0,3 0,1 0,2 0,2 0,1 1,1 1,1 0,-1 0,-3 0,-4 0,0 1,0 1,0l2 2c0,0 1,1 1,1 0,-1 -2,-2 -3,-4 -1,-1 -1,0 -1,-1 -1,0 -1,-3 -1,-4 1,0 3,3 4,3 1,1 1,1 2,2 0,0 1,1 2,1 -1,-1 -2,-2 -2,-2l-6 -4c0,-1 0,-1 0,-2 -1,-2 -1,-4 -1,-5 1,0 3,2 4,3 0,-1 -3,-3 -3,-4 -1,0 -1,0 -1,-2 0,0 -1,-1 -1,-2 1,0 1,0 2,1 0,0 1,0 1,1 1,0 2,1 3,2 0,-1 -2,-2 -3,-3l-1 -1c0,0 0,0 0,0 0,-1 -1,-1 -1,-1 -1,-1 -1,-1 -1,-3 0,-1 -1,-4 -1,-4 1,0 5,3 5,3 0,0 0,1 1,1l0 -1 0 0c-1,0 -3,-2 -4,-3 -1,-1 -2,-2 -2,-3 0,-1 -1,-3 -1,-5 1,1 3,2 4,2 -1,0 -1,0 -1,-1 -3,-2 -3,-1 -3,-4 0,-1 0,-2 0,-3 0,0 1,1 2,1 0,-1 -2,-2 -2,-3 -1,0 -1,-4 -1,-4 1,0 1,1 2,1 0,0 1,1 1,1 0,0 0,-1 -1,-2 -1,-1 -2,-1 -2,-2 -1,-2 -1,-4 -1,-5 0,0 1,1 2,2 2,1 1,1 2,1zm-24 -74c0,0 1,-9 1,-10 1,-1 1,-1 1,-2 0,-1 0,-1 -1,-1 0,0 0,1 0,2l-1 6c-1,3 -1,6 -2,9l0 4 0 3c1,1 0,0 1,1 1,0 1,1 1,2 1,1 2,2 2,2 1,1 1,1 1,2 0,0 0,0 0,1 1,0 1,0 1,0 0,1 1,1 1,1 0,1 0,2 1,2 0,1 0,1 1,2 1,2 0,1 1,2 0,1 0,1 1,1 0,1 0,1 0,2 1,0 1,1 1,1 1,1 0,1 1,2 1,0 0,0 1,1l2 3c1,2 1,2 3,0 0,-1 1,-2 1,-2l2 -3c1,0 1,-1 1,-2 0,0 -1,2 -1,2 -1,1 -4,5 -5,5 -1,0 -1,-1 -1,-1 -3,-4 -3,-3 -1,-5 0,-1 1,-2 1,-2l2 -2c0,-1 0,-1 0,-1 1,0 1,0 1,0 0,0 0,0 0,-1 0,0 1,0 1,-1 -1,0 -1,1 -1,1 0,0 -1,1 -1,1l-1 1c-1,1 -3,4 -4,4 0,0 -2,-4 -2,-4 0,0 1,-2 1,-2 1,-1 1,0 1,-1 0,0 1,-1 1,-1 -1,0 -1,1 -2,1 0,1 -1,2 -2,2 0,0 -3,-5 -3,-6 -1,-1 1,-3 2,-4 1,-1 1,-1 1,-2 0,0 0,1 -1,1l-2 3c0,0 0,0 -1,0 0,0 0,0 -1,-1 0,0 -2,-2 -2,-3 -1,-1 -1,-1 -1,-2l0 0c-1,0 -1,0 -1,0l0 -2c0,0 0,-1 0,-1 0,-1 0,-1 0,-1 0,-1 0,-1 0,-1 0,-1 0,-4 1,-5 1,-1 1,-1 2,-2 0,0 1,-1 1,-2 -1,0 -2,3 -3,3zm35 129c-1,0 -1,0 -2,0 -2,0 -3,-1 -4,-1 0,1 1,1 2,1 2,1 3,1 4,1 2,1 6,3 8,4 2,0 4,1 6,2 2,1 3,1 5,2l7 3c1,0 2,1 4,1 1,1 2,2 3,2 2,0 2,0 4,1 1,0 2,1 3,1l8 3c0,0 1,0 1,1 1,0 2,0 2,0 0,-1 0,-1 -1,-1 -2,0 -6,-2 -8,-3 0,0 -1,0 -2,0 -3,-2 -6,-3 -10,-4 -4,-2 -10,-4 -14,-6 -2,-1 -5,-2 -7,-3 -2,-1 -4,-2 -5,-2 -1,-1 -2,-1 -2,-1 -1,0 -1,-1 -2,-1zm-8 -138c-1,0 -2,0 -3,1 -1,0 -2,0 -3,0 -1,0 -6,2 -7,2 0,-1 0,-2 -1,-2 -1,-1 -2,-3 -2,-4 0,-1 -1,-1 -1,-1 0,-1 0,-1 0,-1 -1,-1 -1,0 -2,0 0,0 -1,0 -2,0 0,0 -1,1 -2,1 0,0 -2,0 -2,0 0,2 2,1 3,0 2,0 3,-1 4,0 0,1 0,0 1,2 1,1 2,3 3,4 0,1 0,1 0,2 1,0 1,0 2,0l5 -2c1,0 2,0 2,0 1,0 2,-1 2,-1 1,0 1,0 2,0 1,0 1,0 2,0 1,-1 0,-1 0,-3 -1,-1 -2,-3 -2,-3 1,-1 2,-1 3,-1 0,-1 1,-1 1,-2 -1,0 -1,0 -1,1 -1,0 -1,0 -2,0 -1,0 -2,0 -2,1 0,1 2,5 2,6zm84 33c0,-1 0,-1 0,-1 -1,-1 -1,0 -2,0 -2,0 -8,-1 -8,0 -1,0 1,0 2,0 1,0 1,1 3,1 2,-1 2,0 5,0zm-22 58c1,0 1,-1 1,-1l8 -10c1,-1 1,-1 1,-2 0,0 -2,2 -2,3 0,0 -1,0 -1,0 0,1 0,1 0,1 -1,0 -1,2 -2,2l-2 3c0,0 0,0 0,0 0,0 0,0 0,0 -1,1 -3,3 -3,3 0,1 0,1 0,1zm13 -57c0,0 4,0 4,0 1,1 2,0 3,0 1,0 2,0 2,0 0,-1 -2,-1 -2,-1 -4,1 -7,-1 -7,1zm48 -5c1,0 0,-1 0,-2 0,-1 0,-1 -1,-1 0,0 0,0 -1,-1 0,-1 0,-1 -1,-2 0,0 0,-1 -1,-1 0,-1 0,-1 0,-1 0,0 3,6 4,7 0,1 0,1 0,1zm-62 26c1,0 1,-1 1,-1 0,-1 1,-1 1,-1 2,0 1,2 2,2 1,-1 0,-3 -1,-3 -1,0 -3,1 -3,3zm-65 18c0,1 1,1 2,1 -1,0 -3,-2 -3,-2 -2,-1 -3,-1 -3,-3l-1 0c0,1 0,2 1,2 0,0 1,0 1,1 0,0 0,0 1,0 0,1 1,1 2,1zm0 -6c0,-1 -2,-2 -2,-3 -1,-1 -2,-3 -3,-2 0,0 0,0 0,1 1,0 5,4 6,4 0,0 0,0 -1,0zm20 -25c1,0 1,0 1,-1 1,0 3,3 3,1 0,0 0,-1 -1,-1 0,0 -1,-1 -2,-1 -1,0 -2,2 -1,2zm92 38c0,0 1,0 1,0 0,-1 0,-1 1,-1 0,-1 1,-1 1,-2l2 -1c0,0 0,-1 1,-1 0,0 1,-1 0,-1 -1,0 -1,0 -1,1 -1,1 -3,3 -4,4 0,1 -1,1 -1,1zm-84 -77c-1,0 0,0 -1,0 -1,2 1,0 -2,3 0,0 0,1 -1,1 0,1 0,1 -1,2 1,-1 2,-2 3,-3 0,0 0,0 0,0 1,-1 2,-2 2,-3zm21 142c-1,-1 -3,-4 -4,-4 0,0 0,0 0,0 0,1 0,1 0,1 1,0 1,0 1,0 1,1 2,2 3,3 0,1 1,1 1,1 0,-1 -1,-1 -1,-1zm5 -89c0,0 0,0 1,0 0,0 1,-2 1,-3 1,1 2,1 2,1 0,-1 -1,-2 -2,-1 -1,1 -2,2 -2,3zm-36 -8c-1,-1 -1,-1 -1,-1 -3,0 -1,-1 -2,-2 -1,1 -1,2 0,3 0,0 2,0 3,0zm43 3c1,0 1,-1 2,-1 1,0 1,1 2,1 0,-1 -1,-2 -2,-2 -1,0 -2,1 -2,2zm21 56c0,-1 0,-1 0,-1 1,0 1,0 1,-1 1,-1 2,-1 2,-2 1,0 1,0 1,0l1 -2c1,0 1,0 1,0 -1,0 -1,0 -1,0l-4 4c0,0 0,1 -1,1 0,0 -1,0 0,1zm-24 -51c0,1 0,1 1,1 0,0 1,0 1,0 1,0 2,0 2,-1 0,0 0,0 0,0 0,0 0,0 0,-1 0,0 -1,1 -1,1 -2,1 -2,-1 -3,0zm-1 -6c-1,0 -1,1 -2,2 -1,0 -1,0 -2,-1 -1,0 -1,2 1,1 1,0 1,0 2,0 0,-1 1,-1 1,-2 0,0 0,0 0,0zm40 -7c0,0 0,0 0,-1 0,0 1,0 1,-1 0,0 2,-4 2,-4 -1,0 -1,0 -1,0 0,1 -2,5 -2,6zm-49 12c1,1 5,0 4,-1 0,-1 0,0 -2,1 -1,0 -2,0 -2,0zm-9 68c0,0 1,1 1,1 0,1 3,3 3,3 0,0 0,0 0,0 0,-1 -1,-2 -2,-2 0,-1 0,-1 -1,-1 0,-1 0,-1 -1,-1zm-20 -73c1,0 2,-1 2,0 1,1 0,1 1,1 0,0 0,-1 0,-1 -1,-2 -3,-2 -3,0zm104 -48c0,-1 -2,-3 -2,-4 -1,0 -1,-1 -1,-1 -1,-1 -1,-1 -1,-1 0,0 0,0 -1,0 0,0 3,4 4,5 0,0 0,1 1,1zm-44 51c-1,0 -2,0 -2,0 -2,0 -1,2 2,1 1,0 1,-1 0,-1zm-1 27c1,0 1,-3 1,-4 0,0 0,0 0,-1 -1,0 -1,0 -1,1 0,0 0,1 -1,1 1,0 1,0 1,0 0,1 0,2 0,2 0,1 0,1 0,1zm-2 33c0,-1 1,-2 2,-2 0,-1 2,-2 2,-3 -1,0 -3,2 -3,3 0,1 -1,1 -1,2zm-54 -67c0,0 0,0 0,-1 0,0 0,0 -1,0 -1,0 -1,-1 -2,0 0,0 1,1 1,1 1,0 1,0 2,0zm86 -3c0,1 -1,2 -1,2 0,1 -1,2 0,2 0,1 1,-3 1,-4zm-74 102l-1 -1c0,-1 -1,-1 -1,-1 0,1 0,1 1,1 0,1 1,2 2,3 0,-1 0,-1 0,-2 -1,0 -1,0 -1,0zm14 -92c0,-1 0,-1 1,-2 0,0 0,0 0,0 -1,-1 -3,1 -2,2 0,0 0,0 1,0zm30 40c1,0 3,-3 3,-4 0,0 1,0 1,-1 0,0 0,0 0,0l-2 2c0,0 -2,2 -2,3zm-19 64c0,-1 -2,-4 -3,-4 0,1 1,1 1,1 0,1 0,1 1,1 0,1 1,2 1,2zm-38 -23c0,0 0,0 -1,0 0,0 1,0 1,1 1,0 2,2 3,2 0,-1 0,-1 -1,-1l-2 -2zm10 -4c-1,-1 -3,-3 -4,-3 0,1 3,3 4,3zm-36 -62c1,0 0,0 1,0 0,0 0,-3 -1,-3 0,0 0,0 0,0 0,0 0,1 0,1l0 2zm59 -21c0,0 1,2 2,1 0,0 0,0 0,-1 0,0 0,0 0,0 -1,0 -1,-1 -2,0zm76 -26c1,0 1,-1 0,-1 0,0 0,-1 -1,-1 0,0 0,1 1,1 0,1 0,1 0,1zm-106 60c0,0 1,1 1,1 0,0 1,1 1,1 0,0 -1,-2 -2,-2zm60 5c0,0 1,-1 1,-1 0,-1 1,-1 0,-2 0,1 0,1 0,2 -1,0 -1,0 -1,1zm29 -40c0,0 0,0 1,-1 0,0 0,-1 -1,-1 0,1 0,1 0,2zm-32 78c0,1 -1,1 -1,1 0,0 -1,1 0,1 0,0 1,-1 1,-2zm2 -117c0,0 0,-1 -1,-1 0,-1 0,-1 0,-1 0,1 1,2 1,2zm-7 96c0,0 1,-1 2,-2 -1,0 -1,0 -1,1 0,0 -1,1 -1,1zm-46 -96c0,0 0,-1 0,-1 0,0 0,0 0,-1 -1,1 -1,2 0,2zm-6 59c0,0 1,1 1,1 0,0 0,0 1,0 0,1 0,1 0,1 0,-1 0,-1 -1,-1 0,-1 0,-1 -1,-1zm58 48c0,0 1,-1 1,-1 0,0 -1,1 -1,1zm30 -69c1,0 1,0 1,-1 -1,0 -1,0 -1,1 0,0 0,0 0,0zm-3 1c1,0 1,0 1,0 0,0 0,-1 0,-1 0,0 -1,1 -1,1zm9 -48c0,-1 -1,-2 -2,-2 0,0 1,0 2,1 0,0 0,0 0,1zm-34 123c0,0 0,0 1,0l0 -1c0,0 0,0 0,0 -1,1 -1,1 -1,1zm-76 -112c0,0 0,0 0,0 1,-1 1,-1 1,-1 -1,0 -1,1 -1,1zm-2 89c-1,-1 -1,-1 -2,-1 0,0 1,1 2,1zm18 -18c0,0 0,-1 -1,-1 0,0 0,0 0,1 1,0 1,0 1,0zm-15 41c0,-1 0,0 0,0 0,0 0,0 0,0 1,1 1,1 1,1 0,0 0,-1 -1,-1zm32 -97c0,0 1,0 1,-1 -1,0 -1,1 -1,1zm-19 7c1,0 1,0 1,-1 0,0 -1,1 -1,1zm57 110c0,0 1,0 1,-1 -1,0 -1,1 -1,1zm-77 -46c0,0 1,1 1,1 0,0 0,-1 0,-1 -1,0 -1,0 -1,0zm-1 -12c1,1 1,1 2,1 0,0 -1,0 -1,0 0,0 0,0 -1,-1zm85 56c1,0 1,0 1,-1 0,0 -1,1 -1,1zm-11 -63c0,0 0,1 0,2 0,-1 0,-1 0,-1 0,-1 0,-1 0,-1zm2 58c1,-1 1,-1 1,-2 0,0 -1,1 -1,2zm1 -16c1,0 1,-1 1,-1 0,0 -1,1 -1,1zm16 -119c0,-1 0,-1 -1,-1 0,0 0,1 1,1zm1 84c0,0 0,-1 0,-1 0,0 -1,1 0,1zm16 -50c0,-1 0,-1 0,-1 0,1 0,1 1,1 0,0 0,0 -1,0zm-125 -11c1,0 1,-1 1,-1 0,0 0,0 0,0 -1,0 -1,0 -1,1zm125 10c0,-1 0,-1 -1,-1 0,0 0,1 1,1zm-23 105c1,-1 1,-1 1,-1 0,0 -1,0 -1,1zm17 -131c0,0 0,0 0,0 0,-1 0,-1 0,-1 0,1 0,1 0,1zm23 12c0,0 1,0 1,1 0,-1 0,-1 -1,-1zm-46 96c-1,0 -1,1 -1,1 1,0 1,0 1,-1zm28 -31c0,0 0,0 0,-1 0,0 0,0 0,1zm1 -2c0,0 1,0 1,0 -1,0 -1,0 -1,0 0,0 0,0 0,0zm-101 -19c0,0 0,0 0,0l1 0c-1,0 -1,0 -1,0 0,-1 0,0 0,0zm68 -53c0,-1 0,-1 -1,-1 0,0 0,1 1,1zm0 92c0,0 1,-1 1,-1 -1,0 -1,0 -1,1zm-5 -25c0,0 0,0 0,-1 0,0 0,0 0,1zm-6 -48c0,0 0,0 0,0 1,-1 1,-1 1,-1l-1 0 0 1zm13 80c1,0 1,0 1,0 0,-1 0,-1 0,-1 0,0 -1,0 -1,1zm2 16c0,0 0,0 0,-1 0,0 0,0 0,1 -1,0 0,0 0,0zm-41 -99c0,0 0,0 0,-1 0,0 -1,1 0,1zm47 75c1,0 1,0 1,0 -1,-1 -1,0 -1,0zm-5 -22c0,1 1,0 0,0zm-58 -63c0,0 0,0 0,-1 0,1 0,0 0,1zm-26 23c0,0 0,0 0,-1 0,1 0,1 0,1zm75 -23c0,-1 -1,0 0,0zm33 -27c0,0 0,1 0,0 0,0 0,0 0,0 0,0 0,0 0,0zm9 -7c0,-1 0,-1 0,-1 0,0 0,0 0,1zm-34 35c0,0 0,0 0,-1 -1,1 0,1 0,1zm-73 45c0,0 0,0 0,0 1,0 1,0 1,0 0,0 0,0 -1,0zm-6 30c0,-1 0,-1 0,-1 -1,1 0,1 0,1 0,0 0,0 0,0zm113 -90c1,0 1,0 0,0l0 0zm-105 126c0,0 0,0 0,0 0,0 0,0 0,0 0,0 0,0 0,0zm65 8c1,0 0,0 1,0 -1,0 0,0 -1,0l0 0zm22 -130c1,1 0,0 1,0 0,0 0,0 -1,0zm-86 123c0,0 0,0 0,0 0,0 0,0 0,0 0,0 0,0 0,0zm71 -41c0,-1 0,-1 0,-1 0,1 0,1 0,1zm26 14c0,0 0,0 0,-1 0,1 0,0 0,1 0,0 0,0 0,0zm-31 39c0,0 0,0 0,0 0,0 0,0 0,1 0,0 0,-1 0,-1zm-51 -114c0,0 0,0 0,0zm46 -12c0,0 0,0 0,0 0,0 0,-1 0,0zm34 -4c0,0 1,0 1,0 0,0 -1,0 -1,0zm-103 82c0,0 0,0 0,0 0,0 0,0 0,0zm76 -17c-1,0 -1,0 0,0 0,0 0,0 0,0zm-5 4c0,-1 0,0 0,0l0 0c0,0 0,0 0,0zm-62 -46c0,0 0,0 0,0l0 0c0,0 0,0 0,0zm64 86c0,0 0,0 0,0 0,0 0,0 0,0z"/>
  <g id="_2256127323792">
   <g>
    <polygon class="fil1" points="52,184 52,184 52,188 52,188 52,189 53,189 53,188 53,188 53,188 53,188 53,187 54,187 54,187 54,187 54,187 55,187 55,188 55,188 55,188 55,188 55,188 55,188 55,188 55,188 55,189 56,189 56,189 56,189 56,189 56,189 56,189 56,189 56,189 57,189 57,189 58,189 58,189 57,189 57,189 57,189 57,189 57,189 57,189 57,189 57,188 57,188 57,188 56,188 56,188 56,188 56,188 56,188 56,188 56,188 56,187 56,187 56,187 56,187 56,187 55,187 55,187 55,187 55,186 56,186 56,186 56,186 56,186 56,186 56,186 56,186 56,186 57,186 57,186 57,186 57,185 57,185 57,185 58,185 58,185 57,185 57,185 56,185 56,185 55,185 55,185 55,185 55,185 55,185 55,186 54,185 54,186 54,186 54,186 54,186 54,186 53,186 53,186 53,186 53,186 53,186 53,184 52,184 52,184 52,184 "/>
    <polygon class="fil1" points="32,181 32,185 33,185 33,184 34,184 34,184 36,184 36,184 36,184 36,186 37,186 37,186 38,186 38,182 38,182 38,182 37,182 37,181 36,181 36,183 35,183 35,183 34,183 34,183 33,183 33,181 "/>
    <path class="fil1" d="M39 185l0 0 0 0 1 0 0 0 1 0 0 0 1 0 0 0 0 0 0 1 -1 0 0 0 -1 0 0 0 -1 0 0 -1zm-1 -2l0 0 0 0 1 0 0 1 2 0 0 0 0 0 0 0 1 0 0 0 0 0 0 0 -1 0 0 0 0 0 0 0 -2 0 0 0 -1 0 0 0 0 0 0 1 0 0 0 0 0 0 0 1 0 0 0 0 0 0 0 0 1 0 0 0 0 0 0 0 3 1 0 -1 0 0 0 1 0 0 0 0 1 0 0 -2 0 0 0 -1 0 0 0 0 0 0 0 0 -1 0 0 -1 0 0 0 0 0 0 0 0 -1 0 0 0 -3 0 0 0z"/>
    <path class="fil1" d="M45 186l0 0 0 0 1 0 0 0 2 0 0 0 -1 0 0 0 0 0 0 1 -1 0 0 -1 -1 0 0 0 0 0 0 0 0 0 0 0zm0 -1l0 0 0 0 1 0 0 0 1 0 0 0 0 0 0 0 0 0 0 0 0 0 0 0 -2 0 0 0 0 0 0 0zm-1 -1l0 0 0 0 0 0 0 0 -1 0 0 0 0 0 0 2 0 0 0 0 1 0 0 1 0 0 0 0 0 0 0 0 0 0 0 0 1 0 0 0 0 0 0 1 3 0 0 -1 0 0 0 0 0 0 0 0 0 0 0 -1 0 0 0 0 0 0 0 0 0 0 0 -1 0 0 0 0 0 0 0 0 0 0 0 -1 0 0 0 0 -1 0 0 0 0 0 0 0 -1 0 0 0 -2 0 0 0z"/>
    <path class="fil1" d="M76 190l0 0 0 0 1 0 0 0 1 0 0 0 0 0 0 0 0 0 0 1 -1 0 0 -1 -1 0 0 0 0 0 0 0zm0 -1l-1 0 0 0 0 0 0 0 0 0 0 1 -1 0 0 1 1 0 0 1 0 0 0 0 0 0 0 0 0 0 0 0 0 0 0 0 1 0 0 1 0 0 0 0 1 0 0 0 1 0 0 0 1 0 0 0 0 0 0 -1 0 0 0 0 0 0 0 0 -1 0 0 0 -2 0 0 0 0 0 0 -1 0 0 0 0 1 0 0 0 1 0 0 0 2 1 0 -1 -1 0 0 0 0 0 0 -1 0 0 0 0 0 0 0 0 0 0 0 -1 -1 0 0 0 0 0 0 0 -1 0 0 0 -1 0 0 0z"/>
    <polygon class="fil1" points="69,191 70,191 70,190 70,190 70,189 70,189 70,189 71,189 71,189 72,189 72,189 73,189 73,189 73,189 73,190 73,190 73,192 74,192 74,192 74,192 74,189 74,189 74,189 74,189 74,189 74,189 74,189 73,189 73,188 73,188 73,188 72,188 72,188 71,188 71,188 71,188 71,188 70,188 70,186 69,186 "/>
    <polygon class="fil1" points="64,187 64,187 64,187 64,187 64,188 64,188 64,188 63,188 63,189 64,189 64,190 64,190 64,190 64,190 64,190 64,190 64,190 65,190 65,191 65,191 65,191 66,191 66,191 68,191 68,191 68,191 68,191 68,191 68,190 68,190 68,190 69,190 69,190 68,190 68,190 67,190 67,190 67,190 67,190 67,190 67,190 66,190 66,190 65,190 65,190 65,190 65,189 65,189 65,189 65,189 65,188 65,188 65,188 65,188 65,188 66,188 66,188 67,188 67,188 67,188 67,189 67,189 67,189 68,189 68,189 69,189 69,188 68,188 68,188 68,188 68,188 68,188 68,188 68,188 68,187 67,187 67,187 67,187 67,187 64,187 "/>
    <polygon class="fil1" points="80,193 80,193 80,193 81,193 81,191 81,191 81,191 81,191 81,191 82,191 82,191 83,191 83,191 83,191 83,191 84,191 84,191 84,191 84,192 84,192 84,194 84,194 84,194 85,194 85,191 85,191 85,191 85,191 85,191 84,191 84,190 84,190 84,190 84,190 84,190 83,190 83,190 82,190 82,190 81,190 81,190 81,190 81,190 81,190 81,189 80,189 "/>
    <polygon class="fil1" points="61,185 60,185 60,186 60,186 60,186 59,186 59,187 60,187 60,187 60,187 60,189 61,189 61,190 61,190 61,190 61,190 61,190 61,190 61,190 62,190 62,190 63,190 63,189 62,189 62,189 62,189 62,189 62,189 62,189 61,189 61,187 62,187 62,188 63,188 63,187 63,187 63,186 61,186 61,185 61,185 "/>
    <polygon class="fil1" points="58,189 58,190 58,190 59,190 59,186 59,186 59,186 58,186 "/>
    <path class="fil1" d="M85 190l0 0 0 0 1 0 0 -1 0 0 0 0 1 0 0 0 0 0 0 0 1 0 0 1 0 0 0 0 0 0 0 1 0 0 0 0 0 0 0 1 0 0 0 0 0 0 0 0 -2 0 0 0 0 0 0 -1 0 0 0 0 0 0 0 0 -1 0 0 0 0 0 0 -1zm1 -1l0 0 0 0 -1 0 0 0 0 0 0 0 0 0 0 2 0 0 0 0 0 0 0 1 1 0 0 0 0 0 0 0 0 0 0 0 2 0 0 0 0 0 0 0 0 0 0 0 0 0 0 0 0 0 0 -2 0 0 0 0 0 0 0 -1 0 0 0 0 0 0 0 0 -1 0 0 0 0 0 0 0 -1 0 0 0z"/>
    <polygon class="fil1" points="86,191 86,191 86,191 86,191 86,191 86,191 86,191 87,191 87,191 87,191 87,191 87,191 87,190 87,190 87,190 86,190 86,190 86,190 "/>
    <polygon class="fil1" points="58,185 58,185 58,186 59,186 59,185 59,185 59,184 58,184 "/>
   </g>
  </g>
 </g>
</svg>
